<svg width="103" height="85" viewBox="0 0 103 85" fill="none" xmlns="http://www.w3.org/2000/svg">
    <path d="M29.684 71.072C29.06 71.072 28.46 70.972 27.884 70.772C27.316 70.572 26.876 70.308 26.564 69.98L26.912 69.296C27.216 69.6 27.62 69.848 28.124 70.04C28.628 70.224 29.148 70.316 29.684 70.316C30.436 70.316 31 70.18 31.376 69.908C31.752 69.628 31.94 69.268 31.94 68.828C31.94 68.492 31.836 68.224 31.628 68.024C31.428 67.824 31.18 67.672 30.884 67.568C30.588 67.456 30.176 67.336 29.648 67.208C29.016 67.048 28.512 66.896 28.136 66.752C27.76 66.6 27.436 66.372 27.164 66.068C26.9 65.764 26.768 65.352 26.768 64.832C26.768 64.408 26.88 64.024 27.104 63.68C27.328 63.328 27.672 63.048 28.136 62.84C28.6 62.632 29.176 62.528 29.864 62.528C30.344 62.528 30.812 62.596 31.268 62.732C31.732 62.86 32.132 63.04 32.468 63.272L32.168 63.98C31.816 63.748 31.44 63.576 31.04 63.464C30.64 63.344 30.248 63.284 29.864 63.284C29.128 63.284 28.572 63.428 28.196 63.716C27.828 63.996 27.644 64.36 27.644 64.808C27.644 65.144 27.744 65.416 27.944 65.624C28.152 65.824 28.408 65.98 28.712 66.092C29.024 66.196 29.44 66.312 29.96 66.44C30.576 66.592 31.072 66.744 31.448 66.896C31.832 67.04 32.156 67.264 32.42 67.568C32.684 67.864 32.816 68.268 32.816 68.78C32.816 69.204 32.7 69.592 32.468 69.944C32.244 70.288 31.896 70.564 31.424 70.772C30.952 70.972 30.372 71.072 29.684 71.072ZM34.5708 64.688H35.4228V71H34.5708V64.688ZM35.0028 63.308C34.8268 63.308 34.6788 63.248 34.5588 63.128C34.4388 63.008 34.3788 62.864 34.3788 62.696C34.3788 62.536 34.4388 62.396 34.5588 62.276C34.6788 62.156 34.8268 62.096 35.0028 62.096C35.1788 62.096 35.3268 62.156 35.4468 62.276C35.5668 62.388 35.6268 62.524 35.6268 62.684C35.6268 62.86 35.5668 63.008 35.4468 63.128C35.3268 63.248 35.1788 63.308 35.0028 63.308ZM37.7935 62.096H38.6455V71H37.7935V62.096ZM46.5121 68.108H41.2321C41.2801 68.764 41.5321 69.296 41.9881 69.704C42.4441 70.104 43.0201 70.304 43.7161 70.304C44.1081 70.304 44.4681 70.236 44.7961 70.1C45.1241 69.956 45.4081 69.748 45.6481 69.476L46.1281 70.028C45.8481 70.364 45.4961 70.62 45.0721 70.796C44.6561 70.972 44.1961 71.06 43.6921 71.06C43.0441 71.06 42.4681 70.924 41.9641 70.652C41.4681 70.372 41.0801 69.988 40.8001 69.5C40.5201 69.012 40.3801 68.46 40.3801 67.844C40.3801 67.228 40.5121 66.676 40.7761 66.188C41.0481 65.7 41.4161 65.32 41.8801 65.048C42.3521 64.776 42.8801 64.64 43.4641 64.64C44.0481 64.64 44.5721 64.776 45.0361 65.048C45.5001 65.32 45.8641 65.7 46.1281 66.188C46.3921 66.668 46.5241 67.22 46.5241 67.844L46.5121 68.108ZM43.4641 65.372C42.8561 65.372 42.3441 65.568 41.9281 65.96C41.5201 66.344 41.2881 66.848 41.2321 67.472H45.7081C45.6521 66.848 45.4161 66.344 45.0001 65.96C44.5921 65.568 44.0801 65.372 43.4641 65.372ZM51.4743 64.64C52.2663 64.64 52.8943 64.872 53.3583 65.336C53.8303 65.792 54.0663 66.46 54.0663 67.34V71H53.2143V67.424C53.2143 66.768 53.0503 66.268 52.7223 65.924C52.3943 65.58 51.9263 65.408 51.3183 65.408C50.6383 65.408 50.0983 65.612 49.6983 66.02C49.3063 66.42 49.1103 66.976 49.1103 67.688V71H48.2583V64.688H49.0743V65.852C49.3063 65.468 49.6263 65.172 50.0343 64.964C50.4503 64.748 50.9303 64.64 51.4743 64.64ZM59.0188 71.06C58.3948 71.06 57.8348 70.924 57.3388 70.652C56.8508 70.38 56.4668 70 56.1868 69.512C55.9068 69.016 55.7668 68.46 55.7668 67.844C55.7668 67.228 55.9068 66.676 56.1868 66.188C56.4668 65.7 56.8508 65.32 57.3388 65.048C57.8348 64.776 58.3948 64.64 59.0188 64.64C59.5628 64.64 60.0468 64.748 60.4708 64.964C60.9028 65.172 61.2428 65.48 61.4908 65.888L60.8548 66.32C60.6468 66.008 60.3828 65.776 60.0628 65.624C59.7428 65.464 59.3948 65.384 59.0188 65.384C58.5628 65.384 58.1508 65.488 57.7828 65.696C57.4228 65.896 57.1388 66.184 56.9308 66.56C56.7308 66.936 56.6308 67.364 56.6308 67.844C56.6308 68.332 56.7308 68.764 56.9308 69.14C57.1388 69.508 57.4228 69.796 57.7828 70.004C58.1508 70.204 58.5628 70.304 59.0188 70.304C59.3948 70.304 59.7428 70.228 60.0628 70.076C60.3828 69.924 60.6468 69.692 60.8548 69.38L61.4908 69.812C61.2428 70.22 60.9028 70.532 60.4708 70.748C60.0388 70.956 59.5548 71.06 59.0188 71.06ZM63.1646 64.688H64.0166V71H63.1646V64.688ZM63.5966 63.308C63.4206 63.308 63.2726 63.248 63.1526 63.128C63.0326 63.008 62.9726 62.864 62.9726 62.696C62.9726 62.536 63.0326 62.396 63.1526 62.276C63.2726 62.156 63.4206 62.096 63.5966 62.096C63.7726 62.096 63.9206 62.156 64.0406 62.276C64.1606 62.388 64.2206 62.524 64.2206 62.684C64.2206 62.86 64.1606 63.008 64.0406 63.128C63.9206 63.248 63.7726 63.308 63.5966 63.308ZM68.5952 64.64C69.4192 64.64 70.0512 64.848 70.4912 65.264C70.9312 65.672 71.1512 66.28 71.1512 67.088V71H70.3352V70.016C70.1432 70.344 69.8592 70.6 69.4832 70.784C69.1152 70.968 68.6752 71.06 68.1632 71.06C67.4592 71.06 66.8992 70.892 66.4832 70.556C66.0672 70.22 65.8592 69.776 65.8592 69.224C65.8592 68.688 66.0512 68.256 66.4352 67.928C66.8272 67.6 67.4472 67.436 68.2952 67.436H70.2992V67.052C70.2992 66.508 70.1472 66.096 69.8432 65.816C69.5392 65.528 69.0952 65.384 68.5112 65.384C68.1112 65.384 67.7272 65.452 67.3592 65.588C66.9912 65.716 66.6752 65.896 66.4112 66.128L66.0272 65.492C66.3472 65.22 66.7312 65.012 67.1792 64.868C67.6272 64.716 68.0992 64.64 68.5952 64.64ZM68.2952 70.388C68.7752 70.388 69.1872 70.28 69.5312 70.064C69.8752 69.84 70.1312 69.52 70.2992 69.104V68.072H68.3192C67.2392 68.072 66.6992 68.448 66.6992 69.2C66.6992 69.568 66.8392 69.86 67.1192 70.076C67.3992 70.284 67.7912 70.388 68.2952 70.388ZM74.2813 65.924C74.4813 65.5 74.7773 65.18 75.1693 64.964C75.5693 64.748 76.0613 64.64 76.6453 64.64V65.468L76.4413 65.456C75.7773 65.456 75.2573 65.66 74.8813 66.068C74.5053 66.476 74.3173 67.048 74.3173 67.784V71H73.4653V64.688H74.2813V65.924Z" fill="#E82D2D" />
    <path d="M49 55C61.1503 55 71 45.1503 71 33C71 20.8497 61.1503 11 49 11C36.8497 11 27 20.8497 27 33C27 45.1503 36.8497 55 49 55Z" stroke="#E82D2D" />
    <path d="M49 35C50.66 35 51.99 33.66 51.99 32L52 26C52 24.34 50.66 23 49 23C47.34 23 46 24.34 46 26V32C46 33.66 47.34 35 49 35ZM54.3 32C54.3 35 51.76 37.1 49 37.1C46.24 37.1 43.7 35 43.7 32H42C42 35.41 44.72 38.23 48 38.72V42H50V38.72C53.28 38.24 56 35.42 56 32H54.3Z" fill="#E82D2D" />
</svg>
    