<svg width="103" height="85" viewBox="0 0 103 85" fill="none" xmlns="http://www.w3.org/2000/svg">
    <path d="M36.636 68.756H31.956L30.948 71H30.024L33.864 62.6H34.74L38.58 71H37.644L36.636 68.756ZM36.312 68.036L34.296 63.524L32.28 68.036H36.312ZM42.347 71.06C41.723 71.06 41.163 70.924 40.667 70.652C40.179 70.38 39.795 70 39.515 69.512C39.235 69.016 39.095 68.46 39.095 67.844C39.095 67.228 39.235 66.676 39.515 66.188C39.795 65.7 40.179 65.32 40.667 65.048C41.163 64.776 41.723 64.64 42.347 64.64C42.891 64.64 43.375 64.748 43.799 64.964C44.231 65.172 44.571 65.48 44.819 65.888L44.183 66.32C43.975 66.008 43.711 65.776 43.391 65.624C43.071 65.464 42.723 65.384 42.347 65.384C41.891 65.384 41.479 65.488 41.111 65.696C40.751 65.896 40.467 66.184 40.259 66.56C40.059 66.936 39.959 67.364 39.959 67.844C39.959 68.332 40.059 68.764 40.259 69.14C40.467 69.508 40.751 69.796 41.111 70.004C41.479 70.204 41.891 70.304 42.347 70.304C42.723 70.304 43.071 70.228 43.391 70.076C43.711 69.924 43.975 69.692 44.183 69.38L44.819 69.812C44.571 70.22 44.231 70.532 43.799 70.748C43.367 70.956 42.883 71.06 42.347 71.06ZM49.887 70.616C49.727 70.76 49.527 70.872 49.287 70.952C49.055 71.024 48.811 71.06 48.555 71.06C47.963 71.06 47.507 70.9 47.187 70.58C46.867 70.26 46.707 69.808 46.707 69.224V65.408H45.579V64.688H46.707V63.308H47.559V64.688H49.479V65.408H47.559V69.176C47.559 69.552 47.651 69.84 47.835 70.04C48.027 70.232 48.299 70.328 48.651 70.328C48.827 70.328 48.995 70.3 49.155 70.244C49.323 70.188 49.467 70.108 49.587 70.004L49.887 70.616ZM51.438 64.688H52.29V71H51.438V64.688ZM51.87 63.308C51.694 63.308 51.546 63.248 51.426 63.128C51.306 63.008 51.246 62.864 51.246 62.696C51.246 62.536 51.306 62.396 51.426 62.276C51.546 62.156 51.694 62.096 51.87 62.096C52.046 62.096 52.194 62.156 52.314 62.276C52.434 62.388 52.494 62.524 52.494 62.684C52.494 62.86 52.434 63.008 52.314 63.128C52.194 63.248 52.046 63.308 51.87 63.308ZM59.9647 64.688L57.1567 71H56.2807L53.4847 64.688H54.3727L56.7367 70.064L59.1247 64.688H59.9647ZM63.1851 64.64C64.0091 64.64 64.6411 64.848 65.0811 65.264C65.5211 65.672 65.7411 66.28 65.7411 67.088V71H64.9251V70.016C64.7331 70.344 64.4491 70.6 64.0731 70.784C63.7051 70.968 63.2651 71.06 62.7531 71.06C62.0491 71.06 61.4891 70.892 61.0731 70.556C60.6571 70.22 60.4491 69.776 60.4491 69.224C60.4491 68.688 60.6411 68.256 61.0251 67.928C61.4171 67.6 62.0371 67.436 62.8851 67.436H64.8891V67.052C64.8891 66.508 64.7371 66.096 64.4331 65.816C64.1291 65.528 63.6851 65.384 63.1011 65.384C62.7011 65.384 62.3171 65.452 61.9491 65.588C61.5811 65.716 61.2651 65.896 61.0011 66.128L60.6171 65.492C60.9371 65.22 61.3211 65.012 61.7691 64.868C62.2171 64.716 62.6891 64.64 63.1851 64.64ZM62.8851 70.388C63.3651 70.388 63.7771 70.28 64.1211 70.064C64.4651 69.84 64.7211 69.52 64.8891 69.104V68.072H62.9091C61.8291 68.072 61.2891 68.448 61.2891 69.2C61.2891 69.568 61.4291 69.86 61.7091 70.076C61.9891 70.284 62.3811 70.388 62.8851 70.388ZM68.8712 65.924C69.0712 65.5 69.3672 65.18 69.7592 64.964C70.1592 64.748 70.6512 64.64 71.2352 64.64V65.468L71.0312 65.456C70.3672 65.456 69.8472 65.66 69.4712 66.068C69.0952 66.476 68.9072 67.048 68.9072 67.784V71H68.0552V64.688H68.8712V65.924Z" fill="#E31A1A" />
    <path d="M49.5 55C61.6503 55 71.5 45.1503 71.5 33C71.5 20.8497 61.6503 11 49.5 11C37.3497 11 27.5 20.8497 27.5 33C27.5 45.1503 37.3497 55 49.5 55Z" stroke="#E31A1A" />
    <path d="M56 32H54.3C54.3 32.74 54.14 33.43 53.87 34.05L55.1 35.28C55.66 34.3 56 33.19 56 32V32ZM51.98 32.17C51.98 32.11 52 32.06 52 32V26C52 24.34 50.66 23 49 23C47.34 23 46 24.34 46 26V26.18L51.98 32.17ZM41.27 24L40 25.27L46.01 31.28V32C46.01 33.66 47.34 35 49 35C49.22 35 49.44 34.97 49.65 34.92L51.31 36.58C50.6 36.91 49.81 37.1 49 37.1C46.24 37.1 43.7 35 43.7 32H42C42 35.41 44.72 38.23 48 38.72V42H50V38.72C50.91 38.59 51.77 38.27 52.54 37.82L56.73 42L58 40.73L41.27 24Z" fill="#E31A1A" />
</svg>
    