<svg xmlns="http://www.w3.org/2000/svg" viewBox="0 0 30.688 35.8">
  <defs>
    <style>
      .cls-1 {
        fill: #fff;
        stroke: #fff;
        stroke-miterlimit: 10;
        stroke-width: 0.8px;
      }
    </style>
  </defs>
  <path id="Fill_18" data-name="Fill 18" class="cls-1" d="M14.926,35a3.4,3.4,0,0,1-1.193-.215,17.62,17.62,0,0,1-4.844-2.977,25.718,25.718,0,0,1-6.956-8.626A17.711,17.711,0,0,1,.224,12.409a14.818,14.818,0,0,1,4.989-8.7A15.024,15.024,0,0,1,14.762,0h.289a15,15,0,0,1,10.78,4.9,14.941,14.941,0,0,1,4.011,11.262A20.862,20.862,0,0,1,26.217,26.33a24.633,24.633,0,0,1-8.095,7.528A6.591,6.591,0,0,1,14.926,35ZM14.866,1.187h0A13.83,13.83,0,0,0,4.936,5.673,13.712,13.712,0,0,0,1.255,15.992C1.709,22.927,6.5,29.858,13.176,33.241A4.1,4.1,0,0,0,15,33.794a2.48,2.48,0,0,0,.9-.171,17.033,17.033,0,0,0,4.513-2.811c5.658-4.622,8.734-11.014,8.229-17.1A14.022,14.022,0,0,0,15.133,1.189h-.266Zm.3,21.335A8.694,8.694,0,0,1,7.44,17.911a8.279,8.279,0,0,1-.265-6.372,8.34,8.34,0,0,1,4.246-4.819,8.5,8.5,0,0,1,3.555-.778h.031a8.6,8.6,0,0,1,8.168,6.795,8.589,8.589,0,0,1-4.968,9.186A7.8,7.8,0,0,1,15.167,22.522ZM14.931,7.13h-.023a7.367,7.367,0,0,0-7,5.824,7.348,7.348,0,0,0,4.34,7.909,6.679,6.679,0,0,0,2.528.483,7.434,7.434,0,0,0,6.659-4.036,7.148,7.148,0,0,0-.589-6.809A6.926,6.926,0,0,0,14.931,7.13Z" transform="translate(0.405 0.4)"/>
</svg>
