<svg id="icon" xmlns="http://www.w3.org/2000/svg" viewBox="0 0 49 49">
  <defs>
    <style>
      .cls-1 {
        fill: #818e8e;
      }
    </style>
  </defs>
  <path id="Shape" class="cls-1" d="M24.5,49A24.5,24.5,0,1,1,49,24.5,24.528,24.528,0,0,1,24.5,49Zm0-46.129A21.629,21.629,0,1,0,46.129,24.5,21.653,21.653,0,0,0,24.5,2.871Z"/>
  <path id="Path" class="cls-1" d="M2.635,3.648A6.3,6.3,0,0,1,6.5,2.4a6.3,6.3,0,0,1,3.867,1.247,1.868,1.868,0,0,0,2.182,0,1.024,1.024,0,0,0,0-1.7A9.857,9.857,0,0,0,6.5,0,9.857,9.857,0,0,0,.453,1.95h0a1.023,1.023,0,0,0,0,1.7,1.869,1.869,0,0,0,2.182,0Z" transform="translate(28 15)"/>
  <path id="Path-2" data-name="Path" class="cls-1" d="M2.634,3.648A6.3,6.3,0,0,1,6.5,2.4a6.3,6.3,0,0,1,3.867,1.247,1.868,1.868,0,0,0,2.182,0,1.024,1.024,0,0,0,0-1.7A9.857,9.857,0,0,0,6.5,0,9.857,9.857,0,0,0,.453,1.95h0a1.023,1.023,0,0,0,0,1.7A1.868,1.868,0,0,0,2.634,3.648Z" transform="translate(8 15)"/>
  <path id="Shape-2" data-name="Shape" class="cls-1" d="M17,19A16.646,16.646,0,0,1,4.979,13.873,17.656,17.656,0,0,1,0,1.495,1.475,1.475,0,0,1,1.452,0h31.1A1.475,1.475,0,0,1,34,1.495a17.656,17.656,0,0,1-4.979,12.378A16.646,16.646,0,0,1,17,19ZM2.976,2.99h0A14.2,14.2,0,0,0,17,16.01,14.2,14.2,0,0,0,31.024,2.99H2.976Z" transform="translate(8 23)"/>
</svg>
