<svg width="103" height="85" viewBox="0 0 103 85" fill="none" xmlns="http://www.w3.org/2000/svg">
<path d="M36.348 65.2C37.1973 65.2 37.9347 65.34 38.56 65.62C39.1947 65.9 39.68 66.3013 40.016 66.824C40.352 67.3467 40.52 67.9673 40.52 68.686C40.52 69.3953 40.352 70.016 40.016 70.548C39.68 71.0707 39.1947 71.472 38.56 71.752C37.9347 72.032 37.1973 72.172 36.348 72.172H34.136V75H32.316V65.2H36.348ZM36.264 70.632C37.0573 70.632 37.6593 70.464 38.07 70.128C38.4807 69.792 38.686 69.3113 38.686 68.686C38.686 68.0607 38.4807 67.58 38.07 67.244C37.6593 66.908 37.0573 66.74 36.264 66.74H34.136V70.632H36.264ZM45.1714 67.44C46.2727 67.44 47.1127 67.706 47.6914 68.238C48.2794 68.7607 48.5734 69.554 48.5734 70.618V75H46.9214V74.09C46.7067 74.4167 46.3987 74.6687 45.9974 74.846C45.6054 75.014 45.1294 75.098 44.5694 75.098C44.0094 75.098 43.5194 75.0047 43.0994 74.818C42.6794 74.622 42.3527 74.356 42.1194 74.02C41.8954 73.6747 41.7834 73.2873 41.7834 72.858C41.7834 72.186 42.0307 71.6493 42.5254 71.248C43.0294 70.8373 43.8181 70.632 44.8914 70.632H46.8234V70.52C46.8234 69.9973 46.6647 69.596 46.3474 69.316C46.0394 69.036 45.5774 68.896 44.9614 68.896C44.5414 68.896 44.1261 68.9613 43.7154 69.092C43.3141 69.2227 42.9734 69.4047 42.6934 69.638L42.0074 68.364C42.3994 68.0653 42.8707 67.8367 43.4214 67.678C43.9721 67.5193 44.5554 67.44 45.1714 67.44ZM44.9334 73.824C45.3721 73.824 45.7594 73.726 46.0954 73.53C46.4407 73.3247 46.6834 73.0353 46.8234 72.662V71.794H45.0174C44.0094 71.794 43.5054 72.1253 43.5054 72.788C43.5054 73.1053 43.6314 73.3573 43.8834 73.544C44.1354 73.7307 44.4854 73.824 44.9334 73.824ZM52.6996 68.616C53.2036 67.832 54.0903 67.44 55.3596 67.44V69.106C55.2103 69.078 55.0749 69.064 54.9536 69.064C54.2723 69.064 53.7403 69.2647 53.3576 69.666C52.9749 70.058 52.7836 70.6273 52.7836 71.374V75H51.0336V67.524H52.6996V68.616ZM59.8734 67.44C60.9748 67.44 61.8148 67.706 62.3934 68.238C62.9814 68.7607 63.2754 69.554 63.2754 70.618V75H61.6234V74.09C61.4088 74.4167 61.1008 74.6687 60.6994 74.846C60.3074 75.014 59.8314 75.098 59.2714 75.098C58.7114 75.098 58.2214 75.0047 57.8014 74.818C57.3814 74.622 57.0548 74.356 56.8214 74.02C56.5974 73.6747 56.4854 73.2873 56.4854 72.858C56.4854 72.186 56.7328 71.6493 57.2274 71.248C57.7314 70.8373 58.5201 70.632 59.5934 70.632H61.5254V70.52C61.5254 69.9973 61.3668 69.596 61.0494 69.316C60.7414 69.036 60.2794 68.896 59.6634 68.896C59.2434 68.896 58.8281 68.9613 58.4174 69.092C58.0161 69.2227 57.6754 69.4047 57.3954 69.638L56.7094 68.364C57.1014 68.0653 57.5728 67.8367 58.1234 67.678C58.6741 67.5193 59.2574 67.44 59.8734 67.44ZM59.6354 73.824C60.0741 73.824 60.4614 73.726 60.7974 73.53C61.1428 73.3247 61.3854 73.0353 61.5254 72.662V71.794H59.7194C58.7114 71.794 58.2074 72.1253 58.2074 72.788C58.2074 73.1053 58.3334 73.3573 58.5854 73.544C58.8374 73.7307 59.1874 73.824 59.6354 73.824ZM67.4016 68.616C67.9056 67.832 68.7923 67.44 70.0616 67.44V69.106C69.9123 69.078 69.7769 69.064 69.6556 69.064C68.9743 69.064 68.4423 69.2647 68.0596 69.666C67.6769 70.058 67.4856 70.6273 67.4856 71.374V75H65.7356V67.524H67.4016V68.616Z" fill="white"/>
<path fill-rule="evenodd" clip-rule="evenodd" d="M20 18.75C20 16.7609 20.8165 14.8532 22.2699 13.4467C23.7233 12.0402 25.6946 11.25 27.75 11.25H56.8125C58.6922 11.2498 60.508 11.9107 61.9216 13.1097C63.3352 14.3087 64.2504 15.9641 64.4966 17.7675L76.5479 12.585C77.1378 12.3306 77.784 12.223 78.4278 12.2718C79.0716 12.3207 79.6926 12.5244 80.2343 12.8646C80.776 13.2048 81.2213 13.6706 81.5297 14.2197C81.8381 14.7688 81.9997 15.3838 82 16.0088V43.9912C81.9994 44.6157 81.8377 45.2302 81.5296 45.7788C81.2214 46.3275 80.7766 46.793 80.2354 47.1331C79.6942 47.4732 79.0738 47.6771 78.4305 47.7263C77.7872 47.7755 77.1415 47.6685 76.5517 47.415L64.4966 42.2325C64.2504 44.0359 63.3352 45.6913 61.9216 46.8903C60.508 48.0893 58.6922 48.7502 56.8125 48.75H27.75C25.6946 48.75 23.7233 47.9598 22.2699 46.5533C20.8165 45.1468 20 43.2391 20 41.25V18.75ZM64.5625 38.1563L78.125 43.9912V16.0088L64.5625 21.8437V38.1563ZM27.75 15C26.7223 15 25.7367 15.3951 25.01 16.0984C24.2833 16.8016 23.875 17.7554 23.875 18.75V41.25C23.875 42.2446 24.2833 43.1984 25.01 43.9016C25.7367 44.6049 26.7223 45 27.75 45H56.8125C57.8402 45 58.8258 44.6049 59.5525 43.9016C60.2792 43.1984 60.6875 42.2446 60.6875 41.25V18.75C60.6875 17.7554 60.2792 16.8016 59.5525 16.0984C58.8258 15.3951 57.8402 15 56.8125 15H27.75Z" fill="white"/>
</svg>
