<svg id="cards" xmlns="http://www.w3.org/2000/svg" viewBox="0 0 110 21.25">
  <defs>
    <style>
      .cls-1 {
        fill: #4361c3;
      }

      .cls-2 {
        fill: #ffaf38;
      }

      .cls-3 {
        fill: #eb3636;
      }

      .cls-11, .cls-4 {
        fill: #fff;
      }

      .cls-4 {
        opacity: 0.05;
      }

      .cls-5 {
        fill: #f9f9f9;
      }

      .cls-6 {
        fill: #09599e;
      }

      .cls-7 {
        fill: #e59703;
      }

      .cls-8 {
        fill: #00589f;
      }

      .cls-9 {
        fill: #f9a51a;
      }

      .cls-10 {
        fill: #2aa0d0;
      }
    </style>
  </defs>
  <g id="credit-cards_mastercard">
    <g id="Layer_1">
      <path id="Shape" class="cls-1" d="M1.3,0H29.835a1.245,1.245,0,0,1,1.3,1.176V18.824A1.245,1.245,0,0,1,29.835,20H1.3A1.245,1.245,0,0,1,0,18.824V1.176A1.245,1.245,0,0,1,1.3,0Z"/>
      <path id="Shape-2" data-name="Shape" class="cls-2" d="M4.7,0A4.622,4.622,0,0,1,9.4,4.531,4.622,4.622,0,0,1,4.7,9.063,4.622,4.622,0,0,1,0,4.531,4.622,4.622,0,0,1,4.7,0Z" transform="translate(14.593 6.25)"/>
      <rect id="Rectangle-path" class="cls-2" width="3.243" height="0.625" transform="translate(15.242 8.438)"/>
      <path id="Shape-3" data-name="Shape" class="cls-3" d="M4.7,9.063A4.622,4.622,0,0,1,0,4.531,4.622,4.622,0,0,1,4.7,0,4.622,4.622,0,0,1,9.4,4.531,4.622,4.622,0,0,1,4.7,9.063Z" transform="translate(7.134 6.25)"/>
      <path id="Shape-4" data-name="Shape" class="cls-2" d="M4.541,4.375H.324V3.75H4.541v.624Zm-.325-1.25H0V2.5H4.216v.624Zm0-1.25H0V1.25H4.216v.624ZM4.541.625H.324V0H4.541V.624Z" transform="translate(14.917 8.438)"/>
      <path id="Shape-5" data-name="Shape" class="cls-4" d="M1.3,21.25h.584L31.132,1.813V1.25A1.278,1.278,0,0,0,29.835,0H1.3A1.278,1.278,0,0,0,0,1.25V20A1.278,1.278,0,0,0,1.3,21.25Z"/>
    </g>
  </g>
  <g id="credit-cards_visa" transform="translate(39.434)">
    <g id="Layer_1-2" data-name="Layer_1">
      <g id="Group">
        <rect id="Rectangle-path-2" data-name="Rectangle-path" class="cls-5" width="31.132" height="9.412" transform="translate(0 5.294)"/>
        <path id="Shape-6" data-name="Shape" class="cls-6" d="M1.3,0H29.835a1.245,1.245,0,0,1,1.3,1.176V5.294H0V1.176A1.245,1.245,0,0,1,1.3,0Z"/>
        <path id="Shape-7" data-name="Shape" class="cls-7" d="M0,0H31.132V4.118a1.245,1.245,0,0,1-1.3,1.176H1.3A1.245,1.245,0,0,1,0,4.118Z" transform="translate(0 14.706)"/>
        <path id="Shape-8" data-name="Shape" class="cls-4" d="M1.3,19.971A1.245,1.245,0,0,1,0,18.794V1.176A1.245,1.245,0,0,1,1.3,0H29.835a1.245,1.245,0,0,1,1.3,1.176"/>
        <g id="Group-2" data-name="Group" transform="translate(5.513 7.353)">
          <path id="Shape-9" data-name="Shape" class="cls-8" d="M0,4.971.94,0H2.432l-.94,4.971Z" transform="translate(6.518 0.147)"/>
          <path id="Shape-10" data-name="Shape" class="cls-8" d="M4.475.206A4.5,4.5,0,0,0,3.146,0C1.654,0,.616.676.616,1.647c0,.706.746,1.118,1.3,1.353.584.235.778.412.778.618,0,.324-.454.5-.908.5A3.538,3.538,0,0,1,.389,3.853L.195,3.735,0,4.853a4.856,4.856,0,0,0,1.654.265c1.557,0,2.594-.676,2.594-1.706,0-.559-.389-1-1.265-1.353-.519-.235-.843-.382-.843-.618C2.14,1.235,2.4,1,2.983,1a3.336,3.336,0,0,1,1.1.176l.13.059L4.475.206" transform="translate(8.95 0.088)"/>
          <path id="Shape-11" data-name="Shape" class="cls-8" d="M1.557,4.971H0L2.205.412A.748.748,0,0,1,2.984,0H4.151L5.383,4.969H3.989s-.006-.018-.014-.046c-.038-.135-.154-.544-.181-.689H1.881c-.064.116-.321.729-.324.735ZM3.081,1.324h0c-.061.166-.181.439-.194.469l0,0h0c-.077.183-.464,1.111-.582,1.378v.03H3.535L3.178,1.765l-.1-.441Z" transform="translate(13.101 0.176)"/>
          <path id="Shape-12" data-name="Shape" class="cls-8" d="M3.7.029,2.238,3.412l-.162-.676A4.073,4.073,0,0,0,0,.647L1.362,4.971H2.951L5.318,0H3.7" transform="translate(1.557 0.147)"/>
          <path id="Shape-13" data-name="Shape" class="cls-9" d="M2.432,0H.032L0,.118A4.9,4.9,0,0,1,3.632,2.706L3.113.441C3.048.118,2.756.029,2.432,0" transform="translate(0 0.147)"/>
        </g>
      </g>
    </g>
  </g>
  <g id="credit-cards_amex" transform="translate(78.868)">
    <g id="Layer_1-3" data-name="Layer_1">
      <path id="Shape-14" data-name="Shape" class="cls-10" d="M1.3,0H29.835a1.245,1.245,0,0,1,1.3,1.176V18.824A1.245,1.245,0,0,1,29.835,20H1.3A1.245,1.245,0,0,1,0,18.824V1.176A1.245,1.245,0,0,1,1.3,0Z"/>
      <path id="Shape-15" data-name="Shape" class="cls-10" d="M17.339,5.029H13.447a.308.308,0,0,1-.324-.265.308.308,0,0,1-.325.265H11.5a.294.294,0,0,1-.324-.294V3.029l-.843,1.823a.287.287,0,0,1-.292.176H9.037a.315.315,0,0,1-.293-.176l-.81-1.794V4.735a.294.294,0,0,1-.325.294H5.016a.315.315,0,0,1-.293-.176l-.454-1H2.486L2,4.853a.288.288,0,0,1-.293.176H.313a.333.333,0,0,1-.259-.147.32.32,0,0,1-.032-.294L2.259.176A.315.315,0,0,1,2.551,0H4.27a.315.315,0,0,1,.292.176L5.989,3.059V.294A.294.294,0,0,1,6.313,0H8a.379.379,0,0,1,.292.176l1.3,2.382L10.625.206A.286.286,0,0,1,10.918.03H12.8a.307.307,0,0,1,.325.265A.309.309,0,0,1,13.447.03h3.892a.336.336,0,0,1,.324.293v.883a.294.294,0,0,1-.324.294h-2.27v.293h2.2a.294.294,0,0,1,.324.294v.883a.293.293,0,0,1-.324.293h-2.2v.294h2.27a.294.294,0,0,1,.324.294v.882A.294.294,0,0,1,17.339,5.029ZM3.394,1.794h0L3.1,2.382h.583l-.292-.589Z" transform="translate(4.065 7.618)"/>
      <path id="Shape-16" data-name="Shape" class="cls-10" d="M4.865,5H4.021a.369.369,0,0,1-.227-.088L2.562,3.735,1.329,4.912A.309.309,0,0,1,1.1,5H.324A.294.294,0,0,1,0,4.706V.294A.294.294,0,0,1,.324,0H1.2a.251.251,0,0,1,.227.118L2.595,1.324,3.73.088A.389.389,0,0,1,3.989,0h.876a.309.309,0,0,1,.227.088.255.255,0,0,1,.1.206v.764a.255.255,0,0,1-.1.206l-1.3,1.265,1.3,1.265a.254.254,0,0,1,.1.205v.707a.257.257,0,0,1-.1.206A.309.309,0,0,1,4.865,5ZM.649,1.794V3.236L1.394,2.5Z" transform="translate(21.728 7.647)"/>
      <path id="Shape-17" data-name="Shape" class="cls-11" d="M0,1.588H1.557L.778,0Z" transform="translate(6.68 8.706)"/>
      <path id="Shape-18" data-name="Shape" class="cls-11" d="M0,2.941,1.524,1.471,0,0Z" transform="translate(22.052 8.706)"/>
      <path id="Shape-19" data-name="Shape" class="cls-11" d="M10.372,5.648H9.366a.641.641,0,0,1-.584-.354l-.194-.441v.206a.622.622,0,0,1-.649.589H5.345a.636.636,0,0,1-.616-.383l-.356-.823H3.01l-.389.823a.642.642,0,0,1-.584.353H.643a.655.655,0,0,1-.552-.265.576.576,0,0,1-.032-.559L2.3.383A.639.639,0,0,1,2.88.03H4.6a.639.639,0,0,1,.583.353L5.993,2V.617A.621.621,0,0,1,6.642.03H8.3a.621.621,0,0,1,.583.323l.973,1.795L10.631.383A.668.668,0,0,1,11.246,0h1.881a.6.6,0,0,1,.325.088A.581.581,0,0,1,13.776,0h3.892a.581.581,0,0,1,.324.088A.583.583,0,0,1,18.317,0h.875a.715.715,0,0,1,.487.206l.908.941.908-.941A.609.609,0,0,1,21.981,0h.876a.679.679,0,0,1,.455.176.56.56,0,0,1,.194.412v.764a.662.662,0,0,1-.162.412l-1.1,1.058,1.1,1.059a.671.671,0,0,1,.162.411V5a.559.559,0,0,1-.194.411.679.679,0,0,1-.455.176h-.779a.7.7,0,0,1-.486-.176l-1.005-.97-1.005.97a.748.748,0,0,1-.487.176h-.778a.582.582,0,0,1-.325-.088.581.581,0,0,1-.324.088H13.776a.581.581,0,0,1-.324-.088.6.6,0,0,1-.325.088h-1.3A.621.621,0,0,1,11.182,5V4.853l-.194.441A.731.731,0,0,1,10.372,5.648ZM20.587,3.588h0L22.078,5h.779V4.294L21.333,2.823l1.524-1.471V.589h-.876L20.587,2.059,19.192.589h-.875V5h.778l1.492-1.411Zm-6.81-3V5h3.892V4.117H15.073V3.236H17.6V2.353h-2.53V1.471h2.595V.589ZM11.829,1.8h0V5h1.3V.589H11.246l-1.3,2.97L8.329.589H6.674V4.706L4.631.589H2.912L.675,5H2.069l.552-1.177H4.826L5.345,5H7.939V1.823L9.366,5h1.005Z" transform="translate(3.735 7.353)"/>
      <path id="Shape-20" data-name="Shape" class="cls-4" d="M1.3,20h.584L31.132,1.706V1.176A1.245,1.245,0,0,0,29.835,0H1.3A1.245,1.245,0,0,0,0,1.176V18.824A1.245,1.245,0,0,0,1.3,20Z"/>
    </g>
  </g>
</svg>
