<svg xmlns="http://www.w3.org/2000/svg" xmlns:xlink="http://www.w3.org/1999/xlink" viewBox="0 0 342 395">
  <defs>
    <style>
      .cls-1 {
        fill: none;
      }

      .cls-2 {
        opacity: 0.733;
      }

      .cls-3 {
        fill: #877d3f;
      }

      .cls-4 {
        fill: #3e4f2b;
      }

      .cls-5 {
        clip-path: url(#clip-path);
      }

      .cls-6 {
        fill: #50603b;
      }

      .cls-7 {
        fill: #a44936;
      }

      .cls-8 {
        fill: #b9886a;
      }

      .cls-9 {
        fill: #818e8e;
      }

      .cls-10 {
        fill: #f4c6a6;
      }

      .cls-11 {
        fill: #7c7c7c;
      }

      .cls-12 {
        fill: #c3bfbf;
      }

      .cls-13 {
        fill: #d3d3d3;
      }

      .cls-14 {
        fill: #293440;
      }

      .cls-15 {
        fill: #474545;
      }
    </style>
    <clipPath id="clip-path">
      <path id="Clip_12" data-name="Clip 12" class="cls-1" d="M0,0H47.728V37.541H0Z" transform="translate(0 0.221)"/>
    </clipPath>
  </defs>
  <g id="Group_68" data-name="Group 68" class="cls-2">
    <path id="Fill_5" data-name="Fill 5" class="cls-3" d="M.351,24.305c.42-5.389,1.282-10.886,3.9-15.586S11.566.223,16.863.01c4.815-.194,9.342,2.542,12.727,6.039,8.3,8.574,10.961,21.45,10.318,33.479S35.751,63.2,33.367,75a190.526,190.526,0,0,0-3.737,41.018c.047,2.69,0,5.764-1.992,7.532A7.12,7.12,0,0,1,22.929,125a18.272,18.272,0,0,1-9.061-2.316c-3.195-1.774-3.292-2.792-3.437-6.208a199.887,199.887,0,0,0-2.6-22.438c-2.339-14.882-5.5-29.643-7-44.653A141.907,141.907,0,0,1,.351,24.305" transform="translate(38 170)"/>
    <path id="Fill_7" data-name="Fill 7" class="cls-4" d="M39.89,46.31c-1.628-9.094-3.676-18.228-7.733-26.408S21.81,4.494,13.723,1.18C10.75-.038,7.248-.658,4.493,1.049,1.706,2.779.474,6.418.132,9.844-.7,18.209,2.514,26.522,7.019,33.42S17.3,46.137,22.475,52.474s9.881,13.469,11.589,21.683c.768,3.7,1.262,8.887,5.536,9.734,4.118.816,4.585-3.125,4.351-6.47A293.293,293.293,0,0,0,39.89,46.31" transform="translate(11 206)"/>
    <path id="Fill_9" data-name="Fill 9" class="cls-4" d="M4.11,46.31C5.738,37.216,7.786,28.082,11.844,19.9S22.19,4.494,30.277,1.18c2.973-1.218,6.476-1.839,9.23-.131,2.787,1.729,4.019,5.368,4.361,8.794.835,8.366-2.381,16.678-6.886,23.576S26.7,46.137,21.525,52.474,11.644,65.943,9.937,74.157c-.769,3.7-1.262,8.887-5.537,9.734-4.117.816-4.585-3.125-4.351-6.47A293.408,293.408,0,0,1,4.11,46.31" transform="translate(63 206)"/>
    <g id="Group_13" data-name="Group 13" transform="translate(0 252)">
      <path id="Clip_12-2" data-name="Clip 12" class="cls-1" d="M0,0H47.728V37.541H0Z" transform="translate(0 0.221)"/>
      <g id="Group_13-2" data-name="Group 13" class="cls-5">
        <path id="Fill_11" data-name="Fill 11" class="cls-6" d="M35.011,12.032C28.493,5.249,19.429.218,9.731.005,6.925-.056,3.88.384,1.905,2.268c-2.567,2.449-2.378,6.66-.4,9.556s5.319,4.7,8.691,6.017,6.926,2.275,10.068,4.028c4.847,2.7,8.341,7.079,12.562,10.6,2.936,2.446,11.368,8.172,14.327,2.944,2.432-4.3-3.489-11.793-5.792-15.318a55.039,55.039,0,0,0-6.35-8.059" transform="translate(0 0.221)"/>
      </g>
    </g>
    <path id="Fill_14" data-name="Fill 14" class="cls-6" d="M11.724,12.179C17.733,5.313,26.089.221,35.029.005c2.587-.062,5.394.383,7.214,2.29,2.366,2.479,2.192,6.741.369,9.673s-4.9,4.758-8.012,6.091-6.385,2.3-9.281,4.077c-4.468,2.737-7.69,7.165-11.581,10.725C11.032,35.338,3.258,41.134.53,35.841c-2.242-4.35,3.216-11.937,5.34-15.5a55.307,55.307,0,0,1,5.854-8.158" transform="translate(68 250)"/>
    <path id="Fill_16" data-name="Fill 16" class="cls-7" d="M0,0H79L75.611,70H3.389Z" transform="translate(16 305)"/>
    <path id="Fill_18" data-name="Fill 18" class="cls-7" d="M82,0l-.474,11H.474L0,0Z" transform="translate(17 285)"/>
    <path id="Fill_20" data-name="Fill 20" class="cls-8" d="M79,0l-.424,10H.424L0,0Z" transform="translate(16 298)"/>
    <path id="Fill_22" data-name="Fill 22" class="cls-9" d="M5.565,20A5.492,5.492,0,0,1,0,14.584V5.415A5.492,5.492,0,0,1,5.565,0H333.434A5.492,5.492,0,0,1,339,5.415v9.168A5.493,5.493,0,0,1,333.434,20Z" transform="translate(3 375)"/>
    <path id="Fill_24" data-name="Fill 24" class="cls-10" d="M17.9,132a537.487,537.487,0,0,0,21.42-85.043c2.467-2.564,3.462-6.082,4.722-9.357s3.108-6.675,6.415-8.123c.709-.31,1.616-.732,1.542-1.477-.078-.786-1.159-1.008-1.979-.967a19.639,19.639,0,0,0-9.007,2.4c-.622-8.365,1.28-16.692,3.171-24.879-3.524,3.64-6.267,7.754-7.359,12.614a29.363,29.363,0,0,1-.75-11.505,14.333,14.333,0,0,0,.24-3A3.725,3.725,0,0,0,35.049,0c-1.36,6.02-3.066,12.046-4.82,17.97a27.882,27.882,0,0,1-.92-8.716,12.476,12.476,0,0,0-.038-3.121,3.378,3.378,0,0,0-1.782-2.48,125.886,125.886,0,0,1-2.042,16.615c-1.761-.847-2.747-2.674-3.458-4.438s-1.308-3.652-2.675-5.015c-.28,6.861,1.611,13.635,3.98,20.112,1.627,4.45,3.306,7.331,3.3,13.526A215.507,215.507,0,0,0,0,128.719c2.412,1.984,6.1,2.884,9.266,3.155s5.458,0,8.631.123" transform="translate(260)"/>
    <path id="Fill_26" data-name="Fill 26" class="cls-10" d="M6.687,30.486c4.233,7.143,9.654,13.349,14.35,20.139A113.666,113.666,0,0,1,34.365,76.532c.673,1.858,1.416,3.888,3.019,4.86,1.628.987,3.639.576,5.459.139l12.911-3.1a1.519,1.519,0,0,0,1.183-.758c.239-.614-.249-1.253-.691-1.715-9.491-9.93-15.718-22.97-20.752-36.212S26.435,12.775,20.468,0q-4.852,1.795-9.731,3.5c-2.7.944-5.588,1.635-8.194,2.849-4.663,2.173-1.733,10.5-.458,14.274a52.167,52.167,0,0,0,4.6,9.861" transform="translate(215 308)"/>
    <path id="Fill_28" data-name="Fill 28" class="cls-10" d="M46.743,108.391a8.394,8.394,0,0,0,4.444,2.412A4.737,4.737,0,0,1,47.9,111.9a13.582,13.582,0,0,1-3.48-.385,3.936,3.936,0,0,0,2.222,2.169,1.144,1.144,0,0,1,.387.2.311.311,0,0,1,.063.39.433.433,0,0,1-.31.128,17.805,17.805,0,0,1-8.713-1.032q1.286,1.678,2.57,3.364a14.092,14.092,0,0,1-8.655-1.185c-2.72-1.16-5.223-2.769-7.91-4.006s-5.814-2.469-8.675-1.693q-6.208,1.684-12.411,3.373a2.833,2.833,0,0,1-2.411-.081,1.891,1.891,0,0,1-.184-2.521,7.547,7.547,0,0,1,2.14-1.794C7.6,105.3,9.857,98.875,9.968,92.776S8.376,80.709,7.016,74.757A162.618,162.618,0,0,1,5.607,9.644q.762-4.225,1.762-8.407C10.714.685,14.175.3,17.558.062a8.933,8.933,0,0,1,3.573.253c1.133.395,2.3.9,2.222,2.079q-.168,2.419-.334,4.839c-1.912,27.729-3.611,55.406-3.955,83.2C28.4,98.656,40.339,103.343,52,107.872c-1.607.79-3.635,1.28-5.257.519" transform="translate(254 278)"/>
    <path id="Fill_32" data-name="Fill 32" class="cls-10" d="M41.782,41.371C47.96,33.975,54.054,26.141,57,16.8,53.322,11.183,49.894,5.613,46.216,0,38.288,4.334,32.461,12.08,28,20.224S20.441,37.237,16.9,45.865,9.277,63.044,3.215,69.947a14.173,14.173,0,0,0-2.859,4c-.607,1.553-.488,3.568.743,4.637,4.925,4.279,11.779,3.563,18.139,2.944s12.622-2.193,19-2.57c3.041-.179,6.212.626,8.983-.7,1.026-.493,1.164-1.9,1.43-3.051-8.347-2.043-16-5.9-23.538-10.2C29.117,56.109,35.6,48.766,41.782,41.371Z" transform="translate(9 303)"/>
    <path id="Fill_36" data-name="Fill 36" class="cls-11" d="M38.184,107.205c18.353.683,36.405,2.911,54.587,5.525A267.12,267.12,0,0,1,92.7,152.8a29.084,29.084,0,0,0,21.158,3.544c2.344-12.28,4.692-24.583,5.847-37.033s-1.4-24.39-2.245-36.865c-.472-6.969-3.65-13.877-2.458-20.758A230.523,230.523,0,0,0,117.41,2.906,30.34,30.34,0,0,0,94.821,1.562C91.8,12.048,88.756,22.411,85.731,32.9,75.821,33.913,0,52.931,0,52.931a165.515,165.515,0,0,0,31.392,49.827c1.815,1.968,4.128,4.349,6.792,4.448" transform="translate(165 128)"/>
    <path id="Fill_38" data-name="Fill 38" class="cls-12" d="M17,20.335a15.226,15.226,0,0,1-2.692,3.471,4.025,4.025,0,0,1-3.763,1.053,6.253,6.253,0,0,1-2.662-2.195A42.124,42.124,0,0,1,.464,8.7,6.58,6.58,0,0,1,.057,5.644C.512,3.05,3.426,2.254,4.6,0A60.84,60.84,0,0,1,17,20.335" transform="translate(57 297)"/>
    <path id="Fill_40" data-name="Fill 40" class="cls-12" d="M89.576,0C75.292,3.883,64.227,15.337,56.309,27.84S42.9,54.241,35.178,66.866c-9.1,14.88-21.149,27.738-33.91,39.648a4.02,4.02,0,0,0-1.25,3.311,29.329,29.329,0,0,0,13.171,21.416,4.7,4.7,0,0,0,3.613.64c7.688-1.771,13.365-8.927,20.057-13.115,7.8-4.884,16-9.165,23.418-14.622C76.189,92.431,87.743,75.884,99,59.647,94.364,40.242,91.82,19.825,89.576,0" transform="translate(63 185)"/>
    <path id="Fill_42" data-name="Fill 42" class="cls-13" d="M1.328,11.7a16.37,16.37,0,0,0,10.415.813,28.735,28.735,0,0,0,9.6-4.465,6.263,6.263,0,0,0,2.318-2.328C24.507,3.912,23.617,1.8,22.737,0c.291.594-10.021,4.03-10.968,4.26a44.544,44.544,0,0,1-5.9,1.019q-1.443.15-2.895.206c-.63.024-2.289-.274-2.765.2-.607.6.256,1.891.46,2.571A17.018,17.018,0,0,1,1.328,11.7" transform="translate(210 303)"/>
    <path id="Fill_44" data-name="Fill 44" class="cls-14" d="M26.677,7.45a3.364,3.364,0,0,1-.09-1.761c.179-.565.806-1.012,1.31-.749.359.187.593.68.992.664.311-.012.527-.351.577-.676s-.01-.659.02-.987a1.668,1.668,0,0,1,1.938-1.474,2.153,2.153,0,0,1,1.215.95,6.949,6.949,0,0,1,.668,1.472,9.68,9.68,0,0,1,1.416-3.327A2.964,2.964,0,0,1,37.66.047a3.537,3.537,0,0,1,1.977,1.536,16.976,16.976,0,0,1,2.321,5.989c1.568,6.545,2.672,13.373,1.641,20.037S39.1,40.8,33.439,43.9a3.011,3.011,0,0,1,2.285,1.989,1.073,1.073,0,0,1-.2,1.171c-.34.252-.8.049-1.17-.158l-1.689-.952a10.672,10.672,0,0,1,1.695,4.494,3.785,3.785,0,0,1-.037,1.381,1.6,1.6,0,0,1-.779,1.062c-.732.356-1.58-.157-2.148-.764a7.031,7.031,0,0,1-1.789-3.742,3.919,3.919,0,0,1-2.79,2.442,11.353,11.353,0,0,1-4.077.323A43.2,43.2,0,0,1,5.863,47.126a11.85,11.85,0,0,1-4.711-3.655,5.8,5.8,0,0,1-.6-5.877c3.253-5.886,10.074-8.5,14.6-13.348S24.032,13.67,26.677,7.45" transform="translate(295 174)"/>
    <path id="Fill_46" data-name="Fill 46" class="cls-10" d="M50.713,4.807a110,110,0,0,0-15.49-1.743c-.477-.895-.908-1.762-1.384-2.658-.1-.18-.221-.381-.422-.4s-.371.149-.5.308l-2.262,2.7A19.222,19.222,0,0,0,18.234,4.05,15.043,15.043,0,0,0,9.94,13.573H3.878A8.906,8.906,0,0,0,.52,18.758,16.412,16.412,0,0,0,.139,25.11a20.759,20.759,0,0,0,2.1,7.329A13.9,13.9,0,0,0,7.328,38H23.023a33.682,33.682,0,0,1,9.048-4.29,4.178,4.178,0,0,0,1.617,2.224,10.755,10.755,0,0,0,2.3,1.243,5.137,5.137,0,0,0,3.273.635,3.677,3.677,0,0,0,2.032-1.625,5.512,5.512,0,0,0,.68-4.794,4.211,4.211,0,0,0-3.74-2.82c.007-1.55,1.51-2.744,2.938-3.3a18.665,18.665,0,0,1,4.512-.763,6.477,6.477,0,0,0,4.137-1.767,7.7,7.7,0,0,0,1.484-3.884c.835-4.692,1.211-9.647-.592-14.051" transform="translate(270 174)"/>
    <path id="Fill_58" data-name="Fill 58" class="cls-13" d="M36.293.02C26.03.767,15.844,4.891,8.82,12.328S-1.7,30.649.809,40.521c2.024,7.974,7.555,14.59,13.335,20.5C25.106,72.229,37.5,81.961,48.954,92.683c11.262,10.548,21.763,22.3,28.2,36.245a2.21,2.21,0,0,0,.993,1.057,22.489,22.489,0,0,0,26.354-5.859,2.133,2.133,0,0,0,.484-1.618c-2.31-18.574-10.506-36.322-19.653-52.709C76.04,53.156,65.218,37.368,56.366,20.492,54.117,16.2,51.975,11.813,48.96,8.011S41.165-.335,36.293.02" transform="translate(130 180)"/>
    <path id="Fill_60" data-name="Fill 60" class="cls-15" d="M29.712.357A95.775,95.775,0,0,1,8.041,27.625,90.47,90.47,0,0,1,.317,33.618c-.741.514-.049,1.778.7,1.26A95.631,95.631,0,0,0,25.676,9.794a97.736,97.736,0,0,0,5.23-8.7c.437-.82-.758-1.556-1.194-.737" transform="translate(216 185)"/>
  </g>
</svg>
