<svg xmlns="http://www.w3.org/2000/svg" viewBox="0 0 11.504 11.99">
  <defs>
    <style>
      .cls-1 {
        fill: #74747a;
      }
    </style>
  </defs>
  <path id="Icon" class="cls-1" d="M11.454,12.8,6.612,7.828,2,12.562a.577.577,0,0,1-.832,0,.615.615,0,0,1,0-.855L5.78,6.974,1.135,2.2a.619.619,0,0,1,0-.86.579.579,0,0,1,.836,0L6.616,6.114l4.818-4.949a.578.578,0,0,1,.832,0,.617.617,0,0,1,0,.855L7.448,6.969l4.842,4.973a.619.619,0,0,1,0,.859.581.581,0,0,1-.836,0Z" transform="translate(-0.961 -0.989)"/>
</svg>
