<svg xmlns="http://www.w3.org/2000/svg" width="14.5" height="16.002" viewBox="0 0 14.5 16.002">
  <path id="Icon" d="M13.533,16H.967a.982.982,0,0,1-.967-1V4.055L12.567.072A1.519,1.519,0,0,1,12.957,0a.558.558,0,0,1,.214.04.51.51,0,0,1,.363.529V4.055a.983.983,0,0,1,.967,1v9.957A.982.982,0,0,1,13.533,16ZM.967,5.05v9.458a.492.492,0,0,0,.483.5h11.6a.492.492,0,0,0,.483-.5V12.02H11.117a.491.491,0,0,1-.483-.5V9.53a.491.491,0,0,1,.483-.5h2.417V5.548a.491.491,0,0,0-.483-.5ZM11.6,10.028v1h1.933v-1Zm.967-8.96L3.142,4.055h9.425V1.067Z" transform="translate(0 0)" fill="#ffffff"/>
</svg>
