<svg xmlns="http://www.w3.org/2000/svg" viewBox="0 0 41.187 30">
  <defs>
    <style>
      .cls-1 {
        fill: #fff;
      }
    </style>
  </defs>
  <path id="Fill_2" data-name="Fill 2" class="cls-1" d="M20.595,30c-5.108,0-10.362-.016-15.619-.048A5.135,5.135,0,0,1,.032,25.03c-.043-6.655-.043-13.4,0-20.06A5.133,5.133,0,0,1,4.976.049C10.085.016,15.339,0,20.595,0S31.1.016,36.213.049A5.135,5.135,0,0,1,41.157,4.97c.04,6.656.04,13.405,0,20.06a4.88,4.88,0,0,1-.924,2.734.665.665,0,0,1-.187.477.71.71,0,0,1-.474.29,5,5,0,0,1-3.358,1.421C30.957,29.984,25.7,30,20.595,30ZM15.771,16.148,3.064,27.9a3.512,3.512,0,0,0,1.93.629c5.253.032,10.5.048,15.6.048s10.348-.016,15.6-.048a3.591,3.591,0,0,0,2.158-.8L25.692,15.547l-.8.773a6.55,6.55,0,0,1-4.483,1.74,6.425,6.425,0,0,1-4.459-1.742l-.175-.169ZM2.128,3.021a3.475,3.475,0,0,0-.665,1.966c-.043,6.643-.043,13.381,0,20.025a3.5,3.5,0,0,0,.6,1.869L14.74,15.157Zm36.788-.184L26.722,14.557,39.281,26.641a3.483,3.483,0,0,0,.446-1.628c.039-6.644.039-13.382,0-20.025A3.54,3.54,0,0,0,38.916,2.837ZM25.81,1.444c-3.462,0-6.981.007-10.385.014S8.5,1.472,5.041,1.472a3.523,3.523,0,0,0-1.876.566C4.571,3.393,6,4.772,7.38,6.106c3.141,3.035,6.388,6.171,9.605,9.23a5.15,5.15,0,0,0,6.913-.042L37.817,1.913A3.5,3.5,0,0,0,36.2,1.472C33.09,1.453,29.693,1.444,25.81,1.444Z"/>
</svg>
