<svg xmlns="http://www.w3.org/2000/svg" viewBox="0 0 12 21">
  <defs>
    <style>
      .cls-1 {
        fill: #fff;
      }
    </style>
  </defs>
  <path id="Path" class="cls-1" d="M11.548,0,8.67,0C5.436,0,3.347,2.028,3.347,5.168V7.551H.453A.441.441,0,0,0,0,7.979v3.452a.441.441,0,0,0,.453.428H3.347v8.712A.441.441,0,0,0,3.8,21H7.575a.441.441,0,0,0,.453-.428V11.86h3.384a.441.441,0,0,0,.453-.428V7.979a.417.417,0,0,0-.133-.3.466.466,0,0,0-.32-.126H8.027V5.531c0-.971.245-1.464,1.581-1.464h1.939A.441.441,0,0,0,12,3.638V.433A.441.441,0,0,0,11.548,0Z"/>
</svg>
