<?xml version="1.0" encoding="utf-8"?>
<!-- Generator: Adobe Illustrator 24.1.3, SVG Export Plug-In . SVG Version: 6.00 Build 0)  -->
<svg version="1.1" id="Capa_1" xmlns="http://www.w3.org/2000/svg" xmlns:xlink="http://www.w3.org/1999/xlink" x="0px" y="0px"
	 viewBox="0 0 135 85" style="enable-background:new 0 0 135 85;" xml:space="preserve">
<style type="text/css">
	.st0{fill:none;stroke:#FFFFFF;}
	.st1{fill:none;stroke:#FFFFFF;stroke-width:1.2;stroke-linecap:round;stroke-linejoin:round;stroke-dasharray:0,0;}
	.st2{enable-background:new    ;}
	.st3{fill:#FFFFFF;}
</style>
<g id="full-screen">
	<g id="Group-23" transform="translate(13.000000, 11.000000)">
		<g id="Group-9" transform="translate(31.000000, 0.000000)">
			<g id="Group-4" transform="translate(0.993219, 0.662042)">
			</g>
			<circle id="Background" class="st0" cx="23" cy="23.3" r="22.5"/>
			<path id="Vector" class="st1" d="M19,15.7h-4v4"/>
			<path id="Vector_1_" class="st1" d="M31,19.7v-4h-4"/>
			<path id="Vector_2_" class="st1" d="M15,26.7v4h4"/>
			<path id="Vector_3_" class="st1" d="M27,30.7h4v-4"/>
		</g>
		<g class="st2">
			<path class="st3" d="M7.4,53.2c0.6,0.5,0.9,1.2,0.9,2.1c0,0.9-0.3,1.7-0.9,2.2C6.8,58,6,58.2,4.9,58.2H2.8v2.6H1.7v-8.4h3.2
				C6,52.4,6.8,52.7,7.4,53.2z M6.5,56.7c0.4-0.3,0.6-0.8,0.6-1.4c0-0.6-0.2-1.1-0.6-1.4c-0.4-0.3-0.9-0.5-1.7-0.5l-2,0v3.7h2
				C5.6,57.2,6.2,57,6.5,56.7z"/>
			<path class="st3" d="M13.5,60.8v-0.9c-0.5,0.6-1.2,0.9-2.2,0.9c-0.4,0-0.8-0.1-1.2-0.3s-0.6-0.4-0.8-0.7c-0.2-0.3-0.3-0.6-0.3-1
				c0-0.6,0.2-1,0.6-1.3s1-0.5,1.8-0.5h2v-0.3c0-0.4-0.1-0.8-0.4-1s-0.7-0.4-1.2-0.4c-0.6,0-1.3,0.2-2,0.7l-0.5-0.8
				c0.5-0.3,0.9-0.5,1.3-0.6c0.4-0.1,0.8-0.2,1.4-0.2c0.8,0,1.4,0.2,1.8,0.6s0.7,0.9,0.7,1.6l0,4.2H13.5z M12.9,59.6
				c0.4-0.3,0.6-0.6,0.7-1v-0.6h-1.9c-0.5,0-0.9,0.1-1.1,0.2c-0.2,0.2-0.4,0.4-0.4,0.7c0,0.3,0.1,0.6,0.4,0.8s0.6,0.3,1,0.3
				C12,60,12.5,59.8,12.9,59.6z"/>
			<path class="st3" d="M21.9,55.1c0.4,0.4,0.6,1,0.6,1.8v3.9h-1.1v-3.6c0-0.5-0.1-1-0.5-1.3c-0.3-0.3-0.7-0.5-1.2-0.5
				c-0.6,0-1,0.2-1.4,0.5c-0.4,0.4-0.6,0.8-0.6,1.4v3.4h-1.1v-6.3h1.1v1.3c0.4-0.9,1.2-1.4,2.4-1.4C20.9,54.4,21.5,54.7,21.9,55.1z"
				/>
			<path class="st3" d="M27.9,60.4c-0.5,0.3-1,0.5-1.5,0.5c-0.5,0-0.9-0.1-1.2-0.5c-0.3-0.3-0.5-0.8-0.5-1.4v-3.5h-0.9v-0.9h0.9V53
				h1.1v1.7h1.9v0.9h-1.9v3.3c0,0.4,0.1,0.6,0.2,0.8c0.1,0.2,0.3,0.2,0.6,0.2c0.3,0,0.6-0.1,1-0.3L27.9,60.4z"/>
			<path class="st3" d="M33.2,60.8v-0.9c-0.5,0.6-1.2,0.9-2.2,0.9c-0.4,0-0.8-0.1-1.2-0.3s-0.6-0.4-0.8-0.7c-0.2-0.3-0.3-0.6-0.3-1
				c0-0.6,0.2-1,0.6-1.3s1-0.5,1.8-0.5h2v-0.3c0-0.4-0.1-0.8-0.4-1s-0.7-0.4-1.2-0.4c-0.6,0-1.3,0.2-2,0.7l-0.5-0.8
				c0.5-0.3,0.9-0.5,1.3-0.6c0.4-0.1,0.8-0.2,1.4-0.2c0.8,0,1.4,0.2,1.8,0.6s0.7,0.9,0.7,1.6l0,4.2H33.2z M32.5,59.6
				c0.4-0.3,0.6-0.6,0.7-1v-0.6h-1.9c-0.5,0-0.9,0.1-1.1,0.2c-0.2,0.2-0.4,0.4-0.4,0.7c0,0.3,0.1,0.6,0.4,0.8s0.6,0.3,1,0.3
				C31.7,60,32.1,59.8,32.5,59.6z"/>
			<path class="st3" d="M36.3,51.9h1.1v8.9h-1.1V51.9z"/>
			<path class="st3" d="M39.7,51.9h1.1v8.9h-1.1V51.9z"/>
			<path class="st3" d="M47,60.8v-0.9c-0.5,0.6-1.2,0.9-2.2,0.9c-0.4,0-0.8-0.1-1.2-0.3s-0.6-0.4-0.8-0.7c-0.2-0.3-0.3-0.6-0.3-1
				c0-0.6,0.2-1,0.6-1.3s1-0.5,1.8-0.5h2v-0.3c0-0.4-0.1-0.8-0.4-1s-0.7-0.4-1.2-0.4c-0.6,0-1.3,0.2-2,0.7l-0.5-0.8
				c0.5-0.3,0.9-0.5,1.3-0.6c0.4-0.1,0.8-0.2,1.4-0.2c0.8,0,1.4,0.2,1.8,0.6s0.7,0.9,0.7,1.6l0,4.2H47z M46.3,59.6
				c0.4-0.3,0.6-0.6,0.7-1v-0.6h-1.9c-0.5,0-0.9,0.1-1.1,0.2c-0.2,0.2-0.4,0.4-0.4,0.7c0,0.3,0.1,0.6,0.4,0.8s0.6,0.3,1,0.3
				C45.5,60,45.9,59.8,46.3,59.6z"/>
			<path class="st3" d="M55.9,55.4c-0.4,0-0.8,0.1-1.1,0.3c-0.3,0.2-0.6,0.4-0.8,0.8s-0.3,0.7-0.3,1.2c0,0.4,0.1,0.8,0.3,1.2
				s0.4,0.6,0.7,0.8c0.3,0.2,0.7,0.3,1.1,0.3s0.8-0.1,1.1-0.2c0.3-0.1,0.6-0.3,0.8-0.6l0.6,0.6c-0.3,0.4-0.7,0.6-1.1,0.8
				c-0.4,0.2-0.9,0.3-1.5,0.3c-0.6,0-1.2-0.1-1.6-0.4c-0.5-0.3-0.9-0.6-1.1-1.1c-0.3-0.5-0.4-1-0.4-1.7s0.1-1.2,0.4-1.7
				c0.3-0.5,0.6-0.9,1.1-1.1c0.5-0.3,1-0.4,1.6-0.4c0.5,0,1,0.1,1.4,0.2c0.4,0.2,0.8,0.4,1.1,0.7l-0.6,0.8
				C57.2,55.7,56.6,55.4,55.9,55.4z"/>
			<path class="st3" d="M64,54.9c0.5,0.3,0.9,0.6,1.2,1.1s0.4,1,0.4,1.7s-0.1,1.2-0.4,1.7c-0.3,0.5-0.7,0.9-1.2,1.1
				c-0.5,0.3-1.1,0.4-1.7,0.4c-0.6,0-1.2-0.1-1.7-0.4c-0.5-0.3-0.9-0.6-1.2-1.1c-0.3-0.5-0.4-1-0.4-1.7c0-0.6,0.1-1.2,0.4-1.7
				c0.3-0.5,0.7-0.9,1.2-1.1c0.5-0.3,1.1-0.4,1.7-0.4C63,54.4,63.5,54.6,64,54.9z M61.2,55.7c-0.3,0.2-0.6,0.5-0.8,0.8
				s-0.3,0.7-0.3,1.2c0,0.4,0.1,0.8,0.3,1.2c0.2,0.3,0.4,0.6,0.8,0.8c0.3,0.2,0.7,0.3,1.1,0.3c0.4,0,0.8-0.1,1.1-0.3
				c0.3-0.2,0.6-0.5,0.8-0.8c0.2-0.3,0.3-0.7,0.3-1.2c0-0.4-0.1-0.8-0.3-1.2c-0.2-0.3-0.4-0.6-0.8-0.8s-0.7-0.3-1.1-0.3
				C61.9,55.4,61.5,55.5,61.2,55.7z"/>
			<path class="st3" d="M77,55.1c0.4,0.4,0.6,1,0.6,1.8v3.9h-1.1v-3.6c0-0.5-0.1-1-0.4-1.3s-0.7-0.5-1.2-0.5c-0.6,0-1.1,0.2-1.4,0.6
				S73,57.1,73,57.7v3.1h-1.1v-3.6c0-0.5-0.1-1-0.4-1.3c-0.3-0.3-0.7-0.5-1.2-0.5c-0.6,0-1.1,0.2-1.4,0.6c-0.3,0.4-0.5,0.9-0.5,1.6
				v3.1h-1.1v-6.3h1.1v1.3c0.4-0.9,1.2-1.4,2.4-1.4c0.6,0,1.1,0.1,1.5,0.4c0.4,0.3,0.7,0.7,0.8,1.2c0.4-1,1.2-1.6,2.5-1.6
				C76.1,54.4,76.6,54.7,77,55.1z"/>
			<path class="st3" d="M84.8,54.9c0.5,0.3,0.8,0.7,1.1,1.1s0.4,1,0.4,1.7c0,0.6-0.1,1.2-0.4,1.7c-0.3,0.5-0.6,0.9-1.1,1.1
				c-0.5,0.3-1,0.4-1.6,0.4c-0.5,0-1-0.1-1.4-0.3s-0.7-0.5-1-1v3.6h-1.1v-8.7h1.1v1.3c0.2-0.4,0.5-0.7,1-1c0.4-0.2,0.9-0.3,1.4-0.3
				C83.8,54.4,84.3,54.6,84.8,54.9z M84.1,59.6c0.3-0.2,0.6-0.5,0.8-0.8c0.2-0.3,0.3-0.7,0.3-1.2c0-0.4-0.1-0.8-0.3-1.2
				c-0.2-0.3-0.4-0.6-0.8-0.8c-0.3-0.2-0.7-0.3-1.1-0.3s-0.8,0.1-1.1,0.3c-0.3,0.2-0.6,0.5-0.8,0.8c-0.2,0.3-0.3,0.7-0.3,1.2
				c0,0.4,0.1,0.8,0.3,1.2c0.2,0.3,0.4,0.6,0.8,0.8c0.3,0.2,0.7,0.3,1.1,0.3S83.7,59.8,84.1,59.6z"/>
			<path class="st3" d="M87.9,51.9H89v8.9h-1.1V51.9z"/>
			<path class="st3" d="M96,55.3c0.5,0.6,0.8,1.4,0.8,2.4c0,0.2,0,0.3,0,0.4h-5c0.1,0.6,0.3,1,0.7,1.4c0.4,0.3,0.9,0.5,1.4,0.5
				c0.4,0,0.7-0.1,1-0.2c0.3-0.1,0.6-0.3,0.8-0.6l0.6,0.6c-0.3,0.3-0.7,0.6-1.1,0.8c-0.4,0.2-0.9,0.3-1.5,0.3
				c-0.6,0-1.2-0.1-1.7-0.4c-0.5-0.3-0.9-0.6-1.1-1.1s-0.4-1-0.4-1.7s0.1-1.2,0.4-1.7c0.3-0.5,0.6-0.9,1.1-1.1
				c0.5-0.3,1-0.4,1.6-0.4C94.7,54.4,95.5,54.7,96,55.3z M95.7,57.2c0-0.6-0.2-1-0.6-1.4c-0.4-0.3-0.8-0.5-1.4-0.5
				c-0.6,0-1,0.2-1.4,0.5s-0.6,0.8-0.7,1.4H95.7z"/>
			<path class="st3" d="M101.7,60.4c-0.5,0.3-1,0.5-1.5,0.5s-0.9-0.1-1.2-0.5c-0.3-0.3-0.5-0.8-0.5-1.4v-3.5h-0.9v-0.9h0.9V53h1.1
				v1.7h1.9v0.9h-1.9v3.3c0,0.4,0.1,0.6,0.2,0.8s0.3,0.2,0.6,0.2c0.3,0,0.6-0.1,1-0.3L101.7,60.4z"/>
			<path class="st3" d="M106.9,60.8v-0.9c-0.5,0.6-1.2,0.9-2.2,0.9c-0.4,0-0.8-0.1-1.2-0.3s-0.6-0.4-0.8-0.7c-0.2-0.3-0.3-0.6-0.3-1
				c0-0.6,0.2-1,0.6-1.3s1-0.5,1.8-0.5h2v-0.3c0-0.4-0.1-0.8-0.4-1c-0.3-0.2-0.7-0.4-1.2-0.4c-0.6,0-1.3,0.2-2,0.7l-0.5-0.8
				c0.5-0.3,0.9-0.5,1.3-0.6c0.4-0.1,0.8-0.2,1.4-0.2c0.8,0,1.4,0.2,1.8,0.6c0.4,0.4,0.7,0.9,0.7,1.6l0,4.2H106.9z M106.2,59.6
				c0.4-0.3,0.6-0.6,0.7-1v-0.6H105c-0.5,0-0.9,0.1-1.1,0.2c-0.2,0.2-0.4,0.4-0.4,0.7c0,0.3,0.1,0.6,0.4,0.8s0.6,0.3,1,0.3
				C105.4,60,105.9,59.8,106.2,59.6z"/>
		</g>
	</g>
</g>
</svg>
