<svg width="135" height="72" viewBox="0 0 135 72" fill="none" xmlns="http://www.w3.org/2000/svg">
<path d="M5.348 59.2C6.19733 59.2 6.93467 59.34 7.56 59.62C8.19467 59.9 8.68 60.3013 9.016 60.824C9.352 61.3467 9.52 61.9673 9.52 62.686C9.52 63.3953 9.352 64.016 9.016 64.548C8.68 65.0707 8.19467 65.472 7.56 65.752C6.93467 66.032 6.19733 66.172 5.348 66.172H3.136V69H1.316V59.2H5.348ZM5.264 64.632C6.05733 64.632 6.65933 64.464 7.07 64.128C7.48067 63.792 7.686 63.3113 7.686 62.686C7.686 62.0607 7.48067 61.58 7.07 61.244C6.65933 60.908 6.05733 60.74 5.264 60.74H3.136V64.632H5.264ZM14.1714 61.44C15.2727 61.44 16.1127 61.706 16.6914 62.238C17.2794 62.7607 17.5734 63.554 17.5734 64.618V69H15.9214V68.09C15.7067 68.4167 15.3987 68.6687 14.9974 68.846C14.6054 69.014 14.1294 69.098 13.5694 69.098C13.0094 69.098 12.5194 69.0047 12.0994 68.818C11.6794 68.622 11.3527 68.356 11.1194 68.02C10.8954 67.6747 10.7834 67.2873 10.7834 66.858C10.7834 66.186 11.0307 65.6493 11.5254 65.248C12.0294 64.8373 12.8181 64.632 13.8914 64.632H15.8234V64.52C15.8234 63.9973 15.6647 63.596 15.3474 63.316C15.0394 63.036 14.5774 62.896 13.9614 62.896C13.5414 62.896 13.1261 62.9613 12.7154 63.092C12.3141 63.2227 11.9734 63.4047 11.6934 63.638L11.0074 62.364C11.3994 62.0653 11.8707 61.8367 12.4214 61.678C12.9721 61.5193 13.5554 61.44 14.1714 61.44ZM13.9334 67.824C14.3721 67.824 14.7594 67.726 15.0954 67.53C15.4407 67.3247 15.6834 67.0353 15.8234 66.662V65.794H14.0174C13.0094 65.794 12.5054 66.1253 12.5054 66.788C12.5054 67.1053 12.6314 67.3573 12.8834 67.544C13.1354 67.7307 13.4854 67.824 13.9334 67.824ZM24.2756 61.44C25.2183 61.44 25.9743 61.7153 26.5436 62.266C27.1129 62.8167 27.3976 63.6333 27.3976 64.716V69H25.6476V64.94C25.6476 64.2867 25.4936 63.7967 25.1856 63.47C24.8776 63.134 24.4389 62.966 23.8696 62.966C23.2256 62.966 22.7169 63.162 22.3436 63.554C21.9703 63.9367 21.7836 64.492 21.7836 65.22V69H20.0336V61.524H21.6996V62.49C21.9889 62.1447 22.3529 61.8833 22.7916 61.706C23.2303 61.5287 23.7249 61.44 24.2756 61.44ZM34.3259 68.594C34.1205 68.762 33.8685 68.888 33.5699 68.972C33.2805 69.056 32.9725 69.098 32.6459 69.098C31.8245 69.098 31.1899 68.8833 30.7419 68.454C30.2939 68.0247 30.0699 67.3993 30.0699 66.578V62.98H28.8379V61.58H30.0699V59.872H31.8199V61.58H33.8219V62.98H31.8199V66.536C31.8199 66.9 31.9085 67.18 32.0859 67.376C32.2632 67.5627 32.5199 67.656 32.8559 67.656C33.2479 67.656 33.5745 67.5533 33.8359 67.348L34.3259 68.594ZM38.8358 61.44C39.9371 61.44 40.7771 61.706 41.3558 62.238C41.9438 62.7607 42.2378 63.554 42.2378 64.618V69H40.5858V68.09C40.3711 68.4167 40.0631 68.6687 39.6618 68.846C39.2698 69.014 38.7938 69.098 38.2338 69.098C37.6738 69.098 37.1838 69.0047 36.7638 68.818C36.3438 68.622 36.0171 68.356 35.7838 68.02C35.5598 67.6747 35.4478 67.2873 35.4478 66.858C35.4478 66.186 35.6951 65.6493 36.1898 65.248C36.6938 64.8373 37.4824 64.632 38.5558 64.632H40.4878V64.52C40.4878 63.9973 40.3291 63.596 40.0118 63.316C39.7038 63.036 39.2418 62.896 38.6258 62.896C38.2058 62.896 37.7904 62.9613 37.3798 63.092C36.9784 63.2227 36.6378 63.4047 36.3578 63.638L35.6718 62.364C36.0638 62.0653 36.5351 61.8367 37.0858 61.678C37.6364 61.5193 38.2198 61.44 38.8358 61.44ZM38.5978 67.824C39.0364 67.824 39.4238 67.726 39.7598 67.53C40.1051 67.3247 40.3478 67.0353 40.4878 66.662V65.794H38.6818C37.6738 65.794 37.1698 66.1253 37.1698 66.788C37.1698 67.1053 37.2958 67.3573 37.5478 67.544C37.7998 67.7307 38.1498 67.824 38.5978 67.824ZM44.6979 58.612H46.4479V69H44.6979V58.612ZM48.9591 58.612H50.7091V69H48.9591V58.612ZM56.0763 61.44C57.1776 61.44 58.0176 61.706 58.5963 62.238C59.1843 62.7607 59.4783 63.554 59.4783 64.618V69H57.8263V68.09C57.6116 68.4167 57.3036 68.6687 56.9023 68.846C56.5103 69.014 56.0343 69.098 55.4743 69.098C54.9143 69.098 54.4243 69.0047 54.0043 68.818C53.5843 68.622 53.2576 68.356 53.0243 68.02C52.8003 67.6747 52.6883 67.2873 52.6883 66.858C52.6883 66.186 52.9356 65.6493 53.4303 65.248C53.9343 64.8373 54.7229 64.632 55.7963 64.632H57.7283V64.52C57.7283 63.9973 57.5696 63.596 57.2523 63.316C56.9443 63.036 56.4823 62.896 55.8663 62.896C55.4463 62.896 55.0309 62.9613 54.6203 63.092C54.2189 63.2227 53.8783 63.4047 53.5983 63.638L52.9123 62.364C53.3043 62.0653 53.7756 61.8367 54.3263 61.678C54.8769 61.5193 55.4603 61.44 56.0763 61.44ZM55.8383 67.824C56.2769 67.824 56.6643 67.726 57.0003 67.53C57.3456 67.3247 57.5883 67.0353 57.7283 66.662V65.794H55.9223C54.9143 65.794 54.4103 66.1253 54.4103 66.788C54.4103 67.1053 54.5363 67.3573 54.7883 67.544C55.0403 67.7307 55.3903 67.824 55.8383 67.824ZM69.4519 69.098C68.6772 69.098 67.9819 68.9347 67.3659 68.608C66.7499 68.2813 66.2692 67.8287 65.9239 67.25C65.5786 66.662 65.4059 65.9993 65.4059 65.262C65.4059 64.5247 65.5786 63.8667 65.9239 63.288C66.2692 62.7093 66.7452 62.2567 67.3519 61.93C67.9679 61.6033 68.6679 61.44 69.4519 61.44C70.1892 61.44 70.8332 61.5893 71.3839 61.888C71.9439 62.1867 72.3639 62.616 72.6439 63.176L71.2999 63.96C71.0852 63.6147 70.8146 63.358 70.4879 63.19C70.1706 63.0127 69.8206 62.924 69.4379 62.924C68.7846 62.924 68.2432 63.1387 67.8139 63.568C67.3846 63.988 67.1699 64.5527 67.1699 65.262C67.1699 65.9713 67.3799 66.5407 67.7999 66.97C68.2292 67.39 68.7752 67.6 69.4379 67.6C69.8206 67.6 70.1706 67.516 70.4879 67.348C70.8146 67.1707 71.0852 66.9093 71.2999 66.564L72.6439 67.348C72.3546 67.908 71.9299 68.342 71.3699 68.65C70.8192 68.9487 70.1799 69.098 69.4519 69.098ZM77.6216 69.098C76.8656 69.098 76.1842 68.9347 75.5776 68.608C74.9709 68.2813 74.4949 67.8287 74.1496 67.25C73.8136 66.662 73.6456 65.9993 73.6456 65.262C73.6456 64.5247 73.8136 63.8667 74.1496 63.288C74.4949 62.7093 74.9709 62.2567 75.5776 61.93C76.1842 61.6033 76.8656 61.44 77.6216 61.44C78.3869 61.44 79.0729 61.6033 79.6796 61.93C80.2862 62.2567 80.7576 62.7093 81.0936 63.288C81.4389 63.8667 81.6116 64.5247 81.6116 65.262C81.6116 65.9993 81.4389 66.662 81.0936 67.25C80.7576 67.8287 80.2862 68.2813 79.6796 68.608C79.0729 68.9347 78.3869 69.098 77.6216 69.098ZM77.6216 67.6C78.2656 67.6 78.7976 67.3853 79.2176 66.956C79.6376 66.5267 79.8476 65.962 79.8476 65.262C79.8476 64.562 79.6376 63.9973 79.2176 63.568C78.7976 63.1387 78.2656 62.924 77.6216 62.924C76.9776 62.924 76.4456 63.1387 76.0256 63.568C75.6149 63.9973 75.4096 64.562 75.4096 65.262C75.4096 65.962 75.6149 66.5267 76.0256 66.956C76.4456 67.3853 76.9776 67.6 77.6216 67.6ZM92.9353 61.44C93.8779 61.44 94.6246 61.7153 95.1753 62.266C95.7259 62.8073 96.0013 63.624 96.0013 64.716V69H94.2513V64.94C94.2513 64.2867 94.1066 63.7967 93.8173 63.47C93.5279 63.134 93.1126 62.966 92.5713 62.966C91.9833 62.966 91.5119 63.162 91.1573 63.554C90.8026 63.9367 90.6253 64.4873 90.6253 65.206V69H88.8753V64.94C88.8753 64.2867 88.7306 63.7967 88.4413 63.47C88.1519 63.134 87.7366 62.966 87.1953 62.966C86.5979 62.966 86.1219 63.1573 85.7673 63.54C85.4219 63.9227 85.2493 64.478 85.2493 65.206V69H83.4993V61.524H85.1653V62.476C85.4453 62.14 85.7953 61.8833 86.2153 61.706C86.6353 61.5287 87.1019 61.44 87.6153 61.44C88.1753 61.44 88.6699 61.5473 89.0993 61.762C89.5379 61.9673 89.8833 62.2753 90.1353 62.686C90.4433 62.294 90.8399 61.9907 91.3253 61.776C91.8106 61.552 92.3473 61.44 92.9353 61.44ZM102.596 61.44C103.324 61.44 103.973 61.5987 104.542 61.916C105.121 62.2333 105.573 62.6813 105.9 63.26C106.227 63.8387 106.39 64.506 106.39 65.262C106.39 66.018 106.227 66.69 105.9 67.278C105.573 67.8567 105.121 68.3047 104.542 68.622C103.973 68.9393 103.324 69.098 102.596 69.098C101.588 69.098 100.79 68.762 100.202 68.09V71.716H98.4518V61.524H100.118V62.504C100.407 62.1493 100.762 61.8833 101.182 61.706C101.611 61.5287 102.083 61.44 102.596 61.44ZM102.4 67.6C103.044 67.6 103.571 67.3853 103.982 66.956C104.402 66.5267 104.612 65.962 104.612 65.262C104.612 64.562 104.402 63.9973 103.982 63.568C103.571 63.1387 103.044 62.924 102.4 62.924C101.98 62.924 101.602 63.022 101.266 63.218C100.93 63.4047 100.664 63.6753 100.468 64.03C100.272 64.3847 100.174 64.7953 100.174 65.262C100.174 65.7287 100.272 66.1393 100.468 66.494C100.664 66.8487 100.93 67.124 101.266 67.32C101.602 67.5067 101.98 67.6 102.4 67.6ZM108.264 58.612H110.014V69H108.264V58.612ZM119.553 65.304C119.553 65.4253 119.544 65.598 119.525 65.822H113.659C113.762 66.3727 114.028 66.8113 114.457 67.138C114.896 67.4553 115.437 67.614 116.081 67.614C116.902 67.614 117.579 67.3433 118.111 66.802L119.049 67.88C118.713 68.2813 118.288 68.5847 117.775 68.79C117.262 68.9953 116.683 69.098 116.039 69.098C115.218 69.098 114.494 68.9347 113.869 68.608C113.244 68.2813 112.758 67.8287 112.413 67.25C112.077 66.662 111.909 65.9993 111.909 65.262C111.909 64.534 112.072 63.8807 112.399 63.302C112.735 62.714 113.197 62.2567 113.785 61.93C114.373 61.6033 115.036 61.44 115.773 61.44C116.501 61.44 117.15 61.6033 117.719 61.93C118.298 62.2473 118.746 62.7 119.063 63.288C119.39 63.8667 119.553 64.5387 119.553 65.304ZM115.773 62.84C115.213 62.84 114.737 63.008 114.345 63.344C113.962 63.6707 113.729 64.1093 113.645 64.66H117.887C117.812 64.1187 117.584 63.68 117.201 63.344C116.818 63.008 116.342 62.84 115.773 62.84ZM125.942 68.594C125.737 68.762 125.485 68.888 125.186 68.972C124.897 69.056 124.589 69.098 124.262 69.098C123.441 69.098 122.806 68.8833 122.358 68.454C121.91 68.0247 121.686 67.3993 121.686 66.578V62.98H120.454V61.58H121.686V59.872H123.436V61.58H125.438V62.98H123.436V66.536C123.436 66.9 123.525 67.18 123.702 67.376C123.88 67.5627 124.136 67.656 124.472 67.656C124.864 67.656 125.191 67.5533 125.452 67.348L125.942 68.594ZM130.452 61.44C131.553 61.44 132.393 61.706 132.972 62.238C133.56 62.7607 133.854 63.554 133.854 64.618V69H132.202V68.09C131.987 68.4167 131.679 68.6687 131.278 68.846C130.886 69.014 130.41 69.098 129.85 69.098C129.29 69.098 128.8 69.0047 128.38 68.818C127.96 68.622 127.633 68.356 127.4 68.02C127.176 67.6747 127.064 67.2873 127.064 66.858C127.064 66.186 127.311 65.6493 127.806 65.248C128.31 64.8373 129.099 64.632 130.172 64.632H132.104V64.52C132.104 63.9973 131.945 63.596 131.628 63.316C131.32 63.036 130.858 62.896 130.242 62.896C129.822 62.896 129.407 62.9613 128.996 63.092C128.595 63.2227 128.254 63.4047 127.974 63.638L127.288 62.364C127.68 62.0653 128.151 61.8367 128.702 61.678C129.253 61.5193 129.836 61.44 130.452 61.44ZM130.214 67.824C130.653 67.824 131.04 67.726 131.376 67.53C131.721 67.3247 131.964 67.0353 132.104 66.662V65.794H130.298C129.29 65.794 128.786 66.1253 128.786 66.788C128.786 67.1053 128.912 67.3573 129.164 67.544C129.416 67.7307 129.766 67.824 130.214 67.824Z" fill="white"/>
<path d="M49.5834 12.25V3.5H58.5417" stroke="white" stroke-width="2.5" stroke-linecap="round" stroke-linejoin="round"/>
<path d="M85.4167 12.25V3.5H76.4584" stroke="white" stroke-width="2.5" stroke-linecap="round" stroke-linejoin="round"/>
<path d="M58.5417 38.5H49.5834V29.75" stroke="white" stroke-width="2.5" stroke-linecap="round" stroke-linejoin="round"/>
<path d="M76.4584 38.5H85.4167V29.75" stroke="white" stroke-width="2.5" stroke-linecap="round" stroke-linejoin="round"/>
</svg>
