<svg width="103" height="85" viewBox="0 0 103 85" fill="none" xmlns="http://www.w3.org/2000/svg">
<path d="M53.3095 30V16.6667C53.3095 11.74 49.3783 7.73111 44.5463 7.73111C44.3912 7.73205 44.2368 7.75069 44.086 7.78667C41.8247 7.89729 39.6921 8.88079 38.1294 10.5337C36.5667 12.1866 35.6935 14.3823 35.6905 16.6667V30C35.6905 34.9022 39.6416 38.8889 44.5 38.8889C49.3585 38.8889 53.3095 34.9022 53.3095 30ZM40.0953 30V16.6667C40.0953 14.2156 42.0708 12.2222 44.5 12.2222C44.6204 12.2223 44.7406 12.2111 44.859 12.1889C47.1164 12.3556 48.9048 14.3 48.9048 16.6667V30C48.9048 32.4511 46.9292 34.4444 44.5 34.4444C42.0708 34.4444 40.0953 32.4511 40.0953 30Z" fill="white"/>
<path d="M31.2857 30H26.881C26.881 39.0489 33.6225 46.5244 42.2976 47.6244V52.2222H46.7024V47.6244C55.3776 46.5244 62.1191 39.0511 62.1191 30H57.7143C57.7143 37.3533 51.7877 43.3333 44.5 43.3333C37.2124 43.3333 31.2857 37.3533 31.2857 30Z" fill="white"/>
<path d="M17.354 75.14C16.598 75.14 15.8653 75.0326 15.156 74.818C14.456 74.6033 13.9007 74.3186 13.49 73.964L14.12 72.55C14.5213 72.8673 15.0113 73.1286 15.59 73.334C16.178 73.53 16.766 73.628 17.354 73.628C18.082 73.628 18.6233 73.5113 18.978 73.278C19.342 73.0446 19.524 72.7366 19.524 72.354C19.524 72.074 19.4213 71.8453 19.216 71.668C19.02 71.4813 18.768 71.3366 18.46 71.234C18.152 71.1313 17.732 71.0146 17.2 70.884C16.4533 70.7066 15.8467 70.5293 15.38 70.352C14.9227 70.1746 14.526 69.8993 14.19 69.526C13.8633 69.1433 13.7 68.63 13.7 67.986C13.7 67.4446 13.8447 66.9546 14.134 66.516C14.4327 66.068 14.876 65.7133 15.464 65.452C16.0613 65.1906 16.7893 65.06 17.648 65.06C18.2453 65.06 18.8333 65.1346 19.412 65.284C19.9907 65.4333 20.49 65.648 20.91 65.928L20.336 67.342C19.9067 67.09 19.4587 66.8986 18.992 66.768C18.5253 66.6373 18.0727 66.572 17.634 66.572C16.9153 66.572 16.3787 66.6933 16.024 66.936C15.6787 67.1786 15.506 67.5006 15.506 67.902C15.506 68.182 15.604 68.4106 15.8 68.588C16.0053 68.7653 16.262 68.9053 16.57 69.008C16.878 69.1106 17.298 69.2273 17.83 69.358C18.558 69.526 19.1553 69.7033 19.622 69.89C20.0887 70.0673 20.4853 70.3426 20.812 70.716C21.148 71.0893 21.316 71.5933 21.316 72.228C21.316 72.7693 21.1667 73.2593 20.868 73.698C20.5787 74.1366 20.1353 74.4866 19.538 74.748C18.9407 75.0093 18.2127 75.14 17.354 75.14ZM23.167 67.524H24.917V75H23.167V67.524ZM24.049 66.292C23.7316 66.292 23.4656 66.194 23.251 65.998C23.0363 65.7926 22.929 65.5406 22.929 65.242C22.929 64.9433 23.0363 64.696 23.251 64.5C23.4656 64.2946 23.7316 64.192 24.049 64.192C24.3663 64.192 24.6323 64.29 24.847 64.486C25.0616 64.6726 25.169 64.9106 25.169 65.2C25.169 65.508 25.0616 65.7693 24.847 65.984C24.6416 66.1893 24.3756 66.292 24.049 66.292ZM27.4281 64.612H29.1781V75H27.4281V64.612ZM38.7173 71.304C38.7173 71.4253 38.708 71.598 38.6893 71.822H32.8233C32.926 72.3726 33.192 72.8113 33.6213 73.138C34.06 73.4553 34.6013 73.614 35.2453 73.614C36.0666 73.614 36.7433 73.3433 37.2753 72.802L38.2133 73.88C37.8773 74.2813 37.4526 74.5846 36.9393 74.79C36.426 74.9953 35.8473 75.098 35.2033 75.098C34.382 75.098 33.6586 74.9346 33.0333 74.608C32.408 74.2813 31.9226 73.8286 31.5773 73.25C31.2413 72.662 31.0733 71.9993 31.0733 71.262C31.0733 70.534 31.2366 69.8806 31.5633 69.302C31.8993 68.714 32.3613 68.2566 32.9493 67.93C33.5373 67.6033 34.2 67.44 34.9373 67.44C35.6653 67.44 36.314 67.6033 36.8833 67.93C37.462 68.2473 37.91 68.7 38.2273 69.288C38.554 69.8666 38.7173 70.5386 38.7173 71.304ZM34.9373 68.84C34.3773 68.84 33.9013 69.008 33.5093 69.344C33.1266 69.6706 32.8933 70.1093 32.8093 70.66H37.0513C36.9766 70.1186 36.748 69.68 36.3653 69.344C35.9826 69.008 35.5066 68.84 34.9373 68.84ZM44.8546 67.44C45.7972 67.44 46.5532 67.7153 47.1226 68.266C47.6919 68.8166 47.9766 69.6333 47.9766 70.716V75H46.2266V70.94C46.2266 70.2866 46.0726 69.7966 45.7646 69.47C45.4566 69.134 45.0179 68.966 44.4486 68.966C43.8046 68.966 43.2959 69.162 42.9226 69.554C42.5492 69.9366 42.3626 70.492 42.3626 71.22V75H40.6126V67.524H42.2786V68.49C42.5679 68.1446 42.9319 67.8833 43.3706 67.706C43.8092 67.5286 44.3039 67.44 44.8546 67.44ZM53.9092 75.098C53.1345 75.098 52.4392 74.9346 51.8232 74.608C51.2072 74.2813 50.7265 73.8286 50.3812 73.25C50.0359 72.662 49.8632 71.9993 49.8632 71.262C49.8632 70.5246 50.0359 69.8666 50.3812 69.288C50.7265 68.7093 51.2025 68.2566 51.8092 67.93C52.4252 67.6033 53.1252 67.44 53.9092 67.44C54.6465 67.44 55.2905 67.5893 55.8412 67.888C56.4012 68.1866 56.8212 68.616 57.1012 69.176L55.7572 69.96C55.5425 69.6146 55.2719 69.358 54.9452 69.19C54.6279 69.0126 54.2779 68.924 53.8952 68.924C53.2419 68.924 52.7005 69.1386 52.2712 69.568C51.8419 69.988 51.6272 70.5526 51.6272 71.262C51.6272 71.9713 51.8372 72.5406 52.2572 72.97C52.6865 73.39 53.2325 73.6 53.8952 73.6C54.2779 73.6 54.6279 73.516 54.9452 73.348C55.2719 73.1706 55.5425 72.9093 55.7572 72.564L57.1012 73.348C56.8119 73.908 56.3872 74.342 55.8272 74.65C55.2765 74.9486 54.6372 75.098 53.9092 75.098ZM58.8282 67.524H60.5782V75H58.8282V67.524ZM59.7102 66.292C59.3929 66.292 59.1269 66.194 58.9122 65.998C58.6976 65.7926 58.5902 65.5406 58.5902 65.242C58.5902 64.9433 58.6976 64.696 58.9122 64.5C59.1269 64.2946 59.3929 64.192 59.7102 64.192C60.0276 64.192 60.2936 64.29 60.5082 64.486C60.7229 64.6726 60.8302 64.9106 60.8302 65.2C60.8302 65.508 60.7229 65.7693 60.5082 65.984C60.3029 66.1893 60.0369 66.292 59.7102 66.292ZM65.9454 67.44C67.0467 67.44 67.8867 67.706 68.4654 68.238C69.0534 68.7606 69.3474 69.554 69.3474 70.618V75H67.6954V74.09C67.4807 74.4166 67.1727 74.6686 66.7714 74.846C66.3794 75.014 65.9034 75.098 65.3434 75.098C64.7834 75.098 64.2934 75.0046 63.8734 74.818C63.4534 74.622 63.1267 74.356 62.8934 74.02C62.6694 73.6746 62.5574 73.2873 62.5574 72.858C62.5574 72.186 62.8047 71.6493 63.2994 71.248C63.8034 70.8373 64.5921 70.632 65.6654 70.632H67.5974V70.52C67.5974 69.9973 67.4387 69.596 67.1214 69.316C66.8134 69.036 66.3514 68.896 65.7354 68.896C65.3154 68.896 64.9001 68.9613 64.4894 69.092C64.0881 69.2226 63.7474 69.4046 63.4674 69.638L62.7814 68.364C63.1734 68.0653 63.6447 67.8366 64.1954 67.678C64.7461 67.5193 65.3294 67.44 65.9454 67.44ZM65.7074 73.824C66.1461 73.824 66.5334 73.726 66.8694 73.53C67.2147 73.3246 67.4574 73.0353 67.5974 72.662V71.794H65.7914C64.7834 71.794 64.2794 72.1253 64.2794 72.788C64.2794 73.1053 64.4054 73.3573 64.6574 73.544C64.9094 73.7306 65.2594 73.824 65.7074 73.824ZM73.4736 68.616C73.9776 67.832 74.8643 67.44 76.1336 67.44V69.106C75.9843 69.078 75.8489 69.064 75.7276 69.064C75.0463 69.064 74.5143 69.2646 74.1316 69.666C73.7489 70.058 73.5576 70.6273 73.5576 71.374V75H71.8076V67.524H73.4736V68.616Z" fill="white"/>
</svg>
