<?xml version="1.0" encoding="utf-8"?>
<!-- Generator: Adobe Illustrator 24.1.3, SVG Export Plug-In . SVG Version: 6.00 Build 0)  -->
<svg version="1.1" id="Capa_1" xmlns="http://www.w3.org/2000/svg" xmlns:xlink="http://www.w3.org/1999/xlink" x="0px" y="0px"
	 viewBox="0 0 103 85" style="enable-background:new 0 0 103 85;" xml:space="preserve">
<style type="text/css">
	.st0{fill:none;stroke:#FFFFFF;}
	.st1{fill-rule:evenodd;clip-rule:evenodd;fill:#FFFFFF;}
	.st2{filter:url(#Adobe_OpacityMaskFilter);}
	.st3{mask:url(#mask-2_1_);fill-rule:evenodd;clip-rule:evenodd;fill:#FFFFFF;}
	.st4{enable-background:new    ;}
	.st5{fill:#FFFFFF;}
</style>
<g id="mic-on">
	<g id="Group-7" transform="translate(29.000000, 12.000000)">
		<circle id="Background" class="st0" cx="22.5" cy="22.5" r="22.5"/>
		<g id="_x31_.-Icons-_x2F_-Line-_x2F_--add-item-alt-Copy-2" transform="translate(14.000000, 15.000000)">
			<path id="volume-mid" class="st1" d="M11,0.5v13c0,0.3-0.2,0.5-0.5,0.5h-2c-0.2,0-0.4-0.1-0.4-0.3l-0.7-1.3
				C6.7,10.9,5.1,10,3.5,10H3c-1.7,0-3-1.3-3-3s1.3-3,3-3h0.5c1.7,0,3.2-0.9,3.9-2.4l0.7-1.3C8.1,0.1,8.3,0,8.5,0h2
				C10.8,0,11,0.2,11,0.5z M10,1H8.8L8.3,2C7.4,3.9,5.5,5,3.5,5H3C1.9,5,1,5.9,1,7s0.9,2,2,2h0.5c2,0,3.9,1.1,4.8,3l0.5,1H10V1z"/>
		</g>
	</g>
	<g id="Group-8" transform="translate(56.000000, 28.000000)">
		<g id="Group-3" transform="translate(1.500000, 0.301740)">
			<g id="Clip-2">
			</g>
			<defs>
				<filter id="Adobe_OpacityMaskFilter" filterUnits="userSpaceOnUse" x="1.1" y="1.2" width="2.6" height="9.3">
					<feColorMatrix  type="matrix" values="1 0 0 0 0  0 1 0 0 0  0 0 1 0 0  0 0 0 1 0"/>
				</filter>
			</defs>
			<mask maskUnits="userSpaceOnUse" x="1.1" y="1.2" width="2.6" height="9.3" id="mask-2_1_">
				<g class="st2">
					<polygon id="path-1_1_" class="st1" points="1.1,1.2 3.7,1.2 3.7,10.5 1.1,10.5 					"/>
				</g>
			</mask>
			<path id="Fill-1" class="st3" d="M1.1,10c0-0.1,0-0.2,0.1-0.3c2.1-2.1,2.1-5.6,0-7.7C1,1.8,1,1.5,1.2,1.3c0.2-0.2,0.5-0.2,0.6,0
				c1.2,1.2,1.9,2.8,1.9,4.5c0,1.7-0.7,3.3-1.9,4.5c-0.2,0.2-0.5,0.2-0.6,0C1.1,10.3,1.1,10.2,1.1,10"/>
		</g>
		<path id="Fill-4" class="st1" d="M1.3,9.1c0-0.1,0-0.2,0.1-0.3c1.4-1.4,1.4-3.7,0-5.2c-0.2-0.2-0.2-0.5,0-0.6
			c0.2-0.2,0.5-0.2,0.6,0c1.8,1.8,1.8,4.7,0,6.5c-0.2,0.2-0.5,0.2-0.6,0C1.3,9.3,1.3,9.2,1.3,9.1"/>
		<path id="Fill-6" class="st1" d="M0,7.8c0-0.1,0-0.2,0.1-0.3c0.7-0.7,0.7-1.9,0-2.6C0,4.7,0,4.4,0.1,4.2C0.3,4,0.6,4,0.8,4.2
			c1.1,1.1,1.1,2.8,0,3.9c-0.2,0.2-0.5,0.2-0.6,0C0,8,0,7.9,0,7.8"/>
	</g>
	<g class="st4">
		<path class="st5" d="M30.9,64.8c-0.4-0.1-0.8-0.2-1.2-0.2c-0.5,0-0.9,0.1-1.2,0.3c-0.3,0.2-0.4,0.4-0.4,0.8c0,0.3,0.1,0.5,0.3,0.7
			c0.2,0.2,0.4,0.3,0.6,0.4c0.3,0.1,0.6,0.2,1.1,0.4c0.6,0.2,1,0.3,1.4,0.5s0.7,0.4,0.9,0.7c0.2,0.3,0.4,0.7,0.4,1.3
			c0,0.5-0.1,0.9-0.4,1.3c-0.3,0.4-0.6,0.6-1.1,0.8c-0.5,0.2-1,0.3-1.6,0.3c-0.6,0-1.2-0.1-1.8-0.4s-1.1-0.6-1.5-1l0.5-1
			c0.4,0.4,0.9,0.7,1.4,0.9s1,0.3,1.5,0.3c0.6,0,1-0.1,1.3-0.3c0.3-0.2,0.5-0.5,0.5-0.9c0-0.3-0.1-0.5-0.3-0.7
			c-0.2-0.2-0.4-0.3-0.7-0.5c-0.3-0.1-0.6-0.2-1.1-0.4c-0.6-0.2-1-0.3-1.4-0.5s-0.7-0.4-0.9-0.7c-0.2-0.3-0.4-0.7-0.4-1.2
			c0-0.4,0.1-0.8,0.4-1.2s0.6-0.6,1-0.8c0.4-0.2,1-0.3,1.6-0.3c0.5,0,1,0.1,1.5,0.2c0.5,0.1,0.9,0.3,1.3,0.6l-0.5,1
			C31.7,65.1,31.3,64.9,30.9,64.8z"/>
		<path class="st5" d="M35.5,63.3c0.1,0.1,0.2,0.3,0.2,0.5s-0.1,0.4-0.2,0.5c-0.1,0.1-0.3,0.2-0.5,0.2c-0.2,0-0.4-0.1-0.5-0.2
			c-0.1-0.1-0.2-0.3-0.2-0.5s0.1-0.4,0.2-0.5s0.3-0.2,0.5-0.2C35.2,63.1,35.4,63.2,35.5,63.3z M34.5,65.7h1.1V72h-1.1V65.7z"/>
		<path class="st5" d="M37.8,63.1h1.1V72h-1.1V63.1z"/>
		<path class="st5" d="M46,66.5c0.5,0.6,0.8,1.4,0.8,2.4c0,0.2,0,0.3,0,0.4h-5c0.1,0.6,0.3,1,0.7,1.4c0.4,0.3,0.9,0.5,1.4,0.5
			c0.4,0,0.7-0.1,1-0.2c0.3-0.1,0.6-0.3,0.8-0.6l0.6,0.6c-0.3,0.3-0.7,0.6-1.1,0.8c-0.4,0.2-0.9,0.3-1.5,0.3c-0.6,0-1.2-0.1-1.7-0.4
			c-0.5-0.3-0.9-0.6-1.1-1.1c-0.3-0.5-0.4-1-0.4-1.7s0.1-1.2,0.4-1.7c0.3-0.5,0.6-0.9,1.1-1.1c0.5-0.3,1-0.4,1.6-0.4
			C44.7,65.6,45.5,65.9,46,66.5z M45.7,68.4c0-0.6-0.2-1-0.6-1.4s-0.8-0.5-1.4-0.5c-0.6,0-1,0.2-1.4,0.5s-0.6,0.8-0.7,1.4H45.7z"/>
		<path class="st5" d="M53.5,66.3c0.4,0.4,0.6,1,0.6,1.8V72H53v-3.6c0-0.5-0.1-1-0.5-1.3c-0.3-0.3-0.7-0.5-1.2-0.5
			c-0.6,0-1,0.2-1.4,0.5c-0.4,0.4-0.6,0.8-0.6,1.4V72h-1.1v-6.3h1.1V67c0.4-0.9,1.2-1.4,2.4-1.4C52.5,65.6,53.1,65.8,53.5,66.3z"/>
		<path class="st5" d="M58.8,66.6c-0.4,0-0.8,0.1-1.1,0.3c-0.3,0.2-0.6,0.4-0.8,0.8c-0.2,0.3-0.3,0.7-0.3,1.2c0,0.4,0.1,0.8,0.3,1.2
			c0.2,0.3,0.4,0.6,0.7,0.8c0.3,0.2,0.7,0.3,1.1,0.3c0.4,0,0.8-0.1,1.1-0.2c0.3-0.1,0.6-0.3,0.8-0.6l0.6,0.6
			c-0.3,0.4-0.7,0.6-1.1,0.8c-0.4,0.2-0.9,0.3-1.5,0.3c-0.6,0-1.2-0.1-1.6-0.4c-0.5-0.3-0.9-0.6-1.1-1.1s-0.4-1-0.4-1.7
			s0.1-1.2,0.4-1.7s0.6-0.9,1.1-1.1c0.5-0.3,1-0.4,1.6-0.4c0.5,0,1,0.1,1.4,0.2c0.4,0.2,0.8,0.4,1.1,0.7l-0.6,0.8
			C60.1,66.9,59.5,66.6,58.8,66.6z"/>
		<path class="st5" d="M63.9,63.3c0.1,0.1,0.2,0.3,0.2,0.5s-0.1,0.4-0.2,0.5c-0.1,0.1-0.3,0.2-0.5,0.2c-0.2,0-0.4-0.1-0.5-0.2
			c-0.1-0.1-0.2-0.3-0.2-0.5s0.1-0.4,0.2-0.5c0.1-0.1,0.3-0.2,0.5-0.2C63.7,63.1,63.8,63.2,63.9,63.3z M62.9,65.7H64V72h-1.1V65.7z"
			/>
		<path class="st5" d="M70.1,72v-0.9c-0.5,0.6-1.2,0.9-2.2,0.9c-0.4,0-0.8-0.1-1.2-0.3s-0.6-0.4-0.8-0.7c-0.2-0.3-0.3-0.6-0.3-1
			c0-0.6,0.2-1,0.6-1.3s1-0.5,1.8-0.5h2v-0.3c0-0.4-0.1-0.8-0.4-1c-0.3-0.2-0.7-0.4-1.2-0.4c-0.6,0-1.3,0.2-2,0.7L66,66.5
			c0.5-0.3,0.9-0.5,1.3-0.6c0.4-0.1,0.8-0.2,1.4-0.2c0.8,0,1.4,0.2,1.8,0.6s0.7,0.9,0.7,1.6l0,4.2H70.1z M69.4,70.7
			c0.4-0.3,0.6-0.6,0.7-1v-0.6h-1.9c-0.5,0-0.9,0.1-1.1,0.2c-0.2,0.2-0.4,0.4-0.4,0.7c0,0.3,0.1,0.6,0.4,0.8s0.6,0.3,1,0.3
			C68.6,71.1,69,71,69.4,70.7z"/>
		<path class="st5" d="M75.2,66c0.4-0.2,0.8-0.4,1.4-0.4v1.1c-0.6,0-1.2,0.1-1.6,0.5c-0.4,0.4-0.6,0.8-0.7,1.5V72h-1.1v-6.3h1.1V67
			C74.5,66.6,74.8,66.2,75.2,66z"/>
	</g>
</g>
</svg>
