<?xml version="1.0" encoding="UTF-8"?>
<svg width="103px" height="85px" viewBox="0 0 103 85" version="1.1" xmlns="http://www.w3.org/2000/svg" xmlns:xlink="http://www.w3.org/1999/xlink">
    <title>mic-on</title>
    <defs>
        <polygon id="path-1" points="1.08105 1.1985 3.72855 1.1985 3.72855 10.5 1.08105 10.5"></polygon>
    </defs>
    <g id="mic-on" stroke="none" stroke-width="1" fill="none" fill-rule="evenodd">
        <g id="Group-8" transform="translate(53.000000, 28.000000)">
            <g id="Group-3" transform="translate(1.500000, 0.301740)">
                <mask id="mask-2" fill="white">
                    <use xlink:href="#path-1"></use>
                </mask>
                <g id="Clip-2"></g>
                <path d="M1.08105,10.0437 C1.08105,9.9267 1.12605,9.8097 1.21455,9.7212 C3.35055,7.5852 3.35055,4.1112 1.21455,1.9782 C1.03755,1.7982 1.03755,1.5102 1.21455,1.3317 C1.39305,1.1532 1.68105,1.1532 1.86105,1.3317 C3.06405,2.5362 3.72855,4.1412 3.72855,5.8497 C3.72855,7.5567 3.06405,9.1617 1.86105,10.3662 C1.68105,10.5447 1.39305,10.5447 1.21455,10.3662 C1.12605,10.2777 1.08105,10.1607 1.08105,10.0437" id="Fill-1" fill="#FFFFFF" mask="url(#mask-2)"></path>
            </g>
            <path d="M1.29045,9.05499 C1.29045,8.93799 1.33545,8.82099 1.42395,8.73249 C2.84745,7.30899 2.84745,4.99299 1.42395,3.56949 C1.24695,3.39099 1.24695,3.10299 1.42395,2.92449 C1.60245,2.74599 1.89045,2.74599 2.07045,2.92449 C3.84795,4.70349 3.84795,7.59849 2.07045,9.37749 C1.89045,9.55599 1.60245,9.55599 1.42395,9.37749 C1.33545,9.28899 1.29045,9.17199 1.29045,9.05499" id="Fill-4" fill="#FFFFFF"></path>
            <path d="M0,7.76439 C0,7.64739 0.0435,7.53039 0.1335,7.44189 C0.8445,6.72939 0.8445,5.57139 0.1335,4.86039 C-0.0435,4.68189 -0.0435,4.39239 0.1335,4.21539 C0.312,4.03689 0.6,4.03689 0.78,4.21539 C1.8465,5.28189 1.8465,7.01889 0.78,8.08689 C0.6,8.26539 0.312,8.26539 0.1335,8.08689 C0.0435,7.99839 0,7.88139 0,7.76439" id="Fill-6" fill="#FFFFFF"></path>
        </g>
        <text id="Silenciar" font-family="Montserrat-Regular, Montserrat" font-size="12" font-weight="normal" fill="#FFFFFF">
            <tspan x="26" y="71">Silenciar</tspan>
        </text>
        <circle id="Background" stroke="#FFFFFF" cx="49.5" cy="33" r="22"></circle>
    </g>
</svg>