<?xml version="1.0" encoding="utf-8"?>
<!-- Generator: Adobe Illustrator 24.1.3, SVG Export Plug-In . SVG Version: 6.00 Build 0)  -->
<svg version="1.1" id="Capa_1" xmlns="http://www.w3.org/2000/svg" xmlns:xlink="http://www.w3.org/1999/xlink" x="0px" y="0px"
	 viewBox="0 0 103 85" style="enable-background:new 0 0 103 85;" xml:space="preserve">
<style type="text/css">
	.st0{fill:none;stroke:#FFFFFF;}
	.st1{fill-rule:evenodd;clip-rule:evenodd;fill:#FFFFFF;}
	.st2{enable-background:new    ;}
	.st3{fill:#FFFFFF;}
</style>
<g id="mic-off">
	<g id="Group-7" transform="translate(29.000000, 12.000000)">
		<circle id="Background" class="st0" cx="22.5" cy="22.5" r="22.5"/>
		<g id="_x31_.-Icons-_x2F_-Line-_x2F_--add-item-alt-Copy-2" transform="translate(14.000000, 15.000000)">
			<path id="volume-mid" class="st1" d="M11,0.5v13c0,0.3-0.2,0.5-0.5,0.5h-2c-0.2,0-0.4-0.1-0.4-0.3l-0.7-1.3
				C6.7,10.9,5.1,10,3.5,10H3c-1.7,0-3-1.3-3-3s1.3-3,3-3h0.5c1.7,0,3.2-0.9,3.9-2.4l0.7-1.3C8.1,0.1,8.3,0,8.5,0h2
				C10.8,0,11,0.2,11,0.5z M10,1H8.8L8.3,2C7.4,3.9,5.5,5,3.5,5H3C1.9,5,1,5.9,1,7s0.9,2,2,2h0.5c2,0,3.9,1.1,4.8,3l0.5,1H10V1z"/>
			<g id="_x5F_Icons-_x2F_-Close" transform="translate(13.000000, 4.000000)">
				<g id="Close">
					<path id="path-1_1_" class="st1" d="M0.1,5.9C0.3,6,0.5,6,0.7,5.9L3,3.6l2.3,2.3C5.5,6,5.7,6,5.9,5.9C6,5.7,6,5.5,5.9,5.3
						L3.6,3l2.3-2.3C6,0.5,6,0.3,5.9,0.1C5.7,0,5.5,0,5.3,0.1L3,2.4L0.7,0.1C0.5,0,0.3,0,0.1,0.1S0,0.5,0.1,0.7L2.4,3L0.1,5.3
						C0,5.5,0,5.7,0.1,5.9z"/>
				</g>
			</g>
		</g>
	</g>
	<g class="st2">
		<path class="st3" d="M38.4,72l-0.9-2h-4.4l-0.9,2H31l3.7-8.4H36l3.7,8.4H38.4z M33.6,68.9h3.5l-1.8-4.1L33.6,68.9z"/>
		<path class="st3" d="M43.1,66.6c-0.4,0-0.8,0.1-1.1,0.3c-0.3,0.2-0.6,0.4-0.8,0.8S41,68.4,41,68.8c0,0.4,0.1,0.8,0.3,1.2
			s0.4,0.6,0.7,0.8c0.3,0.2,0.7,0.3,1.1,0.3c0.4,0,0.8-0.1,1.1-0.2c0.3-0.1,0.6-0.3,0.8-0.6l0.6,0.6c-0.3,0.4-0.7,0.6-1.1,0.8
			S43.6,72,43,72c-0.6,0-1.2-0.1-1.6-0.4c-0.5-0.3-0.9-0.6-1.1-1.1c-0.3-0.5-0.4-1-0.4-1.7s0.1-1.2,0.4-1.7c0.3-0.5,0.6-0.9,1.1-1.1
			c0.5-0.3,1-0.4,1.6-0.4c0.5,0,1,0.1,1.4,0.2c0.4,0.2,0.8,0.4,1.1,0.7l-0.6,0.8C44.4,66.9,43.8,66.6,43.1,66.6z"/>
		<path class="st3" d="M50.6,71.6c-0.5,0.3-1,0.5-1.5,0.5c-0.5,0-0.9-0.1-1.2-0.5c-0.3-0.3-0.5-0.8-0.5-1.4v-3.5h-0.9v-0.9h0.9v-1.7
			h1.1v1.7h1.9v0.9h-1.9V70c0,0.4,0.1,0.6,0.2,0.8c0.1,0.2,0.3,0.2,0.6,0.2c0.3,0,0.6-0.1,1-0.3L50.6,71.6z"/>
		<path class="st3" d="M53,63.3c0.1,0.1,0.2,0.3,0.2,0.5s-0.1,0.4-0.2,0.5c-0.1,0.1-0.3,0.2-0.5,0.2s-0.4-0.1-0.5-0.2
			c-0.1-0.1-0.2-0.3-0.2-0.5s0.1-0.4,0.2-0.5s0.3-0.2,0.5-0.2S52.9,63.2,53,63.3z M52,65.7h1.1V72H52V65.7z"/>
		<path class="st3" d="M54.2,65.7h1.2l1.9,5.2l1.9-5.2h1.1L57.9,72h-1.2L54.2,65.7z"/>
		<path class="st3" d="M65.1,72v-0.9c-0.5,0.6-1.2,0.9-2.2,0.9c-0.4,0-0.8-0.1-1.2-0.3s-0.6-0.4-0.8-0.7c-0.2-0.3-0.3-0.6-0.3-1
			c0-0.6,0.2-1,0.6-1.3s1-0.5,1.8-0.5h2v-0.3c0-0.4-0.1-0.8-0.4-1s-0.7-0.4-1.2-0.4c-0.6,0-1.3,0.2-2,0.7L61,66.5
			c0.5-0.3,0.9-0.5,1.3-0.6c0.4-0.1,0.8-0.2,1.4-0.2c0.8,0,1.4,0.2,1.8,0.6c0.4,0.4,0.7,0.9,0.7,1.6l0,4.2H65.1z M64.4,70.7
			c0.4-0.3,0.6-0.6,0.7-1v-0.6h-1.9c-0.5,0-0.9,0.1-1.1,0.2c-0.2,0.2-0.4,0.4-0.4,0.7c0,0.3,0.1,0.6,0.4,0.8s0.6,0.3,1,0.3
			C63.6,71.1,64.1,71,64.4,70.7z"/>
		<path class="st3" d="M70.2,66c0.4-0.2,0.8-0.4,1.4-0.4v1.1c-0.6,0-1.2,0.1-1.6,0.5c-0.4,0.4-0.6,0.8-0.7,1.5V72h-1.1v-6.3h1.1V67
			C69.5,66.6,69.8,66.2,70.2,66z"/>
	</g>
</g>
</svg>
