<?xml version="1.0" encoding="UTF-8"?>
<svg width="103px" height="85px" viewBox="0 0 103 85" version="1.1" xmlns="http://www.w3.org/2000/svg" xmlns:xlink="http://www.w3.org/1999/xlink">
    <title>mic-off</title>
    <defs>
        <path d="M0.121159821,5.87884018 C0.282706248,6.04038661 0.545322748,6.04038661 0.706869175,5.87884018 L3,3.58570935 L5.29313082,5.87884018 C5.45467725,6.04038661 5.71729375,6.04038661 5.87884018,5.87884018 C6.04038661,5.71729375 6.04038661,5.45467725 5.87884018,5.29313082 L3.58570935,3 L5.87884018,0.706869175 C6.04038661,0.545322748 6.04038661,0.282706248 5.87884018,0.121159821 C5.71729375,-0.0403866068 5.45467725,-0.0403866068 5.29313082,0.121159821 L3,2.41429065 L0.706869175,0.121159821 C0.545322748,-0.0403866068 0.282706248,-0.0403866068 0.121159821,0.121159821 C-0.0403866068,0.282706248 -0.0403866068,0.545322748 0.121159821,0.706869175 L2.41429065,3 L0.121159821,5.29313082 C-0.0403866068,5.45467725 -0.0403866068,5.71729375 0.121159821,5.87884018 Z" id="path-1"></path>
    </defs>
    <g id="mic-off" stroke="none" stroke-width="1" fill="none" fill-rule="evenodd">
        <g id="1.-Icons-/-Line-/--add-item-alt-Copy-2" transform="translate(40.000000, 26.000000)">
            <path d="M11,0.499999971 L11,13.5 C11,13.7761424 10.7761424,14 10.5,14 L8.49999996,14 C8.3107784,14 8.13777127,13.8931705 8.05299999,13.724 L7.39399999,12.407 C6.65656819,10.9319773 5.14908989,10.0001591 3.49999996,9.99999997 L2.99999996,9.99999997 C1.34314571,9.99999997 -4.16666808e-08,8.65685426 -4.16666808e-08,6.99999997 C-4.16666808e-08,5.34314574 1.34314571,3.99999997 2.99999996,3.99999997 L3.49999996,3.99999997 C5.14999998,3.99999997 6.65699999,3.06799998 7.39399999,1.59299998 L8.05299999,0.275999972 C8.13777127,0.106829513 8.3107784,-2.91674951e-08 8.49999996,-2.91674951e-08 L10.5,-2.91674951e-08 C10.7761424,-2.91674951e-08 11,0.223857597 11,0.499999971 Z M9.99999996,0.999999975 L8.809,0.999999975 L8.28899999,2.03999998 C7.38214355,3.85407424 5.52811585,5.00001743 3.49999996,4.99999997 L2.99999996,4.99999997 C1.89543047,4.99999997 0.999999962,5.8954305 0.999999962,6.99999997 C0.999999962,8.1045695 1.89543047,8.99999997 2.99999996,8.99999997 L3.49999996,8.99999997 C5.52811585,8.99998257 7.38214355,10.1459258 8.28899999,11.96 L8.809,13 L9.99999996,13 L9.99999996,0.999999975 Z" id="volume-mid" fill="#FFFFFF"></path>
            <g id="_Icons-/-Close" transform="translate(13.000000, 4.000000)">
                <mask id="mask-2" fill="white">
                    <use xlink:href="#path-1"></use>
                </mask>
                <use id="Close" fill="#FFFFFF" xlink:href="#path-1"></use>
            </g>
        </g>
        <text id="Activar" font-family="Montserrat-Regular, Montserrat" font-size="12" font-weight="normal" fill="#FFFFFF">
            <tspan x="30" y="71">Activar</tspan>
        </text>
        <circle id="Background" stroke="#FFFFFF" cx="49.5" cy="33" r="22"></circle>
    </g>
</svg>