<?xml version="1.0" encoding="utf-8"?>
<svg width="657px" height="155px" viewBox="0 0 657 155" version="1.1" xmlns:xlink="http://www.w3.org/1999/xlink" xmlns="http://www.w3.org/2000/svg">
  <path d="M46.4535 123L46.4535 48.4395L123.217 123L170 123L170 0L123.547 0L123.547 69.9314L52.3837 0L0 0L0 123L46.4535 123ZM255.437 126C265.077 126 273.375 125.421 280.331 124.262C287.287 123.104 293.175 121.614 297.995 119.794C302.815 117.974 306.704 115.85 309.662 113.423C312.62 110.995 314.92 108.485 316.563 105.893C318.207 103.3 319.302 100.762 319.85 98.2799C320.398 95.7975 320.671 93.5082 320.671 91.412L320.671 91.412L320.671 91.081L276.634 91.081C276.524 91.6326 276.168 92.4877 275.566 93.6461C274.963 94.8046 273.786 95.9906 272.033 97.2042C270.28 98.4178 267.788 99.4935 264.556 100.431C261.325 101.369 257.08 101.838 251.822 101.838L251.822 101.838L251.657 101.838C247.166 101.838 243.304 101.424 240.073 100.597C236.841 99.7694 234.157 98.6109 232.021 97.1215C229.885 95.632 228.242 93.8944 227.092 91.9084C225.941 89.9225 225.202 87.7711 224.873 85.4542L224.873 85.4542L321 85.4542L321 80.4894C321 76.9589 320.699 73.2905 320.096 69.4842C319.494 65.6778 318.371 61.9818 316.728 58.3961C315.085 54.8104 312.757 51.4178 309.744 48.2183C306.732 45.0188 302.788 42.2054 297.913 39.7782C293.038 37.3509 287.123 35.4478 280.167 34.0687C273.21 32.6896 264.912 32 255.272 32L255.272 32L246.235 32C232.541 32 221.45 33.3791 212.96 36.1373C204.47 38.8955 197.843 42.4261 193.077 46.7289C188.312 51.0317 185.108 55.831 183.465 61.1268C181.822 66.4225 181 71.6631 181 76.8486L181 76.8486L181 80.1584C181 85.3439 181.876 90.6673 183.629 96.1285C185.382 101.59 188.668 106.527 193.488 110.94C198.308 115.353 204.991 118.967 213.535 121.78C222.08 124.593 233.144 126 246.728 126L246.728 126L255.437 126ZM276 67L225 67C225.548 65.0741 226.398 63.3086 227.55 61.7037C228.702 60.0988 230.265 58.7346 232.239 57.6111C234.213 56.4877 236.681 55.6049 239.642 54.963C242.603 54.321 246.223 54 250.5 54C258.945 54 265.087 55.1502 268.926 57.4506C272.765 59.751 275.123 62.9342 276 67L276 67ZM407.453 123L425.235 69.0706L443.017 123L493.07 123L526 34L483.191 34L466.232 89.9145L448.944 34L402.843 34L385.884 90.0799L368.596 34L322 34L356.906 123L407.453 123ZM595.033 126C607.961 126 618.423 125.173 626.42 123.518C634.418 121.863 640.608 119.629 644.99 116.815C649.372 114.002 652.303 110.747 653.782 107.051C655.26 103.355 656 99.466 656 95.3838L656 95.3838L656 94.2253C656 89.8122 655.37 85.9231 654.11 82.5581C652.85 79.1931 650.44 76.3245 646.88 73.9525C643.319 71.5804 638.417 69.7324 632.172 68.4084C625.927 67.0845 617.82 66.257 607.851 65.9261L607.851 65.9261L589.282 65.4296C585.885 65.3192 583.119 65.071 580.983 64.6849C578.846 64.2987 577.176 63.8298 575.971 63.2782C574.766 62.7265 573.944 62.0646 573.506 61.2923C573.068 60.52 572.848 59.6925 572.848 58.8099L572.848 58.8099L572.848 58.6444C572.848 57.6514 573.068 56.7688 573.506 55.9965C573.944 55.2242 574.793 54.5898 576.053 54.0933C577.313 53.5968 579.066 53.2107 581.311 52.9349C583.557 52.659 586.488 52.5211 590.103 52.5211L590.103 52.5211L590.268 52.5211C594.211 52.5211 597.361 52.8245 599.717 53.4313C602.072 54.0381 603.852 54.7553 605.057 55.5827C606.262 56.4102 607.029 57.2928 607.358 58.2306C607.687 59.1684 607.906 60.0235 608.015 60.7958L608.015 60.7958L652.713 60.7958L652.713 59.6373C652.713 56.1068 651.919 52.6866 650.331 49.3768C648.742 46.0669 645.811 43.1156 641.539 40.5229C637.266 37.9302 631.35 35.8615 623.791 34.3169C616.232 32.7723 606.536 32 594.704 32L594.704 32L585.995 32C573.834 32 563.947 32.7447 556.333 34.2342C548.719 35.7236 542.831 37.7647 538.668 40.3574C534.504 42.9501 531.683 45.9014 530.204 49.2113C528.725 52.5211 527.986 55.9965 527.986 59.6373L527.986 59.6373L527.986 60.6303C527.986 63.9401 528.616 67.1948 529.876 70.3944C531.136 73.5939 533.464 76.49 536.86 79.0827C540.256 81.6755 544.912 83.8269 550.828 85.537C556.744 87.2471 564.358 88.2676 573.67 88.5986L573.67 88.5986L592.404 89.0951C596.019 89.2054 598.95 89.4261 601.196 89.757C603.441 90.088 605.167 90.5845 606.372 91.2465C607.577 91.9084 608.371 92.6532 608.755 93.4806C609.138 94.3081 609.33 95.2735 609.33 96.3768L609.33 96.3768L609.33 96.7077C609.33 97.7007 609.111 98.6385 608.673 99.5211C608.234 100.404 607.385 101.176 606.125 101.838C604.866 102.5 603.031 103.052 600.62 103.493C598.21 103.934 595.033 104.155 591.089 104.155L591.089 104.155L590.76 104.155C586.597 104.155 583.311 103.741 580.901 102.914C578.49 102.086 576.655 101.093 575.396 99.9349C574.136 98.7764 573.341 97.5904 573.013 96.3768C572.684 95.1631 572.52 94.115 572.52 93.2324L572.52 93.2324L527 93.2324L527 94.3908C527 96.3768 527.219 98.5006 527.657 100.762C528.096 103.024 529.027 105.341 530.451 107.713C531.875 110.085 533.902 112.374 536.531 114.581C539.161 116.788 542.666 118.718 547.048 120.373C551.431 122.028 556.799 123.38 563.153 124.428C569.507 125.476 577.121 126 585.995 126L585.995 126L595.033 126Z" transform="translate(0.5 28.5)" id="News" fill="none" stroke="#79908E" stroke-opacity="0.09296671" stroke-width="1" />
  <path d="M46.4535 123L46.4535 48.4395L123.217 123L170 123L170 0L123.547 0L123.547 69.9314L52.3837 0L0 0L0 123L46.4535 123ZM255.437 126C265.077 126 273.375 125.421 280.331 124.262C287.287 123.104 293.175 121.614 297.995 119.794C302.815 117.974 306.704 115.85 309.662 113.423C312.62 110.995 314.92 108.485 316.563 105.893C318.207 103.3 319.302 100.762 319.85 98.2799C320.398 95.7975 320.671 93.5082 320.671 91.412L320.671 91.412L320.671 91.081L276.634 91.081C276.524 91.6326 276.168 92.4877 275.566 93.6461C274.963 94.8046 273.786 95.9906 272.033 97.2042C270.28 98.4178 267.788 99.4935 264.556 100.431C261.325 101.369 257.08 101.838 251.822 101.838L251.822 101.838L251.657 101.838C247.166 101.838 243.304 101.424 240.073 100.597C236.841 99.7694 234.157 98.6109 232.021 97.1215C229.885 95.632 228.242 93.8944 227.092 91.9084C225.941 89.9225 225.202 87.7711 224.873 85.4542L224.873 85.4542L321 85.4542L321 80.4894C321 76.9589 320.699 73.2905 320.096 69.4842C319.494 65.6778 318.371 61.9818 316.728 58.3961C315.085 54.8104 312.757 51.4178 309.744 48.2183C306.732 45.0188 302.788 42.2054 297.913 39.7782C293.038 37.3509 287.123 35.4478 280.167 34.0687C273.21 32.6896 264.912 32 255.272 32L255.272 32L246.235 32C232.541 32 221.45 33.3791 212.96 36.1373C204.47 38.8955 197.843 42.4261 193.077 46.7289C188.312 51.0317 185.108 55.831 183.465 61.1268C181.822 66.4225 181 71.6631 181 76.8486L181 76.8486L181 80.1584C181 85.3439 181.876 90.6673 183.629 96.1285C185.382 101.59 188.668 106.527 193.488 110.94C198.308 115.353 204.991 118.967 213.535 121.78C222.08 124.593 233.144 126 246.728 126L246.728 126L255.437 126ZM276 67L225 67C225.548 65.0741 226.398 63.3086 227.55 61.7037C228.702 60.0988 230.265 58.7346 232.239 57.6111C234.213 56.4877 236.681 55.6049 239.642 54.963C242.603 54.321 246.223 54 250.5 54C258.945 54 265.087 55.1502 268.926 57.4506C272.765 59.751 275.123 62.9342 276 67L276 67ZM407.453 123L425.235 69.0706L443.017 123L493.07 123L526 34L483.191 34L466.232 89.9145L448.944 34L402.843 34L385.884 90.0799L368.596 34L322 34L356.906 123L407.453 123ZM595.033 126C607.961 126 618.423 125.173 626.42 123.518C634.418 121.863 640.608 119.629 644.99 116.815C649.372 114.002 652.303 110.747 653.782 107.051C655.26 103.355 656 99.466 656 95.3838L656 95.3838L656 94.2253C656 89.8122 655.37 85.9231 654.11 82.5581C652.85 79.1931 650.44 76.3245 646.88 73.9525C643.319 71.5804 638.417 69.7324 632.172 68.4084C625.927 67.0845 617.82 66.257 607.851 65.9261L607.851 65.9261L589.282 65.4296C585.885 65.3192 583.119 65.071 580.983 64.6849C578.846 64.2987 577.176 63.8298 575.971 63.2782C574.766 62.7265 573.944 62.0646 573.506 61.2923C573.068 60.52 572.848 59.6925 572.848 58.8099L572.848 58.8099L572.848 58.6444C572.848 57.6514 573.068 56.7688 573.506 55.9965C573.944 55.2242 574.793 54.5898 576.053 54.0933C577.313 53.5968 579.066 53.2107 581.311 52.9349C583.557 52.659 586.488 52.5211 590.103 52.5211L590.103 52.5211L590.268 52.5211C594.211 52.5211 597.361 52.8245 599.717 53.4313C602.072 54.0381 603.852 54.7553 605.057 55.5827C606.262 56.4102 607.029 57.2928 607.358 58.2306C607.687 59.1684 607.906 60.0235 608.015 60.7958L608.015 60.7958L652.713 60.7958L652.713 59.6373C652.713 56.1068 651.919 52.6866 650.331 49.3768C648.742 46.0669 645.811 43.1156 641.539 40.5229C637.266 37.9302 631.35 35.8615 623.791 34.3169C616.232 32.7723 606.536 32 594.704 32L594.704 32L585.995 32C573.834 32 563.947 32.7447 556.333 34.2342C548.719 35.7236 542.831 37.7647 538.668 40.3574C534.504 42.9501 531.683 45.9014 530.204 49.2113C528.725 52.5211 527.986 55.9965 527.986 59.6373L527.986 59.6373L527.986 60.6303C527.986 63.9401 528.616 67.1948 529.876 70.3944C531.136 73.5939 533.464 76.49 536.86 79.0827C540.256 81.6755 544.912 83.8269 550.828 85.537C556.744 87.2471 564.358 88.2676 573.67 88.5986L573.67 88.5986L592.404 89.0951C596.019 89.2054 598.95 89.4261 601.196 89.757C603.441 90.088 605.167 90.5845 606.372 91.2465C607.577 91.9084 608.371 92.6532 608.755 93.4806C609.138 94.3081 609.33 95.2735 609.33 96.3768L609.33 96.3768L609.33 96.7077C609.33 97.7007 609.111 98.6385 608.673 99.5211C608.234 100.404 607.385 101.176 606.125 101.838C604.866 102.5 603.031 103.052 600.62 103.493C598.21 103.934 595.033 104.155 591.089 104.155L591.089 104.155L590.76 104.155C586.597 104.155 583.311 103.741 580.901 102.914C578.49 102.086 576.655 101.093 575.396 99.9349C574.136 98.7764 573.341 97.5904 573.013 96.3768C572.684 95.1631 572.52 94.115 572.52 93.2324L572.52 93.2324L527 93.2324L527 94.3908C527 96.3768 527.219 98.5006 527.657 100.762C528.096 103.024 529.027 105.341 530.451 107.713C531.875 110.085 533.902 112.374 536.531 114.581C539.161 116.788 542.666 118.718 547.048 120.373C551.431 122.028 556.799 123.38 563.153 124.428C569.507 125.476 577.121 126 585.995 126L585.995 126L595.033 126Z" transform="translate(0.5 18.5)" id="News" fill="none" stroke="#79908E" stroke-opacity="0.29003978" stroke-width="1" />
  <path d="M46.4535 123L46.4535 48.4395L123.217 123L170 123L170 0L123.547 0L123.547 69.9314L52.3837 0L0 0L0 123L46.4535 123ZM255.437 126C265.077 126 273.375 125.421 280.331 124.262C287.287 123.104 293.175 121.614 297.995 119.794C302.815 117.974 306.704 115.85 309.662 113.423C312.62 110.995 314.92 108.485 316.563 105.893C318.207 103.3 319.302 100.762 319.85 98.2799C320.398 95.7975 320.671 93.5082 320.671 91.412L320.671 91.412L320.671 91.081L276.634 91.081C276.524 91.6326 276.168 92.4877 275.566 93.6461C274.963 94.8046 273.786 95.9906 272.033 97.2042C270.28 98.4178 267.788 99.4935 264.556 100.431C261.325 101.369 257.08 101.838 251.822 101.838L251.822 101.838L251.657 101.838C247.166 101.838 243.304 101.424 240.073 100.597C236.841 99.7694 234.157 98.6109 232.021 97.1215C229.885 95.632 228.242 93.8944 227.092 91.9084C225.941 89.9225 225.202 87.7711 224.873 85.4542L224.873 85.4542L321 85.4542L321 80.4894C321 76.9589 320.699 73.2905 320.096 69.4842C319.494 65.6778 318.371 61.9818 316.728 58.3961C315.085 54.8104 312.757 51.4178 309.744 48.2183C306.732 45.0188 302.788 42.2054 297.913 39.7782C293.038 37.3509 287.123 35.4478 280.167 34.0687C273.21 32.6896 264.912 32 255.272 32L255.272 32L246.235 32C232.541 32 221.45 33.3791 212.96 36.1373C204.47 38.8955 197.843 42.4261 193.077 46.7289C188.312 51.0317 185.108 55.831 183.465 61.1268C181.822 66.4225 181 71.6631 181 76.8486L181 76.8486L181 80.1584C181 85.3439 181.876 90.6673 183.629 96.1285C185.382 101.59 188.668 106.527 193.488 110.94C198.308 115.353 204.991 118.967 213.535 121.78C222.08 124.593 233.144 126 246.728 126L246.728 126L255.437 126ZM276 67L225 67C225.548 65.0741 226.398 63.3086 227.55 61.7037C228.702 60.0988 230.265 58.7346 232.239 57.6111C234.213 56.4877 236.681 55.6049 239.642 54.963C242.603 54.321 246.223 54 250.5 54C258.945 54 265.087 55.1502 268.926 57.4506C272.765 59.751 275.123 62.9342 276 67L276 67ZM407.453 123L425.235 69.0706L443.017 123L493.07 123L526 34L483.191 34L466.232 89.9145L448.944 34L402.843 34L385.884 90.0799L368.596 34L322 34L356.906 123L407.453 123ZM595.033 126C607.961 126 618.423 125.173 626.42 123.518C634.418 121.863 640.608 119.629 644.99 116.815C649.372 114.002 652.303 110.747 653.782 107.051C655.26 103.355 656 99.466 656 95.3838L656 95.3838L656 94.2253C656 89.8122 655.37 85.9231 654.11 82.5581C652.85 79.1931 650.44 76.3245 646.88 73.9525C643.319 71.5804 638.417 69.7324 632.172 68.4084C625.927 67.0845 617.82 66.257 607.851 65.9261L607.851 65.9261L589.282 65.4296C585.885 65.3192 583.119 65.071 580.983 64.6849C578.846 64.2987 577.176 63.8298 575.971 63.2782C574.766 62.7265 573.944 62.0646 573.506 61.2923C573.068 60.52 572.848 59.6925 572.848 58.8099L572.848 58.8099L572.848 58.6444C572.848 57.6514 573.068 56.7688 573.506 55.9965C573.944 55.2242 574.793 54.5898 576.053 54.0933C577.313 53.5968 579.066 53.2107 581.311 52.9349C583.557 52.659 586.488 52.5211 590.103 52.5211L590.103 52.5211L590.268 52.5211C594.211 52.5211 597.361 52.8245 599.717 53.4313C602.072 54.0381 603.852 54.7553 605.057 55.5827C606.262 56.4102 607.029 57.2928 607.358 58.2306C607.687 59.1684 607.906 60.0235 608.015 60.7958L608.015 60.7958L652.713 60.7958L652.713 59.6373C652.713 56.1068 651.919 52.6866 650.331 49.3768C648.742 46.0669 645.811 43.1156 641.539 40.5229C637.266 37.9302 631.35 35.8615 623.791 34.3169C616.232 32.7723 606.536 32 594.704 32L594.704 32L585.995 32C573.834 32 563.947 32.7447 556.333 34.2342C548.719 35.7236 542.831 37.7647 538.668 40.3574C534.504 42.9501 531.683 45.9014 530.204 49.2113C528.725 52.5211 527.986 55.9965 527.986 59.6373L527.986 59.6373L527.986 60.6303C527.986 63.9401 528.616 67.1948 529.876 70.3944C531.136 73.5939 533.464 76.49 536.86 79.0827C540.256 81.6755 544.912 83.8269 550.828 85.537C556.744 87.2471 564.358 88.2676 573.67 88.5986L573.67 88.5986L592.404 89.0951C596.019 89.2054 598.95 89.4261 601.196 89.757C603.441 90.088 605.167 90.5845 606.372 91.2465C607.577 91.9084 608.371 92.6532 608.755 93.4806C609.138 94.3081 609.33 95.2735 609.33 96.3768L609.33 96.3768L609.33 96.7077C609.33 97.7007 609.111 98.6385 608.673 99.5211C608.234 100.404 607.385 101.176 606.125 101.838C604.866 102.5 603.031 103.052 600.62 103.493C598.21 103.934 595.033 104.155 591.089 104.155L591.089 104.155L590.76 104.155C586.597 104.155 583.311 103.741 580.901 102.914C578.49 102.086 576.655 101.093 575.396 99.9349C574.136 98.7764 573.341 97.5904 573.013 96.3768C572.684 95.1631 572.52 94.115 572.52 93.2324L572.52 93.2324L527 93.2324L527 94.3908C527 96.3768 527.219 98.5006 527.657 100.762C528.096 103.024 529.027 105.341 530.451 107.713C531.875 110.085 533.902 112.374 536.531 114.581C539.161 116.788 542.666 118.718 547.048 120.373C551.431 122.028 556.799 123.38 563.153 124.428C569.507 125.476 577.121 126 585.995 126L585.995 126L595.033 126Z" transform="translate(0.5 8.5)" id="News" fill="none" stroke="#79908E" stroke-opacity="0.5532299" stroke-width="1" />
  <path d="M46.4535 123L46.4535 48.4395L123.217 123L170 123L170 0L123.547 0L123.547 69.9314L52.3837 0L0 0L0 123L46.4535 123ZM255.437 126C265.077 126 273.375 125.421 280.331 124.262C287.287 123.104 293.175 121.614 297.995 119.794C302.815 117.974 306.704 115.85 309.662 113.423C312.62 110.995 314.92 108.485 316.563 105.893C318.207 103.3 319.302 100.762 319.85 98.2799C320.398 95.7975 320.671 93.5082 320.671 91.412L320.671 91.412L320.671 91.081L276.634 91.081C276.524 91.6326 276.168 92.4877 275.566 93.6461C274.963 94.8046 273.786 95.9906 272.033 97.2042C270.28 98.4178 267.788 99.4935 264.556 100.431C261.325 101.369 257.08 101.838 251.822 101.838L251.822 101.838L251.657 101.838C247.166 101.838 243.304 101.424 240.073 100.597C236.841 99.7694 234.157 98.6109 232.021 97.1215C229.885 95.632 228.242 93.8944 227.092 91.9084C225.941 89.9225 225.202 87.7711 224.873 85.4542L224.873 85.4542L321 85.4542L321 80.4894C321 76.9589 320.699 73.2905 320.096 69.4842C319.494 65.6778 318.371 61.9818 316.728 58.3961C315.085 54.8104 312.757 51.4178 309.744 48.2183C306.732 45.0188 302.788 42.2054 297.913 39.7782C293.038 37.3509 287.123 35.4478 280.167 34.0687C273.21 32.6896 264.912 32 255.272 32L255.272 32L246.235 32C232.541 32 221.45 33.3791 212.96 36.1373C204.47 38.8955 197.843 42.4261 193.077 46.7289C188.312 51.0317 185.108 55.831 183.465 61.1268C181.822 66.4225 181 71.6631 181 76.8486L181 76.8486L181 80.1584C181 85.3439 181.876 90.6673 183.629 96.1285C185.382 101.59 188.668 106.527 193.488 110.94C198.308 115.353 204.991 118.967 213.535 121.78C222.08 124.593 233.144 126 246.728 126L246.728 126L255.437 126ZM276 67L225 67C225.548 65.0741 226.398 63.3086 227.55 61.7037C228.702 60.0988 230.265 58.7346 232.239 57.6111C234.213 56.4877 236.681 55.6049 239.642 54.963C242.603 54.321 246.223 54 250.5 54C258.945 54 265.087 55.1502 268.926 57.4506C272.765 59.751 275.123 62.9342 276 67L276 67ZM407.453 123L425.235 69.0706L443.017 123L493.07 123L526 34L483.191 34L466.232 89.9145L448.944 34L402.843 34L385.884 90.0799L368.596 34L322 34L356.906 123L407.453 123ZM595.033 126C607.961 126 618.423 125.173 626.42 123.518C634.418 121.863 640.608 119.629 644.99 116.815C649.372 114.002 652.303 110.747 653.782 107.051C655.26 103.355 656 99.466 656 95.3838L656 95.3838L656 94.2253C656 89.8122 655.37 85.9231 654.11 82.5581C652.85 79.1931 650.44 76.3245 646.88 73.9525C643.319 71.5804 638.417 69.7324 632.172 68.4084C625.927 67.0845 617.82 66.257 607.851 65.9261L607.851 65.9261L589.282 65.4296C585.885 65.3192 583.119 65.071 580.983 64.6849C578.846 64.2987 577.176 63.8298 575.971 63.2782C574.766 62.7265 573.944 62.0646 573.506 61.2923C573.068 60.52 572.848 59.6925 572.848 58.8099L572.848 58.8099L572.848 58.6444C572.848 57.6514 573.068 56.7688 573.506 55.9965C573.944 55.2242 574.793 54.5898 576.053 54.0933C577.313 53.5968 579.066 53.2107 581.311 52.9349C583.557 52.659 586.488 52.5211 590.103 52.5211L590.103 52.5211L590.268 52.5211C594.211 52.5211 597.361 52.8245 599.717 53.4313C602.072 54.0381 603.852 54.7553 605.057 55.5827C606.262 56.4102 607.029 57.2928 607.358 58.2306C607.687 59.1684 607.906 60.0235 608.015 60.7958L608.015 60.7958L652.713 60.7958L652.713 59.6373C652.713 56.1068 651.919 52.6866 650.331 49.3768C648.742 46.0669 645.811 43.1156 641.539 40.5229C637.266 37.9302 631.35 35.8615 623.791 34.3169C616.232 32.7723 606.536 32 594.704 32L594.704 32L585.995 32C573.834 32 563.947 32.7447 556.333 34.2342C548.719 35.7236 542.831 37.7647 538.668 40.3574C534.504 42.9501 531.683 45.9014 530.204 49.2113C528.725 52.5211 527.986 55.9965 527.986 59.6373L527.986 59.6373L527.986 60.6303C527.986 63.9401 528.616 67.1948 529.876 70.3944C531.136 73.5939 533.464 76.49 536.86 79.0827C540.256 81.6755 544.912 83.8269 550.828 85.537C556.744 87.2471 564.358 88.2676 573.67 88.5986L573.67 88.5986L592.404 89.0951C596.019 89.2054 598.95 89.4261 601.196 89.757C603.441 90.088 605.167 90.5845 606.372 91.2465C607.577 91.9084 608.371 92.6532 608.755 93.4806C609.138 94.3081 609.33 95.2735 609.33 96.3768L609.33 96.3768L609.33 96.7077C609.33 97.7007 609.111 98.6385 608.673 99.5211C608.234 100.404 607.385 101.176 606.125 101.838C604.866 102.5 603.031 103.052 600.62 103.493C598.21 103.934 595.033 104.155 591.089 104.155L591.089 104.155L590.76 104.155C586.597 104.155 583.311 103.741 580.901 102.914C578.49 102.086 576.655 101.093 575.396 99.9349C574.136 98.7764 573.341 97.5904 573.013 96.3768C572.684 95.1631 572.52 94.115 572.52 93.2324L572.52 93.2324L527 93.2324L527 94.3908C527 96.3768 527.219 98.5006 527.657 100.762C528.096 103.024 529.027 105.341 530.451 107.713C531.875 110.085 533.902 112.374 536.531 114.581C539.161 116.788 542.666 118.718 547.048 120.373C551.431 122.028 556.799 123.38 563.153 124.428C569.507 125.476 577.121 126 585.995 126L585.995 126L595.033 126Z" transform="translate(0.5 0.5)" id="News" fill="#FFFFFF" fill-opacity="0.8419262" stroke="#979797" stroke-opacity="0.8419262" stroke-width="1" />
</svg>