<svg xmlns="http://www.w3.org/2000/svg" viewBox="0 0 657 127">
  <defs>
    <style>
      .cls-1 {
        fill: #ffffff;
        stroke: #79908e;
        stroke-miterlimit: 10;
        opacity: 1;
      }
    </style>
  </defs>
  <path id="News" class="cls-1" d="M595.033,126h-9.039a143.345,143.345,0,0,1-22.842-1.572,85.92,85.92,0,0,1-16.1-4.054,36.341,36.341,0,0,1-10.517-5.792,27.933,27.933,0,0,1-6.081-6.868,21.611,21.611,0,0,1-2.794-6.951A33.729,33.729,0,0,1,527,94.391V93.233H572.52a12.359,12.359,0,0,0,.493,3.144,7.735,7.735,0,0,0,2.382,3.559,15.659,15.659,0,0,0,5.505,2.979,31.536,31.536,0,0,0,9.86,1.241h.328a55.215,55.215,0,0,0,9.531-.662,20.106,20.106,0,0,0,5.505-1.655,5.621,5.621,0,0,0,2.547-2.317,6.271,6.271,0,0,0,.657-2.813v-.331a6.862,6.862,0,0,0-.575-2.9,5.3,5.3,0,0,0-2.382-2.234,15.9,15.9,0,0,0-5.177-1.489A79.493,79.493,0,0,0,592.4,89.1l-18.734-.5c-9.269-.33-16.954-1.36-22.842-3.062s-10.589-3.874-13.968-6.454a20.664,20.664,0,0,1-6.984-8.689,26.563,26.563,0,0,1-1.89-9.764v-.993A25.4,25.4,0,0,1,530.2,49.211c1.472-3.295,4.32-6.273,8.463-8.853s10.088-4.641,17.666-6.124S573.889,32,585.995,32h8.71c11.777,0,21.563.779,29.086,2.317s13.495,3.625,17.748,6.205,7.21,5.56,8.792,8.854a23.563,23.563,0,0,1,2.382,10.261V60.8h-44.7a13.666,13.666,0,0,0-.657-2.565,5.688,5.688,0,0,0-2.3-2.648,17.321,17.321,0,0,0-5.341-2.152,39.484,39.484,0,0,0-9.449-.91H590.1a75.259,75.259,0,0,0-8.791.414,22.389,22.389,0,0,0-5.259,1.158,4.818,4.818,0,0,0-2.547,1.9,5.293,5.293,0,0,0-.658,2.648v.166a4.976,4.976,0,0,0,.658,2.483,5.2,5.2,0,0,0,2.464,1.985,21.837,21.837,0,0,0,5.012,1.407,59.437,59.437,0,0,0,8.3.745l18.57.5a145.03,145.03,0,0,1,24.321,2.482c6.214,1.317,11.163,3.183,14.708,5.544a18.041,18.041,0,0,1,7.231,8.606A33.322,33.322,0,0,1,656,94.226v1.158a31.267,31.267,0,0,1-2.219,11.668c-1.472,3.679-4.43,6.964-8.792,9.764s-10.608,5.055-18.569,6.7S607.9,126,595.033,126Zm-339.6,0h-8.708a147.986,147.986,0,0,1-18.486-1.055,79.548,79.548,0,0,1-14.707-3.165,70.382,70.382,0,0,1-11.42-4.82,43.189,43.189,0,0,1-8.626-6.019,38.578,38.578,0,0,1-6.079-7.013,31.352,31.352,0,0,1-3.78-7.8A52.4,52.4,0,0,1,181,80.159v-3.31a53.121,53.121,0,0,1,2.465-15.721,29.285,29.285,0,0,1,3.636-7.572,36.763,36.763,0,0,1,5.977-6.826,42.684,42.684,0,0,1,8.544-5.875,70.651,70.651,0,0,1,11.338-4.716,79.91,79.91,0,0,1,14.686-3.1A152.579,152.579,0,0,1,246.235,32h9.038a130.414,130.414,0,0,1,24.894,2.068,71.209,71.209,0,0,1,17.747,5.71,41.586,41.586,0,0,1,11.831,8.44A38.079,38.079,0,0,1,316.728,58.4,42.608,42.608,0,0,1,320.1,69.484,70.62,70.62,0,0,1,321,80.49v4.964H224.873a17.786,17.786,0,0,0,2.219,6.454,16.476,16.476,0,0,0,4.929,5.214,24.827,24.827,0,0,0,8.052,3.475,47.4,47.4,0,0,0,11.584,1.241h.165a47.232,47.232,0,0,0,12.734-1.407,26.29,26.29,0,0,0,7.477-3.227,10.8,10.8,0,0,0,3.533-3.559,11.25,11.25,0,0,0,1.068-2.565h44.038v.331a32.19,32.19,0,0,1-.822,6.868,24.046,24.046,0,0,1-3.287,7.612,32.408,32.408,0,0,1-6.9,7.53A41.539,41.539,0,0,1,298,119.794a94.964,94.964,0,0,1-17.664,4.468A154.779,154.779,0,0,1,255.436,126ZM250.5,54a52.418,52.418,0,0,0-10.858.963,26.347,26.347,0,0,0-7.4,2.648A14.5,14.5,0,0,0,227.55,61.7,17.082,17.082,0,0,0,225,67h51a14.42,14.42,0,0,0-7.075-9.549C265.1,55.161,258.905,54,250.5,54ZM170,123H123.217L46.453,48.44V123H0V0H52.384l71.163,69.932V0H170V123Zm323.07,0H443.017l-17.782-53.93L407.452,123H356.906L322,34h46.6l17.288,56.08L402.843,34h46.1l17.288,55.914L483.191,34H526L493.07,123Z" transform="translate(0.5 0.5)"/>
</svg>
