<?xml version="1.0" encoding="utf-8"?>
<svg width="273px" height="299px" viewBox="0 0 273 299" version="1.1" xmlns:xlink="http://www.w3.org/1999/xlink" xmlns="http://www.w3.org/2000/svg">
  <defs>
    <linearGradient x1="0.5" y1="0" x2="0.1699059" y2="1.4257203" id="gradient_1">
      <stop offset="0" stop-color="#818E8E" />
      <stop offset="1" stop-color="#FFFFFF" />
    </linearGradient>
    <linearGradient x1="0.5" y1="0" x2="0.1699059" y2="1.4257203" id="gradient_2">
      <stop offset="0" stop-color="#939E9E" />
      <stop offset="1" stop-color="#FFFFFF" />
    </linearGradient>
    <linearGradient x1="0.5" y1="0" x2="0.1699059" y2="1.4257203" id="gradient_3">
      <stop offset="0" stop-color="#859191" />
      <stop offset="1" stop-color="#FFFFFF" />
    </linearGradient>
    <linearGradient x1="0.5" y1="0" x2="0.1699059" y2="1.4257203" id="gradient_4">
      <stop offset="0" stop-color="#919C9C" />
      <stop offset="1" stop-color="#FFFFFF" />
    </linearGradient>
    <linearGradient x1="0.5" y1="0" x2="0.1699059" y2="1.4257203" id="gradient_5">
      <stop offset="0" stop-color="#889494" />
      <stop offset="1" stop-color="#FFFFFF" />
    </linearGradient>
    <filter filterUnits="userSpaceOnUse" color-interpolation-filters="sRGB" id="filter_1">
      <feFlood flood-opacity="0" result="BackgroundImageFix" />
      <feColorMatrix in="SourceAlpha" type="matrix" values="0 0 0 0 0 0 0 0 0 0 0 0 0 0 0 0 0 0 127 0" />
      <feMorphology radius="-1" operator="dilate" in="SourceAlpha" result="effect0_dropShadow" />
      <feOffset dx="0" dy="16" />
      <feGaussianBlur stdDeviation="8" />
      <feColorMatrix type="matrix" values="0 0 0 0 0.039215688 0 0 0 0 0.08627451 0 0 0 0 0.27450982 0 0 0 0.101960786 0" />
      <feBlend mode="normal" in2="BackgroundImageFix" result="effect0_dropShadow" />
      <feColorMatrix in="SourceAlpha" type="matrix" values="0 0 0 0 0 0 0 0 0 0 0 0 0 0 0 0 0 0 127 0" />
      <feOffset dx="0" dy="0" />
      <feGaussianBlur stdDeviation="0.5" />
      <feColorMatrix type="matrix" values="0 0 0 0 0.039215688 0 0 0 0 0.08627451 0 0 0 0 0.27450982 0 0 0 0.05882353 0" />
      <feBlend mode="normal" in2="effect0_dropShadow" result="effect1_dropShadow" />
      <feBlend mode="normal" in="SourceGraphic" in2="effect1_dropShadow" result="shape" />
    </filter>
  </defs>
  <g id="Group-9" transform="translate(2.5 2.5)">
    <path d="M9.999 0L258.001 0Q258.246 0 258.492 0.0120442Q258.737 0.0240885 258.981 0.0481479Q259.225 0.0722074 259.468 0.108224Q259.711 0.144241 259.952 0.192128Q260.192 0.240015 260.431 0.299657Q260.669 0.3593 260.904 0.430553Q261.138 0.501807 261.37 0.584501Q261.601 0.667194 261.827 0.761128Q262.054 0.855062 262.276 0.960011Q262.498 1.06496 262.714 1.18067Q262.931 1.29638 263.141 1.42257Q263.352 1.54876 263.556 1.68514Q263.76 1.82151 263.957 1.96773Q264.155 2.11395 264.344 2.26967Q264.534 2.42539 264.716 2.59023Q264.898 2.75507 265.071 2.92864Q265.245 3.10221 265.41 3.28408Q265.575 3.46596 265.73 3.6557Q265.886 3.84545 266.032 4.0426Q266.178 4.23976 266.315 4.44385Q266.451 4.64795 266.577 4.85849Q266.704 5.06903 266.819 5.2855Q266.935 5.50198 267.04 5.72388Q267.145 5.94577 267.239 6.17255Q267.333 6.39932 267.415 6.63044Q267.498 6.86155 267.569 7.09644Q267.641 7.33134 267.7 7.56944Q267.76 7.80755 267.808 8.04829Q267.856 8.28904 267.892 8.53184Q267.928 8.77465 267.952 9.01893Q267.976 9.26321 267.988 9.50837Q268 9.75354 268 9.999L268 284.001Q268 284.246 267.988 284.492Q267.976 284.737 267.952 284.981Q267.928 285.225 267.892 285.468Q267.856 285.711 267.808 285.952Q267.76 286.192 267.7 286.431Q267.641 286.669 267.569 286.904Q267.498 287.138 267.415 287.37Q267.333 287.601 267.239 287.827Q267.145 288.054 267.04 288.276Q266.935 288.498 266.819 288.714Q266.704 288.931 266.577 289.141Q266.451 289.352 266.315 289.556Q266.178 289.76 266.032 289.957Q265.886 290.155 265.73 290.344Q265.575 290.534 265.41 290.716Q265.245 290.898 265.071 291.071Q264.898 291.245 264.716 291.41Q264.534 291.575 264.344 291.73Q264.155 291.886 263.957 292.032Q263.76 292.178 263.556 292.315Q263.352 292.451 263.141 292.577Q262.931 292.704 262.714 292.819Q262.498 292.935 262.276 293.04Q262.054 293.145 261.827 293.239Q261.601 293.333 261.37 293.415Q261.138 293.498 260.904 293.569Q260.669 293.641 260.431 293.7Q260.192 293.76 259.952 293.808Q259.711 293.856 259.468 293.892Q259.225 293.928 258.981 293.952Q258.737 293.976 258.492 293.988Q258.246 294 258.001 294L9.999 294Q9.75354 294 9.50837 293.988Q9.26321 293.976 9.01893 293.952Q8.77465 293.928 8.53184 293.892Q8.28904 293.856 8.04829 293.808Q7.80755 293.76 7.56944 293.7Q7.33134 293.641 7.09644 293.569Q6.86155 293.498 6.63044 293.415Q6.39932 293.333 6.17255 293.239Q5.94577 293.145 5.72388 293.04Q5.50198 292.935 5.2855 292.819Q5.06903 292.704 4.85849 292.577Q4.64795 292.451 4.44385 292.315Q4.23976 292.178 4.0426 292.032Q3.84545 291.886 3.6557 291.73Q3.46596 291.575 3.28408 291.41Q3.10221 291.245 2.92864 291.071Q2.75507 290.898 2.59023 290.716Q2.42539 290.534 2.26967 290.344Q2.11395 290.155 1.96773 289.957Q1.82151 289.76 1.68514 289.556Q1.54876 289.352 1.42257 289.141Q1.29638 288.931 1.18067 288.714Q1.06496 288.498 0.960011 288.276Q0.855062 288.054 0.761128 287.827Q0.667194 287.601 0.584501 287.369Q0.501807 287.138 0.430553 286.904Q0.3593 286.669 0.299657 286.43Q0.240015 286.192 0.192128 285.952Q0.144241 285.711 0.108224 285.468Q0.0722074 285.225 0.0481479 284.981Q0.0240885 284.737 0.0120442 284.492Q0 284.246 0 284.001L0 9.999Q0 9.75354 0.0120442 9.50837Q0.0240885 9.26321 0.0481479 9.01893Q0.0722074 8.77465 0.108224 8.53184Q0.144241 8.28904 0.192128 8.04829Q0.240015 7.80755 0.299657 7.56944Q0.3593 7.33134 0.430553 7.09644Q0.501807 6.86155 0.584501 6.63044Q0.667194 6.39932 0.761128 6.17255Q0.855062 5.94577 0.960011 5.72388Q1.06496 5.50198 1.18067 5.2855Q1.29638 5.06903 1.42257 4.85849Q1.54876 4.64795 1.68514 4.44385Q1.82151 4.23976 1.96773 4.0426Q2.11395 3.84545 2.26967 3.6557Q2.42539 3.46596 2.59023 3.28408Q2.75507 3.10221 2.92864 2.92864Q3.10221 2.75507 3.28408 2.59023Q3.46596 2.42539 3.6557 2.26967Q3.84545 2.11395 4.0426 1.96773Q4.23976 1.82151 4.44385 1.68514Q4.64795 1.54876 4.85849 1.42257Q5.06903 1.29638 5.2855 1.18067Q5.50198 1.06496 5.72388 0.960011Q5.94577 0.855062 6.17255 0.761128Q6.39932 0.667194 6.63044 0.584501Q6.86155 0.501807 7.09644 0.430553Q7.33134 0.3593 7.56944 0.299657Q7.80755 0.240015 8.04829 0.192128Q8.28904 0.144241 8.53184 0.108224Q8.77465 0.0722074 9.01893 0.0481479Q9.26321 0.0240885 9.50837 0.0120442Q9.75354 0 9.999 0Z" id="Rectangle" fill="#F5F6FA" fill-rule="evenodd" stroke="none" />
    <g id="¡No-tienes-mensajes" transform="translate(42 198)">
      <g id="¡No-tienes" fill="#818E8E">
        <path d="M90.76 5.392Q91.192 5.792 91.88 5.792Q92.568 5.792 93 5.384Q93.432 4.976 93.432 4.352Q93.432 3.776 93 3.392Q92.568 3.008 91.88 3.008Q91.192 3.008 90.76 3.408Q90.328 3.808 90.328 4.4Q90.328 4.992 90.76 5.392ZM66.184 4.4L66.184 15.6L64.056 15.6L58.472 8.8L58.472 15.6L55.912 15.6L55.912 4.4L58.056 4.4L63.624 11.2L63.624 4.4L66.184 4.4ZM89.224 15.184Q88.856 15.456 88.32 15.592Q87.784 15.728 87.192 15.728Q85.656 15.728 84.816 14.944Q83.976 14.16 83.976 12.64L83.976 9.104L82.648 9.104L82.648 7.184L83.976 7.184L83.976 5.088L86.472 5.088L86.472 7.184L88.616 7.184L88.616 9.104L86.472 9.104L86.472 12.608Q86.472 13.152 86.752 13.448Q87.032 13.744 87.544 13.744Q88.136 13.744 88.552 13.424L89.224 15.184ZM52.28 6.864Q52.936 6.864 53.376 7.288Q53.816 7.712 53.816 8.32Q53.816 8.944 53.384 9.352Q52.952 9.76 52.28 9.76Q51.608 9.76 51.176 9.352Q50.744 8.944 50.744 8.32Q50.744 7.712 51.184 7.288Q51.624 6.864 52.28 6.864ZM70.32 15.16Q71.4 15.728 72.76 15.728Q74.12 15.728 75.192 15.16Q76.264 14.592 76.872 13.584Q77.48 12.576 77.48 11.296Q77.48 10.016 76.872 9.008Q76.264 8 75.192 7.432Q74.12 6.864 72.76 6.864Q71.4 6.864 70.32 7.432Q69.24 8 68.632 9.008Q68.024 10.016 68.024 11.296Q68.024 12.576 68.632 13.584Q69.24 14.592 70.32 15.16ZM103.88 11.328Q103.88 11.376 103.832 12L97.32 12Q97.496 12.8 98.152 13.264Q98.808 13.728 99.784 13.728Q100.456 13.728 100.976 13.528Q101.496 13.328 101.944 12.896L103.272 14.336Q102.056 15.728 99.72 15.728Q98.264 15.728 97.144 15.16Q96.024 14.592 95.416 13.584Q94.808 12.576 94.808 11.296Q94.808 10.032 95.408 9.016Q96.008 8 97.056 7.432Q98.104 6.864 99.4 6.864Q100.664 6.864 101.688 7.408Q102.712 7.952 103.296 8.968Q103.88 9.984 103.88 11.328ZM113.36 7.824Q112.376 6.864 110.776 6.864Q109.896 6.864 109.16 7.16Q108.424 7.456 107.928 8L107.928 6.992L105.544 6.992L105.544 15.6L108.04 15.6L108.04 11.344Q108.04 10.192 108.6 9.608Q109.16 9.024 110.104 9.024Q110.952 9.024 111.4 9.528Q111.848 10.032 111.848 11.056L111.848 15.6L114.344 15.6L114.344 10.672Q114.344 8.784 113.36 7.824ZM125.032 11.328Q125.032 11.376 124.984 12L118.472 12Q118.648 12.8 119.304 13.264Q119.96 13.728 120.936 13.728Q121.608 13.728 122.128 13.528Q122.648 13.328 123.096 12.896L124.424 14.336Q123.208 15.728 120.872 15.728Q119.416 15.728 118.296 15.16Q117.176 14.592 116.568 13.584Q115.96 12.576 115.96 11.296Q115.96 10.032 116.56 9.016Q117.16 8 118.208 7.432Q119.256 6.864 120.552 6.864Q121.816 6.864 122.84 7.408Q123.864 7.952 124.448 8.968Q125.032 9.984 125.032 11.328ZM127.496 15.464Q128.52 15.728 129.592 15.728Q130.856 15.728 131.776 15.384Q132.696 15.04 133.176 14.416Q133.656 13.792 133.656 12.992Q133.656 12.048 133.16 11.52Q132.664 10.992 131.992 10.792Q131.32 10.592 130.264 10.416Q129.32 10.272 128.888 10.112Q128.456 9.952 128.456 9.552Q128.456 9.2 128.856 8.976Q129.256 8.752 130.056 8.752Q131.4 8.752 132.536 9.392L133.368 7.616Q132.776 7.264 131.872 7.064Q130.968 6.864 130.056 6.864Q128.824 6.864 127.92 7.216Q127.016 7.568 126.544 8.2Q126.072 8.832 126.072 9.648Q126.072 10.624 126.576 11.152Q127.08 11.68 127.768 11.888Q128.456 12.096 129.512 12.256Q130.408 12.368 130.84 12.528Q131.272 12.688 131.272 13.056Q131.272 13.84 129.688 13.84Q128.904 13.84 128.088 13.608Q127.272 13.376 126.696 13.008L125.864 14.8Q126.472 15.2 127.496 15.464ZM93.128 6.992L90.632 6.992L90.632 15.6L93.128 15.6L93.128 6.992ZM99.416 8.752Q98.568 8.752 97.992 9.232Q97.416 9.712 97.288 10.544L101.528 10.544Q101.4 9.728 100.824 9.24Q100.248 8.752 99.416 8.752ZM120.568 8.752Q119.72 8.752 119.144 9.232Q118.568 9.712 118.44 10.544L122.68 10.544Q122.552 9.728 121.976 9.24Q121.4 8.752 120.568 8.752ZM74.336 13.032Q73.72 13.68 72.76 13.68Q71.8 13.68 71.176 13.032Q70.552 12.384 70.552 11.296Q70.552 10.208 71.176 9.56Q71.8 8.912 72.76 8.912Q73.72 8.912 74.336 9.56Q74.952 10.208 74.952 11.296Q74.952 12.384 74.336 13.032ZM50.792 18.064L51.288 10.88L53.272 10.88L53.768 18.064L50.792 18.064Z" />
      </g>
      <g id="mensajes-nuevos!" fill="#818E8E">
        <path d="M75.992 25.792Q75.304 25.792 74.872 25.392Q74.44 24.992 74.44 24.4Q74.44 23.808 74.872 23.408Q75.304 23.008 75.992 23.008Q76.68 23.008 77.112 23.392Q77.544 23.776 77.544 24.352Q77.544 24.976 77.112 25.384Q76.68 25.792 75.992 25.792ZM166.008 24.4L163.032 24.4L163.528 31.712L165.512 31.712L166.008 24.4ZM29.352 26.864Q30.968 26.864 31.92 27.816Q32.872 28.768 32.872 30.672L32.872 35.6L30.376 35.6L30.376 31.056Q30.376 30.032 29.952 29.528Q29.528 29.024 28.744 29.024Q27.864 29.024 27.352 29.592Q26.84 30.16 26.84 31.28L26.84 35.6L24.344 35.6L24.344 31.056Q24.344 29.024 22.712 29.024Q21.848 29.024 21.336 29.592Q20.824 30.16 20.824 31.28L20.824 35.6L18.328 35.6L18.328 26.992L20.712 26.992L20.712 27.984Q21.192 27.44 21.888 27.152Q22.584 26.864 23.416 26.864Q24.328 26.864 25.064 27.224Q25.8 27.584 26.248 28.272Q26.776 27.6 27.584 27.232Q28.392 26.864 29.352 26.864ZM43.544 31.328Q43.544 31.376 43.496 32L36.984 32Q37.16 32.8 37.816 33.264Q38.472 33.728 39.448 33.728Q40.12 33.728 40.64 33.528Q41.16 33.328 41.608 32.896L42.936 34.336Q41.72 35.728 39.384 35.728Q37.928 35.728 36.808 35.16Q35.688 34.592 35.08 33.584Q34.472 32.576 34.472 31.296Q34.472 30.032 35.072 29.016Q35.672 28 36.72 27.432Q37.768 26.864 39.064 26.864Q40.328 26.864 41.352 27.408Q42.376 27.952 42.96 28.968Q43.544 29.984 43.544 31.328ZM53.024 27.824Q52.04 26.864 50.44 26.864Q49.56 26.864 48.824 27.16Q48.088 27.456 47.592 28L47.592 26.992L45.208 26.992L45.208 35.6L47.704 35.6L47.704 31.344Q47.704 30.192 48.264 29.608Q48.824 29.024 49.768 29.024Q50.616 29.024 51.064 29.528Q51.512 30.032 51.512 31.056L51.512 35.6L54.008 35.6L54.008 30.672Q54.008 28.784 53.024 27.824ZM59.16 35.728Q58.088 35.728 57.064 35.464Q56.04 35.2 55.432 34.8L56.264 33.008Q56.84 33.376 57.656 33.608Q58.472 33.84 59.256 33.84Q60.84 33.84 60.84 33.056Q60.84 32.688 60.408 32.528Q59.976 32.368 59.08 32.256Q58.024 32.096 57.336 31.888Q56.648 31.68 56.144 31.152Q55.64 30.624 55.64 29.648Q55.64 28.832 56.112 28.2Q56.584 27.568 57.488 27.216Q58.392 26.864 59.624 26.864Q60.536 26.864 61.44 27.064Q62.344 27.264 62.936 27.616L62.104 29.392Q60.968 28.752 59.624 28.752Q58.824 28.752 58.424 28.976Q58.024 29.2 58.024 29.552Q58.024 29.952 58.456 30.112Q58.888 30.272 59.832 30.416Q60.888 30.592 61.56 30.792Q62.232 30.992 62.728 31.52Q63.224 32.048 63.224 32.992Q63.224 33.792 62.744 34.416Q62.264 35.04 61.344 35.384Q60.424 35.728 59.16 35.728ZM71.304 27.816Q70.232 26.864 68.232 26.864Q67.192 26.864 66.208 27.136Q65.224 27.408 64.52 27.904L65.416 29.648Q65.88 29.28 66.544 29.064Q67.208 28.848 67.896 28.848Q68.888 28.848 69.384 29.288Q69.88 29.728 69.88 30.544L67.896 30.544Q66.008 30.544 65.104 31.232Q64.2 31.92 64.2 33.12Q64.2 33.872 64.584 34.464Q64.968 35.056 65.696 35.392Q66.424 35.728 67.416 35.728Q69.336 35.728 70.04 34.528L70.04 35.6L72.376 35.6L72.376 30.688Q72.376 28.768 71.304 27.816ZM81.416 32L87.928 32Q87.976 31.376 87.976 31.328Q87.976 29.984 87.392 28.968Q86.808 27.952 85.784 27.408Q84.76 26.864 83.496 26.864Q82.2 26.864 81.152 27.432Q80.104 28 79.504 29.016Q78.904 30.032 78.904 31.296Q78.904 32.576 79.512 33.584Q80.12 34.592 81.24 35.16Q82.36 35.728 83.816 35.728Q86.152 35.728 87.368 34.336L86.04 32.896Q85.592 33.328 85.072 33.528Q84.552 33.728 83.88 33.728Q82.904 33.728 82.248 33.264Q81.592 32.8 81.416 32ZM92.536 35.728Q91.464 35.728 90.44 35.464Q89.416 35.2 88.808 34.8L89.64 33.008Q90.216 33.376 91.032 33.608Q91.848 33.84 92.632 33.84Q94.216 33.84 94.216 33.056Q94.216 32.688 93.784 32.528Q93.352 32.368 92.456 32.256Q91.4 32.096 90.712 31.888Q90.024 31.68 89.52 31.152Q89.016 30.624 89.016 29.648Q89.016 28.832 89.488 28.2Q89.96 27.568 90.864 27.216Q91.768 26.864 93 26.864Q93.912 26.864 94.816 27.064Q95.72 27.264 96.312 27.616L95.48 29.392Q94.344 28.752 93 28.752Q92.2 28.752 91.8 28.976Q91.4 29.2 91.4 29.552Q91.4 29.952 91.832 30.112Q92.264 30.272 93.208 30.416Q94.264 30.592 94.936 30.792Q95.608 30.992 96.104 31.52Q96.6 32.048 96.6 32.992Q96.6 33.792 96.12 34.416Q95.64 35.04 94.72 35.384Q93.8 35.728 92.536 35.728ZM110.48 27.824Q109.496 26.864 107.896 26.864Q107.016 26.864 106.28 27.16Q105.544 27.456 105.048 28L105.048 26.992L102.664 26.992L102.664 35.6L105.16 35.6L105.16 31.344Q105.16 30.192 105.72 29.608Q106.28 29.024 107.224 29.024Q108.072 29.024 108.52 29.528Q108.968 30.032 108.968 31.056L108.968 35.6L111.464 35.6L111.464 30.672Q111.464 28.784 110.48 27.824ZM126.584 32L133.096 32Q133.144 31.376 133.144 31.328Q133.144 29.984 132.56 28.968Q131.976 27.952 130.952 27.408Q129.928 26.864 128.664 26.864Q127.368 26.864 126.32 27.432Q125.272 28 124.672 29.016Q124.072 30.032 124.072 31.296Q124.072 32.576 124.68 33.584Q125.288 34.592 126.408 35.16Q127.528 35.728 128.984 35.728Q131.32 35.728 132.536 34.336L131.208 32.896Q130.76 33.328 130.24 33.528Q129.72 33.728 129.048 33.728Q128.072 33.728 127.416 33.264Q126.76 32.8 126.584 32ZM146.032 35.16Q147.112 35.728 148.472 35.728Q149.832 35.728 150.904 35.16Q151.976 34.592 152.584 33.584Q153.192 32.576 153.192 31.296Q153.192 30.016 152.584 29.008Q151.976 28 150.904 27.432Q149.832 26.864 148.472 26.864Q147.112 26.864 146.032 27.432Q144.952 28 144.344 29.008Q143.736 30.016 143.736 31.296Q143.736 32.576 144.344 33.584Q144.952 34.592 146.032 35.16ZM157.752 35.728Q156.68 35.728 155.656 35.464Q154.632 35.2 154.024 34.8L154.856 33.008Q155.432 33.376 156.248 33.608Q157.064 33.84 157.848 33.84Q159.432 33.84 159.432 33.056Q159.432 32.688 159 32.528Q158.568 32.368 157.672 32.256Q156.616 32.096 155.928 31.888Q155.24 31.68 154.736 31.152Q154.232 30.624 154.232 29.648Q154.232 28.832 154.704 28.2Q155.176 27.568 156.08 27.216Q156.984 26.864 158.216 26.864Q159.128 26.864 160.032 27.064Q160.936 27.264 161.528 27.616L160.696 29.392Q159.56 28.752 158.216 28.752Q157.416 28.752 157.016 28.976Q156.616 29.2 156.616 29.552Q156.616 29.952 157.048 30.112Q157.48 30.272 158.424 30.416Q159.48 30.592 160.152 30.792Q160.824 30.992 161.32 31.52Q161.816 32.048 161.816 32.992Q161.816 33.792 161.336 34.416Q160.856 35.04 159.936 35.384Q159.016 35.728 157.752 35.728ZM73.992 38.832Q72.68 38.832 71.992 38.352L72.664 36.544Q73.096 36.848 73.72 36.848Q74.2 36.848 74.472 36.536Q74.744 36.224 74.744 35.6L74.744 26.992L77.24 26.992L77.24 35.584Q77.24 37.088 76.384 37.96Q75.528 38.832 73.992 38.832ZM122.392 35.6L120.024 35.6L120.024 34.576Q119.528 35.136 118.84 35.432Q118.152 35.728 117.352 35.728Q115.656 35.728 114.664 34.752Q113.672 33.776 113.672 31.856L113.672 26.992L116.168 26.992L116.168 31.488Q116.168 33.568 117.912 33.568Q118.808 33.568 119.352 32.984Q119.896 32.4 119.896 31.248L119.896 26.992L122.392 26.992L122.392 35.6ZM139.72 35.6L137.144 35.6L133.528 26.992L136.104 26.992L138.488 32.848L140.952 26.992L143.352 26.992L139.72 35.6ZM39.08 28.752Q38.232 28.752 37.656 29.232Q37.08 29.712 36.952 30.544L41.192 30.544Q41.064 29.728 40.488 29.24Q39.912 28.752 39.08 28.752ZM82.088 29.232Q82.664 28.752 83.512 28.752Q84.344 28.752 84.92 29.24Q85.496 29.728 85.624 30.544L81.384 30.544Q81.512 29.712 82.088 29.232ZM127.256 29.232Q127.832 28.752 128.68 28.752Q129.512 28.752 130.088 29.24Q130.664 29.728 130.792 30.544L126.552 30.544Q126.68 29.712 127.256 29.232ZM150.048 33.032Q149.432 33.68 148.472 33.68Q147.512 33.68 146.888 33.032Q146.264 32.384 146.264 31.296Q146.264 30.208 146.888 29.56Q147.512 28.912 148.472 28.912Q149.432 28.912 150.048 29.56Q150.664 30.208 150.664 31.296Q150.664 32.384 150.048 33.032ZM69.176 33.752Q68.68 34.048 68.04 34.048Q67.384 34.048 67.008 33.768Q66.632 33.488 66.632 33.008Q66.632 32 68.168 32L69.88 32L69.88 32.88Q69.672 33.456 69.176 33.752ZM163.424 35.304Q163.864 35.728 164.52 35.728Q165.176 35.728 165.616 35.304Q166.056 34.88 166.056 34.272Q166.056 33.664 165.624 33.256Q165.192 32.848 164.52 32.848Q163.848 32.848 163.416 33.256Q162.984 33.664 162.984 34.272Q162.984 34.88 163.424 35.304Z" />
      </g>
    </g>
    <g id="icon_message_24x24" transform="translate(48 37)">
      <g id="logo">
        <path d="M84.1163 129.233C115.108 129.233 140.233 104.108 140.233 73.1163C140.233 42.1241 115.108 17 84.1163 17C53.1241 17 28 42.1241 28 73.1163C28 104.108 53.1241 129.233 84.1163 129.233Z" id="Oval-4" fill="url(#gradient_1)" fill-rule="evenodd" stroke="none" filter="url(#filter_1)" />
        <path d="M36.757 74.4124C39.8241 93.7771 58.0086 106.989 77.3734 103.922C96.7381 100.855 109.95 82.6703 106.883 63.3056C103.816 43.9408 85.6312 30.729 66.2665 33.7961C46.9018 36.8631 33.6899 55.0477 36.757 74.4124Z" id="Oval-4" fill="url(#gradient_2)" fill-rule="evenodd" stroke="none" />
        <path d="M1.19216 10.4106C1.84013 14.5018 5.68194 17.293 9.77308 16.645C13.8642 15.9971 16.6555 12.1552 16.0075 8.06411C15.3595 3.97297 11.5177 1.18173 7.42657 1.82971C3.33543 2.47768 0.544188 6.31949 1.19216 10.4106Z" id="Oval-4" fill="url(#gradient_3)" fill-rule="evenodd" stroke="none" />
        <path d="M41.5664 134.46C41.8688 136.369 43.6617 137.672 45.5709 137.369C47.4801 137.067 48.7826 135.274 48.4802 133.365C48.1779 131.456 46.385 130.153 44.4758 130.455C42.5666 130.758 41.264 132.551 41.5664 134.46Z" id="Oval-4" fill="url(#gradient_4)" fill-rule="evenodd" stroke="none" />
        <path d="M157.723 24.4476C158.112 26.9022 160.417 28.577 162.871 28.1882C165.326 27.7994 167.001 25.4943 166.612 23.0397C166.223 20.585 163.918 18.9102 161.464 19.299C159.009 19.6878 157.334 21.9929 157.723 24.4476Z" id="Oval-4" fill="url(#gradient_5)" fill-rule="evenodd" stroke="none" />
      </g>
      <g id="mail-(1)" transform="translate(62 59)">
        <path d="M4.3 0L38.7 0C41.065 0 43 1.9125 43 4.25L43 29.75C43 32.0875 41.065 34 38.7 34L4.3 34C1.935 34 0 32.0875 0 29.75L0 4.25C0 1.9125 1.935 0 4.3 0Z" id="Path" fill="none" fill-rule="evenodd" stroke="#FFFFFF" stroke-width="3" stroke-linecap="round" stroke-linejoin="round" />
        <path d="M43 4L21.5 19L0 4" id="Path" fill="none" fill-rule="evenodd" stroke="#FFFFFF" stroke-width="3" stroke-linecap="round" stroke-linejoin="round" />
      </g>
    </g>
  </g>
</svg>