<?xml version="1.0" encoding="UTF-8"?>
<svg width="20px" height="22px" viewBox="0 0 20 22" version="1.1" xmlns="http://www.w3.org/2000/svg" xmlns:xlink="http://www.w3.org/1999/xlink">
    <title>Group 35</title>
    <g id="Page-1" stroke="none" stroke-width="1" fill="none" fill-rule="evenodd">
        <g id="Group-35" fill="#999999">
            <path d="M3.3172729,5.51242663 C4.41275797,4.47230866 5.7868016,3.99098099 6.5910055,4.00025002 C6.7543908,3.99958795 6.89032202,4.01878809 6.98741575,4.04527104 C7.43069883,4.1651064 7.856572,4.42794971 8.32128266,4.70602071 C8.78331488,4.97416061 9.30293371,5.28864568 9.99732126,5.29659056 L9.99799087,5.29659056 C10.6287653,5.28202494 11.0834318,5.00395393 11.5481424,4.77090395 C12.0101746,4.52726078 12.4715372,4.28957628 12.9677197,4.17967203 C13.0942763,4.15186493 13.2476174,4.13465101 13.4217165,4.13465101 C14.3116308,4.12803027 15.6682645,4.59413024 16.7416524,5.59982037 C17.8190579,6.60749673 18.6567424,8.11503882 18.6607601,10.2972341 C18.6607601,11.3260968 18.4705903,12.5072365 18.0112365,13.8532326 C17.6074606,15.040993 16.8581648,16.5796526 15.9515103,17.7707234 C15.4995223,18.3665898 15.0080271,18.8750625 14.5238977,19.2166926 C14.0377595,19.5603089 13.5784057,19.7297998 13.1565502,19.7284757 C12.8592425,19.7271515 12.5626045,19.6516751 12.2257897,19.4484185 C11.9224555,19.2643619 11.5930064,19.0511742 11.2307464,18.8710901 C10.869156,18.6943164 10.46538,18.5407153 9.99732126,18.538067 C9.52859292,18.5407153 9.12481695,18.6943164 8.76322652,18.8710901 C8.40096648,19.0511742 8.07151742,19.2643619 7.76818323,19.4484185 C7.43270766,19.6510131 7.13740881,19.7264895 6.84010113,19.7278136 C6.42025446,19.7284757 5.9609007,19.5603089 5.47543207,19.2173547 C4.74957276,18.7075579 4.01299967,17.8190548 3.40231361,16.8312407 C2.78961872,15.8440886 2.29276669,14.7589496 1.98809327,13.8724328 C1.5287395,12.538354 1.33923933,11.3625109 1.33856972,10.3343103 C1.343257,8.10841808 2.2150917,6.55453082 3.3172729,5.51242663 L3.3172729,5.51242663 Z M0.720517933,14.2994704 C1.1745148,15.6123628 1.96130879,17.2311332 2.9797885,18.5718327 C3.49070238,19.2418514 4.05920289,19.8430145 4.69667342,20.2945488 C5.33213512,20.7434349 6.05397675,21.0506371 6.84010113,21.0519613 C7.38851328,21.0532854 7.94964805,20.8950498 8.47060612,20.5759302 C8.79135022,20.3799563 9.0940148,20.1872929 9.36185956,20.0562022 C9.62970432,19.9218013 9.85268509,19.8595663 9.99732126,19.8622146 C10.1412878,19.8595663 10.3642686,19.9218013 10.632783,20.0562022 C10.8999581,20.1872929 11.2032923,20.3799563 11.5233668,20.5759302 C12.0449945,20.8957118 12.6074685,21.0539475 13.1565502,21.0526233 C13.9440138,21.0519613 14.6678643,20.7434349 15.3039956,20.2932247 C16.2595318,19.6126128 17.0670837,18.5996398 17.7413829,17.5138388 C18.4130037,16.4273756 18.9413275,15.2667602 19.2801511,14.2769599 C19.7796816,12.8137767 19.9999839,11.4883049 19.9999839,10.2972341 C20.0046712,7.76612591 18.9861915,5.86067746 17.6583511,4.63451674 C16.326493,3.40703188 14.728799,2.81778618 13.4217165,2.81050337 C13.1619071,2.81050337 12.9114723,2.8350001 12.6730904,2.887966 C11.9552665,3.04951202 11.3800698,3.36201086 10.9207161,3.60101951 C10.8912532,3.61690928 10.8664775,3.62882661 10.8376842,3.64405431 C11.2669054,2.30401689 12.5177405,1.32679594 14.0149927,1.32414764 C14.3846185,1.32414764 14.6846046,1.02753857 14.6846046,0.66207382 C14.6846046,0.296609071 14.3846185,0 14.0149927,0 C11.7182239,0 9.81116915,1.63399819 9.40940201,3.78971055 C9.28686303,3.72946183 9.15695832,3.65994408 9.01031331,3.57056411 C8.57171751,3.3130174 8.03937605,2.96211827 7.34632773,2.77011686 C7.10593705,2.70390948 6.85349337,2.67610238 6.5910055,2.67610238 C5.33213512,2.68537142 3.74515491,3.29712763 2.39521731,4.55241959 C1.05264544,5.80704948 -0.00467175906,7.75156029 1.55242707e-05,10.3343103 C-0.000654087634,11.524719 0.220317841,12.8462183 0.720517933,14.2994704 L0.720517933,14.2994704 Z" id="Fill-102"></path>
            <path d="M12.5258028,6.84313246 L12.5258028,6.84313246 C12.8183224,6.68024876 13.0657399,6.62120342 13.291895,6.62052474 C13.4594172,6.62120342 13.6179191,6.65378016 13.7809311,6.720291 C14.1604335,6.87231579 14.5637756,7.23473203 14.9187939,7.75799592 C15.2989406,8.31655127 15.5173638,9.01423646 15.5540899,9.87752008 C15.5701978,10.2521526 15.8704492,10.5419498 16.2261119,10.5256615 C16.5817745,10.5093731 16.8575419,10.1924286 16.841434,9.81779605 C16.7982648,8.74479967 16.5121883,7.76681878 15.9651637,6.96597392 C15.5122093,6.30425888 14.951654,5.74570352 14.2474162,5.45454891 C13.9490977,5.33238613 13.6256509,5.26316056 13.291895,5.26316056 C12.8382962,5.26248188 12.3718112,5.39143147 11.9207897,5.64457989 C11.6070076,5.82035855 11.4871647,6.23096122 11.654687,6.56215808 C11.821565,6.89335494 12.2113764,7.01891112 12.5258028,6.84313246" id="Fill-103"></path>
        </g>
    </g>
</svg>