<svg id="Group_35" data-name="Group 35" xmlns="http://www.w3.org/2000/svg" viewBox="0 0 20 21.053">
  <defs>
    <style>
      .cls-1 {
        fill: #2A2C36;
      }
    </style>
  </defs>
  <path id="Fill_102" data-name="Fill 102" class="cls-1" d="M13.156,21.053h0a3.125,3.125,0,0,1-1.628-.477l-.141-.087c-.269-.165-.522-.322-.75-.433a1.547,1.547,0,0,0-.626-.194H9.988a1.547,1.547,0,0,0-.626.194c-.227.11-.478.265-.743.428l-.148.091a3.114,3.114,0,0,1-1.622.476H6.84A3.719,3.719,0,0,1,4.7,20.294,8.006,8.006,0,0,1,2.98,18.572,15.941,15.941,0,0,1,.721,14.3,12.215,12.215,0,0,1,0,10.335,7.774,7.774,0,0,1,2.395,4.552a6.569,6.569,0,0,1,4.2-1.877,2.81,2.81,0,0,1,.756.094,5.959,5.959,0,0,1,1.49.7l.173.1c.128.079.255.149.4.22A4.668,4.668,0,0,1,14.015,0a.667.667,0,0,1,.67.662.666.666,0,0,1-.67.662,3.332,3.332,0,0,0-3.177,2.32l.035-.018.048-.025.086-.045a6.734,6.734,0,0,1,1.667-.668,3.458,3.458,0,0,1,.749-.077,6.583,6.583,0,0,1,4.236,1.823A7.556,7.556,0,0,1,20,10.3a12.389,12.389,0,0,1-.72,3.98,16.509,16.509,0,0,1-1.538,3.237A9.567,9.567,0,0,1,15.3,20.293,3.721,3.721,0,0,1,13.156,21.053ZM10,18.538a2.834,2.834,0,0,1,1.234.333c.288.143.551.3.805.461l.189.116a1.764,1.764,0,0,0,.931.281,2.413,2.413,0,0,0,1.368-.512,6.851,6.851,0,0,0,1.427-1.446,14.818,14.818,0,0,0,2.059-3.918,11.08,11.08,0,0,0,.65-3.556,6.175,6.175,0,0,0-1.919-4.7,5.274,5.274,0,0,0-3.3-1.465h-.018a2.143,2.143,0,0,0-.454.045,5.814,5.814,0,0,0-1.42.591l-.172.088A3.043,3.043,0,0,1,10,5.3a3.239,3.239,0,0,1-1.637-.567l-.039-.023-.064-.038a5.3,5.3,0,0,0-1.27-.622A1.453,1.453,0,0,0,6.6,4H6.566A5.284,5.284,0,0,0,3.317,5.513a6.387,6.387,0,0,0-1.979,4.822,10.979,10.979,0,0,0,.65,3.538A15.351,15.351,0,0,0,3.4,16.831a8.307,8.307,0,0,0,2.074,2.387,2.4,2.4,0,0,0,1.361.51,1.763,1.763,0,0,0,.931-.28l.188-.115c.255-.157.519-.319.808-.462A2.834,2.834,0,0,1,10,18.538Z"/>
  <path id="Fill_103" data-name="Fill 103" class="cls-1" d="M.947,1.58h0a1.556,1.556,0,0,1,.766-.223,1.282,1.282,0,0,1,.489.1A2.74,2.74,0,0,1,3.34,2.495a3.981,3.981,0,0,1,.635,2.12.645.645,0,1,0,1.287-.06A5.385,5.385,0,0,0,4.386,1.7,4.011,4.011,0,0,0,2.668.191,2.521,2.521,0,0,0,1.713,0,2.8,2.8,0,0,0,.342.381.7.7,0,0,0,.076,1.3a.628.628,0,0,0,.871.281" transform="translate(11.579 5.263)"/>
</svg>
