<?xml version="1.0" encoding="UTF-8"?>
<svg width="87px" height="93px" viewBox="0 0 87 93" version="1.1" xmlns="http://www.w3.org/2000/svg" xmlns:xlink="http://www.w3.org/1999/xlink">
    <title>Group 10</title>
    <defs>
        <polygon id="path-1" points="0 0.0186424474 20.632569 0.0186424474 20.632569 19.7179111 0 19.7179111"></polygon>
        <polygon id="path-3" points="0.192005878 0.0937777778 20.8244441 0.0937777778 20.8244441 19.7929778 0.192005878 19.7929778"></polygon>
        <polygon id="path-5" points="0.0517641469 0.138706407 81.7619355 0.138706407 81.7619355 48 0.0517641469 48"></polygon>
    </defs>
    <g id="Page-1" stroke="none" stroke-width="1" fill="none" fill-rule="evenodd">
        <g id="Elements-1440px_check-out-fail" transform="translate(-675.000000, -415.000000)">
            <g id="Group-10" transform="translate(675.000000, 415.000000)">
                <g id="Group-3" transform="translate(0.000000, 7.000000)">
                    <mask id="mask-2" fill="white">
                        <use xlink:href="#path-1"></use>
                    </mask>
                    <g id="Clip-2"></g>
                    <path d="M19.5668812,13.5543556 L14.3041938,9.51257778 L18.7929437,4.60146667 C19.8018187,3.49791111 19.7388188,1.77213333 18.6520687,0.747688889 C17.5657562,-0.277644444 15.8665063,-0.213644444 14.8580688,0.890355556 L9.99963125,6.20635556 L4.30338125,1.83168889 C3.12038125,0.923688889 1.43731875,1.16102222 0.54306875,2.36235556 C-0.35074375,3.56368889 -0.11711875,5.27435556 1.06588125,6.1828 L6.32813125,10.2241333 L1.83894375,15.1352444 C0.83050625,16.2392444 0.89306875,17.9645778 1.97981875,18.9894667 C2.49694375,19.4770222 3.15231875,19.7179111 3.80594375,19.7179111 C4.52650625,19.7179111 5.24488125,19.4250222 5.77381875,18.8463556 L10.6326938,13.5299111 L16.3289438,17.9050222 C16.8136937,18.2770222 17.3820062,18.4570222 17.9459438,18.4570222 C18.7583812,18.4570222 19.5611938,18.0832444 20.0892563,17.3743556 C20.9835062,16.1730222 20.7494438,14.4623556 19.5668812,13.5543556" id="Fill-1" fill="#FFFFFF" mask="url(#mask-2)"></path>
                </g>
                <g id="Group-6" transform="translate(62.000000, 0.000000)">
                    <mask id="mask-4" fill="white">
                        <use xlink:href="#path-3"></use>
                    </mask>
                    <g id="Clip-5"></g>
                    <path d="M19.7589438,13.6289778 L14.4966938,9.58764444 L18.9845688,4.67608889 C19.9934438,3.57253333 19.9308813,1.8472 18.8441313,0.822311111 C17.7573813,-0.202577778 16.0590063,-0.138577778 15.0501313,0.965422222 L10.1916938,6.28142222 L4.49544375,1.90675556 C3.31288125,0.998311111 1.62938125,1.23564444 0.73513125,2.43742222 C-0.15868125,3.63875556 0.07494375,5.34897778 1.25750625,6.25742222 L6.51975625,10.2987556 L2.03100625,15.2103111 C1.02256875,16.3138667 1.08513125,18.0392 2.17231875,19.0640889 C2.68900625,19.5516444 3.34394375,19.7929778 3.99800625,19.7929778 C4.71856875,19.7929778 5.43738125,19.4996444 5.96631875,18.9209778 L10.8247563,13.6049778 L16.5210063,17.9800889 C17.0053188,18.3520889 17.5740688,18.5316444 18.1380063,18.5316444 C18.9504438,18.5316444 19.7532563,18.1583111 20.2813188,17.4489778 C21.1751313,16.2476444 20.9415063,14.5374222 19.7589438,13.6289778" id="Fill-4" fill="#FFFFFF" mask="url(#mask-4)"></path>
                </g>
                <g id="Group-9" transform="translate(5.000000, 45.000000)">
                    <mask id="mask-6" fill="white">
                        <use xlink:href="#path-5"></use>
                    </mask>
                    <g id="Clip-8"></g>
                    <path d="M28.1796527,14.4018936 C28.5341043,23.6870312 28.8136097,31.0213431 27.7520183,35.9486092 C26.7984376,40.3764991 24.9485882,42.2313248 21.1563086,42.5638018 C19.1552441,42.7390679 17.4314806,42.1670312 15.8840613,40.8146642 C10.8979323,36.4550312 9.03706129,25.2670679 8.60722258,19.9491963 C10.3578785,18.4198018 12.6785667,16.5715817 15.4965452,14.7176367 L17.6541151,33.6895266 C17.8106204,35.0691963 18.9815452,36.0868844 20.3389538,36.0868844 C20.4407925,36.0868844 20.5435129,36.0811596 20.6475559,36.0697101 C22.1319323,35.9010495 23.1983731,34.5623339 23.0299645,33.0796183 L20.6687172,12.3180771 C20.6457925,12.1146275 20.5986204,11.919545 20.533814,11.7337101 C22.1614699,10.8727927 23.8975774,10.0515083 25.7350828,9.30596697 C26.4770505,9.0043156 27.2203409,8.72248073 27.9636312,8.45693945 C28.0310828,10.5028844 28.106029,12.473967 28.1796527,14.4018936 M80.6045452,12.5334165 C70.2381581,5.3109578 59.5777172,1.20189358 48.9190398,0.320278899 C40.3473946,-0.38827156 31.7911796,0.97906789 23.4889,4.38442569 C9.44353441,10.1457468 1.06234086,19.6845358 0.712297849,20.0874716 C-0.265089247,21.2143706 -0.143852688,22.9177101 0.983426882,23.8957651 C1.49482473,24.339655 2.12657742,24.5576367 2.75568495,24.5576367 C3.07134086,24.5576367 3.38523333,24.4995083 3.68413656,24.391178 C3.88296452,25.7607193 4.14880323,27.3064073 4.5036957,28.9348844 C6.13046989,36.3999853 8.75843763,41.7632147 12.314857,44.8757284 C14.6875667,46.9520587 17.4151688,48.0001321 20.4394699,48.0001321 C20.8313946,48.0001321 21.2281688,47.9825174 21.6293516,47.9472881 C27.8512118,47.4021138 31.5839753,43.8487927 33.0414591,37.0856367 C34.2463301,31.4942972 33.9549215,23.8605358 33.5859215,14.1962422 C33.495986,11.8323523 33.4034054,9.40328807 33.3262548,6.8562055 C47.9729538,3.33459083 62.8004054,6.71793028 77.5092656,16.9657101 C78.7344161,17.8195817 80.4211473,17.5196917 81.2755344,16.2954716 C82.1299215,15.0716917 81.8296957,13.3868477 80.6045452,12.5334165" id="Fill-7" fill="#FFFFFF" mask="url(#mask-6)"></path>
                </g>
            </g>
        </g>
    </g>
</svg>