<svg xmlns="http://www.w3.org/2000/svg" viewBox="0 0 35.005 35">
  <defs>
    <style>
      .cls-1 {
        fill: #fff;
      }
    </style>
  </defs>
  <path id="Fill_1" data-name="Fill 1" class="cls-1" d="M27.521,35a26.5,26.5,0,0,1-14.968-4.83,29.8,29.8,0,0,1-5.943-5.38,28.424,28.424,0,0,1-4.257-6.773A27.287,27.287,0,0,1,.046,5.4a3.661,3.661,0,0,1,3.506-3.63c.364,0,.787,0,1.415,0s1.052,0,1.415,0a3.62,3.62,0,0,1,3.36,2.563c.509,1.85,1.017,3.728,1.507,5.584a3.212,3.212,0,0,1-1.187,3.335,5.169,5.169,0,0,0-1.227,1.219C7.719,16.292,8.752,18.8,11.9,21.93a25.909,25.909,0,0,0,6.972,4.847,2.31,2.31,0,0,0,1,.225,3.238,3.238,0,0,0,2.7-1.7,1.686,1.686,0,0,1,1.442-.806,1.538,1.538,0,0,1,.352.039c1.959.487,3.991,1.029,5.784,1.507l.011,0,.076.02.105.028a3.606,3.606,0,0,1,2.6,3.35l0,.32v.016c.013,1.424.026,2.9-.871,3.926a3.6,3.6,0,0,1-2.242,1.184c-.618.069-.929.079-1.323.092H28.5l-.136,0C28.063,34.995,27.78,35,27.521,35ZM4.059,3.084H3.6c-1.317.007-2.1,1.339-2.16,2.589-.04.794-.042,1.608-.005,2.421A27.574,27.574,0,0,0,19.1,32.218a24.243,24.243,0,0,0,8.3,1.473c.684,0,1.368-.029,2.034-.086a2.286,2.286,0,0,0,2.094-2.117c0-.16.013-.327.021-.483l.006-.118a5.285,5.285,0,0,0-.2-2.292,2.179,2.179,0,0,0-1.407-1.243c-1.347-.358-2.722-.714-3.9-1.02l-.022-.006-.243-.063-.007,0c-.67-.173-1.225-.316-1.744-.453a.229.229,0,0,0-.067-.009c-.2,0-.321.254-.462.548l0,.008a2.657,2.657,0,0,1-.362.608,4.09,4.09,0,0,1-3.083,1.293,5.2,5.2,0,0,1-2.338-.566c-4.677-2.371-8.21-5.548-10.216-9.185a4.729,4.729,0,0,1,1.4-6.054c.013-.01,1.286-1.026.982-2.223q-.089-.335-.177-.671L9.67,9.418V9.412l-.045-.17L9.6,9.159c-.369-1.4-.787-2.986-1.226-4.512A2.2,2.2,0,0,0,6.365,3.085l-.922,0-.914,0H4.059ZM30.422,24.013a.641.641,0,0,1-.6-.36.835.835,0,0,1,.284-.88A12.991,12.991,0,0,0,31.315,6.66,12.945,12.945,0,0,0,20.97,1.328a11.6,11.6,0,0,0-2.079.186A12.6,12.6,0,0,0,12.308,5a1.045,1.045,0,0,1-.54.208l-.051,0a.61.61,0,0,1-.533-.405.86.86,0,0,1,.287-.884A14.1,14.1,0,0,1,20.953,0h.25A14.2,14.2,0,0,1,33.621,7.874a14.089,14.089,0,0,1-2.534,15.837A.93.93,0,0,1,30.422,24.013Zm-2.4-2.384a.657.657,0,0,1-.171-.023.618.618,0,0,1-.456-.415.9.9,0,0,1,.305-.832A9.5,9.5,0,0,0,28.546,8.63a9.3,9.3,0,0,0-7.588-3.749A8.748,8.748,0,0,0,14.7,7.421a.977.977,0,0,1-.507.21H14.19a.62.62,0,0,1-.594-.383.891.891,0,0,1,.319-.958A10.619,10.619,0,0,1,21.056,3.42h.127a10.736,10.736,0,0,1,9.392,5.951,10.676,10.676,0,0,1-1.729,11.757A1.218,1.218,0,0,1,28.023,21.629Zm-2.514-2.544h0a.583.583,0,0,1-.075,0,.6.6,0,0,1-.519-.373.964.964,0,0,1,.3-.934,5.742,5.742,0,0,0,1.32-4.6A5.591,5.591,0,0,0,24.088,9.21a5.316,5.316,0,0,0-2.9-.824,5.6,5.6,0,0,0-3.96,1.582,1.2,1.2,0,0,1-.581.185.6.6,0,0,1-.346-.1.46.46,0,0,1-.222-.4c.005-.478.666-1.123,1.278-1.52a7.077,7.077,0,0,1,3.81-1.112H21.2a7.13,7.13,0,0,1,6.148,3.89,7.056,7.056,0,0,1-1.274,7.935A.958.958,0,0,1,25.509,19.085Z"/>
</svg>
