<?xml version="1.0" encoding="UTF-8"?>
<svg width="21px" height="23px" viewBox="0 0 21 23" version="1.1" xmlns="http://www.w3.org/2000/svg" xmlns:xlink="http://www.w3.org/1999/xlink">
    <title>Shape</title>
    <g id="Page-1" stroke="none" stroke-width="1" fill="none" fill-rule="evenodd">
        <path d="M3.675,17.75 C3.96494949,17.75 4.2,17.9850505 4.2,18.275 C4.2,18.5649495 3.96494949,18.8 3.675,18.8 L2.625,18.8 C1.17525254,18.8 0,17.6247475 0,16.175 L0,4.625 C0,3.17525254 1.17525254,2 2.625,2 L18.375,2 C19.8247475,2 21,3.17525254 21,4.625 L21,16.175 C21,17.6247475 19.8247475,18.8 18.375,18.8 L17.325,18.8 C17.0350505,18.8 16.8,18.5649495 16.8,18.275 C16.8,17.9850505 17.0350505,17.75 17.325,17.75 L18.375,17.75 C19.2448485,17.75 19.95,17.0448485 19.95,16.175 L19.95,4.625 C19.95,3.75515152 19.2448485,3.05 18.375,3.05 L2.625,3.05 C1.75515152,3.05 1.05,3.75515152 1.05,4.625 L1.05,16.175 C1.05,17.0448485 1.75515152,17.75 2.625,17.75 L3.675,17.75 Z M15.6185325,20.0274987 C15.9178345,20.3664472 15.6771811,20.9 15.225,20.9 L5.775,20.9 C5.32281882,20.9 5.08216548,20.3664472 5.38146748,20.0274987 L10.1064675,14.6766088 C10.3154499,14.439944 10.6845501,14.439944 10.8935325,14.6766088 L15.6185325,20.0274987 Z M10.5,15.8172727 L6.93897796,19.85 L14.0610221,19.85 L10.5,15.8172727 Z" id="Shape" stroke="#999999" stroke-width="0.3" fill="#999999" transform="translate(10.500000, 11.450000) scale(-1, 1) rotate(-90.000000) translate(-10.500000, -11.450000) "></path>
    </g>
</svg>