<svg xmlns="http://www.w3.org/2000/svg" viewBox="0 0 19.201 21.3">
  <defs>
    <style>
      .cls-1 {
        fill: #999;
        stroke: #999;
        stroke-miterlimit: 10;
        stroke-width: 0.3px;
      }
    </style>
  </defs>
  <path id="Shape" class="cls-1" d="M-15.225,18.9h9.45a.518.518,0,0,0,.479-.31.516.516,0,0,0-.085-.562l-4.725-5.351A.528.528,0,0,0-10.5,12.5a.527.527,0,0,0-.393.177l-4.725,5.351a.518.518,0,0,0-.085.563A.518.518,0,0,0-15.225,18.9Zm4.725-5.082,3.561,4.032h-7.122ZM-18.375,16.8h1.05a.526.526,0,0,0,.525-.526.525.525,0,0,0-.525-.525h-1.05a1.577,1.577,0,0,1-1.575-1.575V2.625A1.577,1.577,0,0,1-18.375,1.05h15.75A1.577,1.577,0,0,1-1.05,2.625v11.55A1.577,1.577,0,0,1-2.625,15.75H-3.675a.526.526,0,0,0-.526.525.526.526,0,0,0,.526.526h1.049A2.628,2.628,0,0,0,0,14.175V2.625A2.628,2.628,0,0,0-2.625,0h-15.75A2.628,2.628,0,0,0-21,2.625v11.55A2.628,2.628,0,0,0-18.375,16.8Z" transform="translate(19.052 21.149) rotate(90)"/>
</svg>
