<svg xmlns="http://www.w3.org/2000/svg" viewBox="0 0 21.471 18.875">
  <defs>
    <style>
      .cls-1 {
        fill: none;
        stroke: #3e4b5c;
        stroke-linecap: round;
        stroke-linejoin: round;
        stroke-miterlimit: 10;
        stroke-width: 0.9px;
      }
    </style>
  </defs>
  <g id="Group_29" data-name="Group 29" transform="translate(0.449 0.45)">
    <path id="Stroke_1" data-name="Stroke 1" class="cls-1" d="M0,1,1.1,0,2.2,1"/>
    <path id="Stroke_3" data-name="Stroke 3" class="cls-1" d="M0,0V16.777H19.173" transform="translate(0.999 0.2)"/>
    <path id="Stroke_5" data-name="Stroke 5" class="cls-1" d="M0,0,1,1.1,0,2.2" transform="translate(19.573 15.778)"/>
    <path id="Stroke_7" data-name="Stroke 7" class="cls-1" d="M2.6,1.3A1.3,1.3,0,1,1,1.3,0,1.3,1.3,0,0,1,2.6,1.3Z" transform="translate(2.397 8.988)"/>
    <path id="Stroke_9" data-name="Stroke 9" class="cls-1" d="M2.6,1.3A1.3,1.3,0,1,1,1.3,0,1.3,1.3,0,0,1,2.6,1.3Z" transform="translate(6.591 4.993)"/>
    <path id="Stroke_11" data-name="Stroke 11" class="cls-1" d="M2.6,1.3A1.3,1.3,0,1,1,1.3,0,1.3,1.3,0,0,1,2.6,1.3Z" transform="translate(11.584 8.988)"/>
    <path id="Stroke_13" data-name="Stroke 13" class="cls-1" d="M2.6,1.3A1.3,1.3,0,1,1,1.3,0,1.3,1.3,0,0,1,2.6,1.3Z" transform="translate(16.976 2.397)"/>
    <path id="Stroke_15" data-name="Stroke 15" class="cls-1" d="M0,1.8,2.2,0" transform="translate(4.793 7.39)"/>
    <path id="Stroke_17" data-name="Stroke 17" class="cls-1" d="M0,0,2.8,2.2" transform="translate(8.988 7.19)"/>
    <path id="Stroke_19" data-name="Stroke 19" class="cls-1" d="M0,4.394,3.6,0" transform="translate(13.781 4.793)"/>
    <path id="Stroke_21" data-name="Stroke 21" class="cls-1" d="M.1,2.4V0" transform="translate(3.595 13.182)"/>
    <path id="Stroke_23" data-name="Stroke 23" class="cls-1" d="M.1,6.391V0" transform="translate(7.789 9.187)"/>
    <path id="Stroke_25" data-name="Stroke 25" class="cls-1" d="M.05,2.4V0" transform="translate(12.982 13.182)"/>
    <path id="Stroke_27" data-name="Stroke 27" class="cls-1" d="M.1,8.988V0" transform="translate(18.175 6.591)"/>
  </g>
</svg>
