<?xml version="1.0" encoding="utf-8"?>
<svg width="48px" height="65px" viewBox="0 0 48 65" version="1.1" xmlns:xlink="http://www.w3.org/1999/xlink" xmlns="http://www.w3.org/2000/svg">
  <g id="Group-14" transform="translate(0.60009766 0.5999756)">
    <g id="Group-9">
      <g id="Group-4" transform="translate(0.49658203 0)" />
      <path d="M22.5 45.1691C34.9264 45.1691 45 35.0955 45 22.6691C45 10.2427 34.9264 0.169067 22.5 0.169067C10.0736 0.169067 0 10.2427 0 22.6691C0 35.0955 10.0736 45.1691 22.5 45.1691Z" id="Background" fill="none" fill-rule="evenodd" stroke="#FFFFFF" stroke-width="1" />
    </g>
    <g id="Chat" fill="#FFFFFF" transform="translate(9 48.169067)">
      <path d="M14.922 6.03Q14.22 5.34 13.032 5.34Q12.24 5.34 11.628 5.64Q11.016 5.94 10.668 6.492L10.668 2.796L9.816 2.796L9.816 11.7L10.668 11.7L10.668 8.388Q10.668 7.32 11.262 6.714Q11.856 6.108 12.876 6.108Q13.788 6.108 14.28 6.624Q14.772 7.14 14.772 8.124L14.772 11.7L15.624 11.7L15.624 8.04Q15.624 6.72 14.922 6.03ZM2.766 11.22Q3.768 11.772 5.016 11.772Q5.952 11.772 6.75 11.454Q7.548 11.136 8.1 10.536L7.536 9.972Q6.564 10.98 5.052 10.98Q4.056 10.98 3.24 10.524Q2.424 10.068 1.962 9.276Q1.5 8.484 1.5 7.5Q1.5 6.516 1.962 5.724Q2.424 4.932 3.24 4.476Q4.056 4.02 5.052 4.02Q6.552 4.02 7.536 5.016L8.1 4.452Q7.548 3.852 6.756 3.54Q5.964 3.228 5.028 3.228Q3.78 3.228 2.772 3.78Q1.764 4.332 1.194 5.31Q0.624 6.288 0.624 7.5Q0.624 8.712 1.194 9.69Q1.764 10.668 2.766 11.22ZM27.75 11.646Q28.104 11.532 28.344 11.316L28.044 10.704Q27.864 10.86 27.618 10.944Q27.372 11.028 27.108 11.028Q26.58 11.028 26.298 10.734Q26.016 10.44 26.016 9.876L26.016 6.108L27.936 6.108L27.936 5.388L26.016 5.388L26.016 4.008L25.164 4.008L25.164 5.388L24.036 5.388L24.036 6.108L25.164 6.108L25.164 9.924Q25.164 10.8 25.644 11.28Q26.124 11.76 27.012 11.76Q27.396 11.76 27.75 11.646ZM20.148 5.34Q21.384 5.34 22.044 5.958Q22.704 6.576 22.704 7.788L22.704 11.7L21.888 11.7L21.888 10.716Q21.6 11.208 21.042 11.484Q20.484 11.76 19.716 11.76Q18.66 11.76 18.036 11.256Q17.412 10.752 17.412 9.924Q17.412 9.12 17.994 8.628Q18.576 8.136 19.848 8.136L21.852 8.136L21.852 7.752Q21.852 6.936 21.396 6.51Q20.94 6.084 20.064 6.084Q19.464 6.084 18.912 6.282Q18.36 6.48 17.964 6.828L17.58 6.192Q18.06 5.784 18.732 5.562Q19.404 5.34 20.148 5.34ZM19.848 11.088Q20.568 11.088 21.084 10.758Q21.6 10.428 21.852 9.804L21.852 8.772L19.872 8.772Q18.252 8.772 18.252 9.9Q18.252 10.452 18.672 10.77Q19.092 11.088 19.848 11.088Z" />
    </g>
    <g id="Group-9" transform="translate(12 11.169067)">
      <path d="M11 0C4.92465 0 0 4.92465 0 11C0 13.2397 0.671 15.3216 1.82026 17.0591L0 22L4.84287 20.1166C6.6 21.3056 8.7187 22 11 22C17.0753 22 22 17.0753 22 11C22 4.92465 17.0753 0 11 0Z" id="Stroke-1" fill="none" fill-rule="evenodd" stroke="#FFFFFF" stroke-width="1.2" stroke-linecap="round" stroke-linejoin="round" />
      <path d="M7 13C7 14.6567 8.7908 16 11 16C13.2092 16 15 14.6567 15 13" id="Stroke-3" fill="none" fill-rule="evenodd" stroke="#FFFFFF" stroke-width="1.2" stroke-linecap="round" stroke-linejoin="round" />
      <path d="M9 7.5C9 8.3285 8.552 9 8 9C7.448 9 7 8.3285 7 7.5C7 6.6715 7.448 6 8 6C8.552 6 9 6.6715 9 7.5" id="Fill-5" fill="#FFFFFF" fill-rule="evenodd" stroke="none" />
      <path d="M15 7.5C15 8.3285 14.552 9 14 9C13.448 9 13 8.3285 13 7.5C13 6.6715 13.448 6 14 6C14.552 6 15 6.6715 15 7.5" id="Fill-7" fill="#FFFFFF" fill-rule="evenodd" stroke="none" />
    </g>
  </g>
</svg>