<svg xmlns="http://www.w3.org/2000/svg" viewBox="0 0 13.709 12.552">
  <defs>
    <style>
      .cls-1 {
        fill: #fff;
      }
    </style>
  </defs>
  <g id="passage-of-time" transform="translate(0 -0.224)">
    <path id="Path" class="cls-1" d="M13.681,5.3a.289.289,0,0,0-.261-.164h-.854A6.341,6.341,0,0,0,0,6.276a6.349,6.349,0,0,0,11.825,3.14.567.567,0,0,0-.211-.78.578.578,0,0,0-.787.208A5.195,5.195,0,0,1,1.152,6.277,5.187,5.187,0,0,1,11.388,5.136h-.847a.289.289,0,0,0-.261.164.282.282,0,0,0,.04.3l1.44,1.712a.29.29,0,0,0,.442,0L13.642,5.6A.283.283,0,0,0,13.681,5.3Z" transform="translate(0 0.224)"/>
    <path id="Shape" class="cls-1" d="M3.725,6.975A.58.58,0,0,1,3.437,6.9l-2-1.145a1,1,0,0,1-1-1.72V.571a.576.576,0,0,1,1.153,0V4.033a1,1,0,0,1,.422.73L4.013,5.91a.567.567,0,0,1,.212.779A.58.58,0,0,1,3.725,6.975ZM1.008,4.423a.428.428,0,1,0,.432.427A.43.43,0,0,0,1.008,4.423Z" transform="translate(5.329 1.65)"/>
  </g>
</svg>
