<svg xmlns="http://www.w3.org/2000/svg" viewBox="0 0 14.4 14.4">
  <defs>
    <style>
      .cls-1 {
        fill: #fff;
        stroke: #fff;
        stroke-miterlimit: 10;
        stroke-width: 0.4px;
      }
    </style>
  </defs>
  <g id="user-circle" transform="translate(0.199 0.2)">
    <path id="Shape" class="cls-1" d="M7,14a7,7,0,1,1,7-7A7.008,7.008,0,0,1,7,14ZM5.574,9.5,2.716,10.8a1.044,1.044,0,0,0-.44.373,6.3,6.3,0,0,0,9.447,0,1.048,1.048,0,0,0-.438-.373L8.428,9.5a3.508,3.508,0,0,1-2.854,0ZM7,.7A6.3,6.3,0,0,0,1.83,10.6a1.782,1.782,0,0,1,.6-.444l2.42-1.1a3.5,3.5,0,1,1,4.308,0l2.42,1.1a1.806,1.806,0,0,1,.6.443A6.3,6.3,0,0,0,7,.7ZM7,3.5A2.8,2.8,0,1,0,9.8,6.3,2.8,2.8,0,0,0,7,3.5Z" transform="translate(0 0)"/>
  </g>
</svg>
