<svg xmlns="http://www.w3.org/2000/svg" viewBox="0 0 25 25">
  <defs>
    <style>
      .cls-1 {
        fill: #f5f6fa;
      }
    </style>
  </defs>
  <path id="Vector" class="cls-1" d="M21.875,25H3.125A3.128,3.128,0,0,1,0,21.875V6.25A3.128,3.128,0,0,1,3.125,3.125H4.394a9.375,9.375,0,1,0,16.213,0h1.269A3.128,3.128,0,0,1,25,6.25V21.875A3.128,3.128,0,0,1,21.875,25ZM12.5,15.625a7.812,7.812,0,1,1,7.812-7.812A7.821,7.821,0,0,1,12.5,15.625ZM14.843,3.9a.781.781,0,0,0-.719.475L12.486,8.206a1.975,1.975,0,1,0,1.433.624L15.563,5a.783.783,0,0,0-.411-1.026A.772.772,0,0,0,14.843,3.9Z" transform="translate(0 0)"/>
</svg>
