<svg xmlns="http://www.w3.org/2000/svg" xmlns:xlink="http://www.w3.org/1999/xlink" viewBox="0 0 220 254">
  <defs>
    <style>
      .cls-1 {
        fill: none;
      }

      .cls-2 {
        opacity: 0.635;
      }

      .cls-3 {
        fill: #877d3f;
      }

      .cls-4 {
        fill: #3e4f2b;
      }

      .cls-5 {
        clip-path: url(#clip-path);
      }

      .cls-6 {
        fill: #50603b;
      }

      .cls-7 {
        fill: #a44936;
      }

      .cls-8 {
        fill: #b9886a;
      }

      .cls-9 {
        fill: #818e8e;
      }

      .cls-10 {
        fill: #f17c5b;
      }

      .cls-11 {
        fill: #f35345;
      }

      .cls-12 {
        fill: #536770;
      }

      .cls-13 {
        fill: #2f3b49;
      }

      .cls-14 {
        fill: #293440;
      }

      .cls-15 {
        fill: #fff;
      }
    </style>
    <clipPath id="clip-path">
      <path id="Clip_12" data-name="Clip 12" class="cls-1" d="M0,0H29.83V24.7H0Z" transform="translate(0 0.146)"/>
    </clipPath>
  </defs>
  <g id="Group_68" data-name="Group 68" class="cls-2">
    <path id="Fill_5" data-name="Fill 5" class="cls-3" d="M.228,15.361a23.353,23.353,0,0,1,2.538-9.85c1.7-2.97,4.752-5.369,8.2-5.5,3.13-.123,6.072,1.607,8.273,3.817,5.394,5.419,7.124,13.556,6.707,21.159s-2.7,14.963-4.252,22.42A117.181,117.181,0,0,0,19.26,73.325c.031,1.7,0,3.643-1.3,4.76A4.719,4.719,0,0,1,14.9,79a12.144,12.144,0,0,1-5.89-1.464c-2.077-1.121-2.14-1.764-2.234-3.923A122.977,122.977,0,0,0,5.091,59.431C3.571,50.026,1.516,40.7.544,31.211a87.214,87.214,0,0,1-.316-15.85" transform="translate(24 110)"/>
    <path id="Fill_7" data-name="Fill 7" class="cls-4" d="M26.291,29.22c-1.073-5.738-2.422-11.5-5.1-16.662S14.375,2.835,9.045.745C7.085-.024,4.777-.415,2.961.662,1.124,1.753.313,4.049.087,6.211c-.55,5.278,1.57,10.523,4.539,14.875S11.4,29.11,14.813,33.109s6.512,8.5,7.638,13.681c.507,2.334.832,5.607,3.649,6.142,2.714.515,3.022-1.972,2.868-4.082a177.57,177.57,0,0,0-2.677-19.63" transform="translate(5 133)"/>
    <path id="Fill_9" data-name="Fill 9" class="cls-4" d="M2.709,29.22c1.073-5.738,2.423-11.5,5.1-16.662S14.625,2.835,19.955.745c1.959-.769,4.268-1.16,6.083-.083,1.837,1.091,2.649,3.387,2.874,5.549.55,5.278-1.57,10.523-4.539,14.875S17.6,29.11,14.187,33.109s-6.513,8.5-7.638,13.681C6.043,49.123,5.717,52.4,2.9,52.931.187,53.446-.122,50.959.032,48.849A177.64,177.64,0,0,1,2.709,29.22" transform="translate(41 133)"/>
    <g id="Group_13" data-name="Group 13" transform="translate(0 161)">
      <path id="Clip_12-2" data-name="Clip 12" class="cls-1" d="M0,0H29.83V24.7H0Z" transform="translate(0 0.146)"/>
      <g id="Group_13-2" data-name="Group 13" class="cls-5">
        <path id="Fill_11" data-name="Fill 11" class="cls-6" d="M21.882,7.916C17.808,3.453,12.143.144,6.082,0A6.59,6.59,0,0,0,1.191,1.492C-.413,3.1-.3,5.873.94,7.779a11.383,11.383,0,0,0,5.432,3.959,48.743,48.743,0,0,1,6.292,2.65c3.029,1.779,5.213,4.657,7.851,6.971,1.835,1.609,7.105,5.377,8.955,1.937,1.52-2.827-2.181-7.759-3.62-10.077a36,36,0,0,0-3.968-5.3" transform="translate(0 0.146)"/>
      </g>
    </g>
    <path id="Fill_14" data-name="Fill 14" class="cls-6" d="M7.727,8.012C11.688,3.5,17.195.145,23.088,0A6.237,6.237,0,0,1,27.842,1.51c1.56,1.631,1.445,4.435.243,6.364A11.1,11.1,0,0,1,22.8,11.881a46.383,46.383,0,0,0-6.117,2.682c-2.945,1.8-5.068,4.714-7.633,7.056C7.271,23.248,2.148,27.062.35,23.58c-1.478-2.862,2.12-7.854,3.519-10.2A36.387,36.387,0,0,1,7.727,8.012" transform="translate(43 160)"/>
    <path id="Fill_16" data-name="Fill 16" class="cls-7" d="M0,0H50L47.855,45H2.145Z" transform="translate(12 195)"/>
    <path id="Fill_18" data-name="Fill 18" class="cls-7" d="M51,0l-.3,7H.3L0,0Z" transform="translate(12 183)"/>
    <path id="Fill_20" data-name="Fill 20" class="cls-8" d="M50,0l-.268,6H.268L0,0Z" transform="translate(12 190)"/>
    <path id="Fill_22" data-name="Fill 22" class="cls-9" d="M3.579,14A3.69,3.69,0,0,1,0,10.209V3.791A3.689,3.689,0,0,1,3.579,0H214.421A3.689,3.689,0,0,1,218,3.791v6.418A3.69,3.69,0,0,1,214.421,14Z" transform="translate(2 240)"/>
    <path id="Fill_24" data-name="Fill 24" class="cls-10" d="M11.358,86A357.833,357.833,0,0,0,24.951,30.591c1.566-1.67,2.2-3.962,3-6.1s1.973-4.349,4.071-5.292c.45-.2,1.025-.477.979-.963-.049-.512-.735-.657-1.256-.63a12.214,12.214,0,0,0-5.716,1.566c-.395-5.45.813-10.875,2.013-16.209a17.5,17.5,0,0,0-4.67,8.218,19.624,19.624,0,0,1-.476-7.5,9.581,9.581,0,0,0,.152-1.952A2.453,2.453,0,0,0,22.242,0c-.863,3.922-1.946,7.848-3.059,11.708A18.628,18.628,0,0,1,18.6,6.029,8.343,8.343,0,0,0,18.575,4,2.2,2.2,0,0,0,17.444,2.38a84.1,84.1,0,0,1-1.3,10.825,5.093,5.093,0,0,1-2.195-2.892,9.315,9.315,0,0,0-1.7-3.267c-.177,4.47,1.023,8.883,2.526,13.1,1.032,2.9,2.1,4.776,2.092,8.813A143.08,143.08,0,0,0,0,83.862a10.909,10.909,0,0,0,5.881,2.056c2.007.177,3.464,0,5.477.08" transform="translate(168)"/>
    <path id="Fill_26" data-name="Fill 26" class="cls-10" d="M4.458,18.961c2.822,4.442,6.436,8.3,9.567,12.526A69.085,69.085,0,0,1,22.91,47.6a5.5,5.5,0,0,0,2.013,3.023,5.135,5.135,0,0,0,3.639.086l8.607-1.93c.31-.069.665-.174.789-.472.159-.382-.166-.779-.461-1.067C31.17,41.064,27.019,32.953,23.663,24.717S17.623,7.945,13.645,0Q10.411,1.116,7.158,2.178C5.36,2.765,3.433,3.2,1.7,3.95-1.413,5.3.54,10.478,1.391,12.828a31.494,31.494,0,0,0,3.068,6.133" transform="translate(138 199)"/>
    <path id="Fill_28" data-name="Fill 28" class="cls-10" d="M29.664,68.555a5.332,5.332,0,0,0,2.82,1.526,3.013,3.013,0,0,1-2.089.692,8.647,8.647,0,0,1-2.209-.243A2.494,2.494,0,0,0,29.6,71.9a.727.727,0,0,1,.246.126.2.2,0,0,1,.04.247.275.275,0,0,1-.2.081,11.335,11.335,0,0,1-5.53-.653q.816,1.061,1.631,2.128a8.97,8.97,0,0,1-5.493-.749c-1.726-.734-3.315-1.751-5.02-2.534s-3.689-1.562-5.5-1.071q-3.94,1.065-7.876,2.133a1.8,1.8,0,0,1-1.53-.051,1.193,1.193,0,0,1-.117-1.595A4.785,4.785,0,0,1,1.6,68.829c3.216-2.23,4.651-6.292,4.722-10.15s-1.011-7.632-1.874-11.4A102.513,102.513,0,0,1,3.558,6.1Q4.042,3.427,4.676.782C6.8.433,9,.192,11.143.039A5.687,5.687,0,0,1,13.41.2c.719.25,1.462.571,1.41,1.315q-.106,1.53-.212,3.06c-1.213,17.538-2.292,35.043-2.51,52.62,5.926,5.2,13.5,8.168,20.9,11.032a4.014,4.014,0,0,1-3.336.328" transform="translate(163 180)"/>
    <path id="Fill_30" data-name="Fill 30" class="cls-11" d="M11,1.489,10.79,4.5c-.36.08-.732.136-1.1.183-2.283.293-4.6.34-6.873.681A19.105,19.105,0,0,0,0,6Q.472,3.371,1.092.769C3.165.426,5.31.189,7.406.039A5.509,5.509,0,0,1,9.621.2c.7.246,1.428.562,1.377,1.294" transform="translate(167 179)"/>
    <path id="Fill_32" data-name="Fill 32" class="cls-10" d="M16.3,40.431c2.6-5.534,6.81-10.1,10.821-14.7S35.087,16.258,37,10.446C34.612,6.955,32.387,3.491,30,0c-5.146,2.7-8.929,7.513-11.824,12.578S13.269,23.159,10.97,28.526,6.022,39.21,2.087,43.5a8.832,8.832,0,0,0-1.856,2.49,2.553,2.553,0,0,0,.482,2.884c3.2,2.661,7.646,2.216,11.775,1.831s8.193-1.364,12.333-1.6c1.974-.111,4.032.39,5.831-.438.666-.307.756-1.18.928-1.9A61.3,61.3,0,0,1,16.3,40.431" transform="translate(8 194)"/>
    <path id="Fill_34" data-name="Fill 34" class="cls-11" d="M2.124.24A27.359,27.359,0,0,0,.023,5.4a.472.472,0,0,0,.909.259A26.116,26.116,0,0,1,2.938.731C3.23.182,2.416-.309,2.124.24" transform="translate(23 231)"/>
    <path id="Fill_36" data-name="Fill 36" class="cls-12" d="M24.5,68.284A334.761,334.761,0,0,1,59.528,71.8a168.891,168.891,0,0,1-.046,25.526,18.78,18.78,0,0,0,13.576,2.257c1.5-7.821,3.011-15.658,3.752-23.588s-.9-15.535-1.44-23.481c-.3-4.439-2.342-8.839-1.577-13.222A145.764,145.764,0,0,0,75.338,1.851,19.6,19.6,0,0,0,60.843.995c-1.941,6.679-3.892,13.28-5.833,19.96C48.652,21.6,0,33.714,0,33.714A105.318,105.318,0,0,0,20.143,65.451c1.164,1.253,2.649,2.77,4.358,2.833" transform="translate(106 83)"/>
    <path id="Fill_38" data-name="Fill 38" class="cls-13" d="M12,13.014a9.939,9.939,0,0,1-1.9,2.221,3.044,3.044,0,0,1-2.656.674,4.351,4.351,0,0,1-1.879-1.4A26.241,26.241,0,0,1,.328,5.571,3.851,3.851,0,0,1,.04,3.612C.361,1.952,2.419,1.443,3.25,0A38.494,38.494,0,0,1,12,13.014" transform="translate(39 191)"/>
    <path id="Fill_40" data-name="Fill 40" class="cls-14" d="M57,0c-9.09,2.5-16.131,9.876-21.17,17.927s-8.533,17-13.447,25.13C16.593,52.64,8.927,60.919.806,68.588a2.605,2.605,0,0,0-.8,2.132A18.917,18.917,0,0,0,8.393,84.511a2.963,2.963,0,0,0,2.3.412c4.892-1.14,8.505-5.749,12.763-8.445,4.966-3.145,10.184-5.9,14.9-9.416C48.484,59.52,55.837,48.865,63,38.409,60.05,25.913,58.431,12.766,57,0" transform="translate(41 120)"/>
    <path id="Fill_42" data-name="Fill 42" class="cls-14" d="M.885,8.1a10.538,10.538,0,0,0,6.943.563,18.842,18.842,0,0,0,6.4-3.091,4.26,4.26,0,0,0,1.545-1.612c.567-1.254-.026-2.718-.613-3.963.194.411-6.681,2.79-7.312,2.949a28.7,28.7,0,0,1-3.93.706q-.962.1-1.93.143c-.42.017-1.526-.19-1.844.137-.4.416.17,1.309.306,1.78A12.187,12.187,0,0,1,.885,8.1" transform="translate(135 195)"/>
    <path id="Fill_44" data-name="Fill 44" class="cls-14" d="M17.583,4.639a1.984,1.984,0,0,1-.059-1.1.681.681,0,0,1,.864-.466c.237.117.391.423.654.414.2-.008.347-.219.38-.421s-.007-.41.013-.614a1.091,1.091,0,0,1,1.277-.918,1.41,1.41,0,0,1,.8.591,4.216,4.216,0,0,1,.441.917A5.856,5.856,0,0,1,22.886.973,1.988,1.988,0,0,1,24.822.029a2.318,2.318,0,0,1,1.3.957,10.23,10.23,0,0,1,1.529,3.729c1.034,4.075,1.761,8.327,1.081,12.476s-2.967,8.213-6.7,10.14a1.954,1.954,0,0,1,1.506,1.239.641.641,0,0,1-.13.729c-.224.157-.53.03-.771-.1l-1.113-.593a6.426,6.426,0,0,1,1.117,2.8,2.229,2.229,0,0,1-.024.86,1,1,0,0,1-.514.661,1.345,1.345,0,0,1-1.415-.475,4.283,4.283,0,0,1-1.179-2.33,2.542,2.542,0,0,1-1.839,1.52,7.906,7.906,0,0,1-2.687.2,29.849,29.849,0,0,1-11.125-2.5A7.767,7.767,0,0,1,.759,27.067a3.443,3.443,0,0,1-.393-3.659C2.51,19.743,7.005,18.113,9.991,15.1A37.2,37.2,0,0,0,17.583,4.639" transform="translate(190 112)"/>
    <path id="Fill_46" data-name="Fill 46" class="cls-10" d="M32.183,3.036a70.129,70.129,0,0,0-9.83-1.1c-.3-.565-.576-1.113-.878-1.678-.061-.114-.14-.241-.268-.255S20.971.1,20.887.2L19.452,1.9a12.253,12.253,0,0,0-7.88.659A9.515,9.515,0,0,0,6.308,8.573H2.461A5.622,5.622,0,0,0,.33,11.847a10.317,10.317,0,0,0-.242,4.012,13.064,13.064,0,0,0,1.336,4.629A8.792,8.792,0,0,0,4.651,24h9.96a21.421,21.421,0,0,1,5.742-2.709,2.639,2.639,0,0,0,1.026,1.4,6.836,6.836,0,0,0,1.46.785,3.274,3.274,0,0,0,2.077.4,2.332,2.332,0,0,0,1.29-1.027,3.467,3.467,0,0,0,.432-3.028,2.671,2.671,0,0,0-2.373-1.781c0-.979.958-1.733,1.864-2.085a11.9,11.9,0,0,1,2.863-.482,4.12,4.12,0,0,0,2.625-1.116,4.851,4.851,0,0,0,.941-2.453c.53-2.963.769-6.093-.376-8.874" transform="translate(176 113)"/>
    <path id="Fill_48" data-name="Fill 48" class="cls-14" d="M.931.366C.9.1.734-.052.6.016S.382.367.412.633A8.41,8.41,0,0,1,.037,4.246a.791.791,0,0,0,.1.686c.131.143.289.048.368-.18A10.235,10.235,0,0,0,.931.366" transform="translate(202 118)"/>
    <path id="Fill_50" data-name="Fill 50" class="cls-11" d="M1.925,4.307A3.732,3.732,0,0,1,1.245.584.462.462,0,0,0,.892.017.523.523,0,0,0,.27.339a4.525,4.525,0,0,0,.782,4.433.551.551,0,0,0,.691.165.442.442,0,0,0,.181-.631" transform="translate(190 117)"/>
    <path id="Fill_52" data-name="Fill 52" class="cls-11" d="M1.946,2.335.716.22A.362.362,0,0,0,.192.062a.487.487,0,0,0-.137.6L1.284,2.78a.362.362,0,0,0,.524.158.488.488,0,0,0,.137-.6" transform="translate(198 132)"/>
    <path id="Fill_54" data-name="Fill 54" class="cls-14" d="M2,.5C2,.776,1.552,1,1,1S0,.776,0,.5.448,0,1,0,2,.224,2,.5" transform="translate(199 120)"/>
    <path id="Fill_56" data-name="Fill 56" class="cls-11" d="M3.23,0s0,.006,0,.006S.719,5.206,6,12A8.924,8.924,0,0,1,2.2,8.565,15.294,15.294,0,0,1,.433,4.154,8.569,8.569,0,0,1,.154.006Z" transform="translate(179 122)"/>
    <path id="Fill_58" data-name="Fill 58" class="cls-13" d="M23.158.013A26.723,26.723,0,0,0,5.628,7.939c-4.482,4.79-6.71,11.8-5.111,18.154,1.291,5.135,4.821,9.395,8.509,13.2,7,7.218,14.906,13.484,22.212,20.389,7.186,6.792,13.887,14.36,17.994,23.34a1.418,1.418,0,0,0,.634.681A14.262,14.262,0,0,0,66.681,79.93a1.382,1.382,0,0,0,.309-1.042c-1.474-11.961-6.7-23.389-12.541-33.941C48.521,34.229,41.615,24.062,35.967,13.2a50.112,50.112,0,0,0-4.726-8.037C29.318,2.71,26.267-.216,23.158.013" transform="translate(84 116)"/>
    <path id="Fill_60" data-name="Fill 60" class="cls-13" d="M19.169.214A58.377,58.377,0,0,1,5.188,16.575,58.041,58.041,0,0,1,.2,20.171c-.478.308-.032,1.067.45.756a59.624,59.624,0,0,0,15.91-15.05A57.966,57.966,0,0,0,19.939.656a.444.444,0,0,0-.77-.442" transform="translate(138 120)"/>
    <path id="Fill_62" data-name="Fill 62" class="cls-15" d="M9.406,3.907h-.72A1.594,1.594,0,0,1,7.093,2.313v-.72a1.593,1.593,0,0,0-3.187,0v.72A1.594,1.594,0,0,1,2.313,3.907h-.72a1.593,1.593,0,1,0,0,3.187h.72A1.593,1.593,0,0,1,3.907,8.687v.72a1.593,1.593,0,1,0,3.187,0v-.72A1.593,1.593,0,0,1,8.687,7.093h.72a1.593,1.593,0,1,0,0-3.187" transform="translate(85 202)"/>
    <path id="Fill_66" data-name="Fill 66" class="cls-15" d="M9.407,3.906h-.72A1.593,1.593,0,0,1,7.093,2.313v-.72A1.593,1.593,0,0,0,5.5,0h0A1.593,1.593,0,0,0,3.907,1.593v.72A1.593,1.593,0,0,1,2.313,3.906h-.72a1.594,1.594,0,0,0,0,3.187h.72A1.593,1.593,0,0,1,3.907,8.687v.72A1.593,1.593,0,0,0,5.5,11h0A1.593,1.593,0,0,0,7.093,9.406v-.72A1.593,1.593,0,0,1,8.687,7.094h.72a1.594,1.594,0,0,0,0-3.187" transform="translate(148 21)"/>
  </g>
</svg>
