<svg id="Group_14" data-name="Group 14" xmlns="http://www.w3.org/2000/svg" xmlns:xlink="http://www.w3.org/1999/xlink" viewBox="0 0 69 69">
  <defs>
    <style>
      .cls-1 {
        fill: none;
      }

      .cls-2 {
        clip-path: url(#clip-path);
      }

      .cls-3 {
        fill: url(#linear-gradient);
      }

      .cls-4 {
        fill: #fff;
      }

      .cls-5 {
        clip-path: url(#clip-path-2);
      }

      .cls-6 {
        fill: url(#linear-gradient-2);
      }
    </style>
    <clipPath id="clip-path">
      <path id="Clip_2" data-name="Clip 2" class="cls-1" d="M34.5,0A34.5,34.5,0,0,0,0,34.5H0A34.5,34.5,0,0,0,34.5,69h0A34.5,34.5,0,0,0,69,34.5h0A34.5,34.5,0,0,0,34.5,0Z"/>
    </clipPath>
    <linearGradient id="linear-gradient" x1="0.5" y1="1.011" x2="0.5" y2="0.055" gradientUnits="objectBoundingBox">
      <stop offset="0" stop-color="#1faf38"/>
      <stop offset="1" stop-color="#60d669"/>
    </linearGradient>
    <clipPath id="clip-path-2">
      <path id="Clip_10" data-name="Clip 10" class="cls-1" d="M0,41.967v0L2.961,31.191A20.857,20.857,0,0,1,35.816,6.1a20.639,20.639,0,0,1,6.108,14.713,20.866,20.866,0,0,1-20.875,20.8H21.04a20.975,20.975,0,0,1-9.975-2.532L0,41.967Zm11.578-6.656h0l.633.374a17.374,17.374,0,0,0,8.831,2.409h.006A17.343,17.343,0,0,0,38.4,20.81a17.321,17.321,0,0,0-17.343-17.3,17.282,17.282,0,0,0-14.7,26.482l.413.653L5.012,37.026l6.566-1.715Z" transform="translate(0.045 0.017)"/>
    </clipPath>
    <linearGradient id="linear-gradient-2" x1="0.5" y1="1" x2="0.5" gradientUnits="objectBoundingBox">
      <stop offset="0" stop-color="#f9f9f9"/>
      <stop offset="1" stop-color="#fff"/>
    </linearGradient>
  </defs>
  <g id="Group_3" data-name="Group 3">
    <path id="Clip_2-2" data-name="Clip 2" class="cls-1" d="M34.5,0A34.5,34.5,0,0,0,0,34.5H0A34.5,34.5,0,0,0,34.5,69h0A34.5,34.5,0,0,0,69,34.5h0A34.5,34.5,0,0,0,34.5,0Z"/>
    <g id="Group_3-2" data-name="Group 3" class="cls-2">
      <path id="Fill_1" data-name="Fill 1" class="cls-3" d="M34.5,0A34.5,34.5,0,0,0,0,34.5H0A34.5,34.5,0,0,0,34.5,69h0A34.5,34.5,0,0,0,69,34.5h0A34.5,34.5,0,0,0,34.5,0Z"/>
    </g>
  </g>
  <path id="Fill_4" data-name="Fill 4" class="cls-4" d="M0,42v0L2.9,31.216a21.147,21.147,0,0,1-2.725-10.4A20.645,20.645,0,0,1,20.586,0,20.1,20.1,0,0,1,35.026,6.1,20.9,20.9,0,0,1,41,20.828,20.646,20.646,0,0,1,20.586,41.639h-.009a20.126,20.126,0,0,1-9.755-2.534L0,42Zm11.323-6.662h0l.62.374a16.694,16.694,0,0,0,8.636,2.412h.006a17.161,17.161,0,0,0,16.968-17.3A17.372,17.372,0,0,0,32.588,8.588a16.7,16.7,0,0,0-12-5.072,17.162,17.162,0,0,0-16.974,17.3,17.51,17.51,0,0,0,2.594,9.205l.4.654L4.9,37.056l6.421-1.717Z" transform="translate(15 12)"/>
  <g id="Group_11" data-name="Group 11" transform="translate(14 12)">
    <path id="Clip_10-2" data-name="Clip 10" class="cls-1" d="M0,41.967v0L2.961,31.191A20.857,20.857,0,0,1,35.816,6.1a20.639,20.639,0,0,1,6.108,14.713,20.866,20.866,0,0,1-20.875,20.8H21.04a20.975,20.975,0,0,1-9.975-2.532L0,41.967Zm11.578-6.656h0l.633.374a17.374,17.374,0,0,0,8.831,2.409h.006A17.343,17.343,0,0,0,38.4,20.81a17.321,17.321,0,0,0-17.343-17.3,17.282,17.282,0,0,0-14.7,26.482l.413.653L5.012,37.026l6.566-1.715Z" transform="translate(0.045 0.017)"/>
    <g id="Group_11-2" data-name="Group 11" class="cls-5">
      <path id="Fill_9" data-name="Fill 9" class="cls-6" d="M0,41.967v0L2.961,31.191A20.857,20.857,0,0,1,35.816,6.1a20.639,20.639,0,0,1,6.108,14.713,20.866,20.866,0,0,1-20.875,20.8H21.04a20.975,20.975,0,0,1-9.975-2.532L0,41.967Zm11.578-6.656h0l.633.374a17.374,17.374,0,0,0,8.831,2.409h.006A17.343,17.343,0,0,0,38.4,20.81a17.321,17.321,0,0,0-17.343-17.3,17.282,17.282,0,0,0-14.7,26.482l.413.653L5.012,37.026l6.566-1.715Z" transform="translate(0.045 0.017)"/>
    </g>
  </g>
  <path id="Fill_12" data-name="Fill 12" class="cls-4" d="M5.339.929C4.952.046,4.545.028,4.176.012,3.875,0,3.531,0,3.186,0A1.876,1.876,0,0,0,1.809.664,6.015,6.015,0,0,0,0,5.089a10.467,10.467,0,0,0,2.11,5.487c.258.354,3.574,5.882,8.826,8.009,4.365,1.767,5.253,1.416,6.2,1.327s3.057-1.283,3.487-2.522a4.543,4.543,0,0,0,.3-2.522c-.129-.221-.474-.354-.99-.619S16.877,12.7,16.4,12.522s-.818-.265-1.163.266-1.334,1.725-1.636,2.079-.6.4-1.12.134a14.061,14.061,0,0,1-4.155-2.633A15.927,15.927,0,0,1,5.457,8.693a.784.784,0,0,1,.227-1.083c.232-.238.517-.619.775-.929A3.659,3.659,0,0,0,6.975,5.8a1,1,0,0,0-.043-.929C6.8,4.6,5.8,1.978,5.339.929" transform="translate(25 23)"/>
</svg>
