<?xml version="1.0" standalone="no"?>
<!DOCTYPE svg PUBLIC "-//W3C//DTD SVG 20010904//EN"
 "http://www.w3.org/TR/2001/REC-SVG-20010904/DTD/svg10.dtd">
<svg version="1.0" xmlns="http://www.w3.org/2000/svg"
 width="1152.000000pt" height="1152.000000pt" viewBox="0 0 1152.000000 1152.000000"
 preserveAspectRatio="xMidYMid meet">
<metadata>
Created by potrace 1.14, written by Peter Selinger 2001-2017
</metadata>
<g transform="translate(0.000000,1152.000000) scale(0.100000,-0.100000)"
fill="#000000" stroke="none">
<path d="M3061 8815 c-18 -8 -42 -26 -53 -40 -11 -14 -25 -31 -31 -38 -65 -68
-165 -400 -203 -667 -2 -19 -6 -42 -9 -50 -2 -8 -7 -37 -10 -65 -4 -27 -8 -61
-10 -75 -2 -14 -6 -50 -10 -80 -4 -30 -8 -66 -10 -80 -14 -111 -21 -179 -41
-405 -28 -324 -54 -783 -69 -1270 -17 -527 -24 -1048 -24 -1820 -1 -549 1
-619 13 -700 7 -44 42 -208 46 -212 2 -2 3 -6 4 -10 10 -50 76 -177 116 -227
70 -87 159 -124 285 -121 151 3 244 52 341 180 73 97 143 312 160 497 3 34 7
65 10 69 2 4 7 78 10 166 3 87 8 160 11 163 3 3 11 -4 19 -14 7 -11 25 -32 39
-48 14 -15 25 -30 25 -32 0 -3 10 -16 23 -28 12 -13 54 -60 93 -103 94 -105
207 -215 269 -262 27 -21 56 -44 63 -50 21 -20 134 -80 174 -92 34 -11 344
-18 378 -8 86 24 152 88 186 182 13 34 12 378 -1 435 -12 57 -29 81 -117 171
-45 47 -106 119 -135 161 -72 103 -150 262 -169 343 -7 28 -10 38 -17 55 -23
56 -35 165 -31 280 2 69 6 134 7 145 16 97 62 235 93 276 29 39 67 88 107 134
15 18 27 35 27 39 0 3 8 14 18 24 9 11 26 32 37 47 11 16 38 52 60 81 22 29
56 76 75 104 19 28 40 57 45 63 21 24 85 117 85 123 0 3 12 23 28 43 15 20 33
45 40 56 37 60 52 81 61 92 6 7 11 15 11 18 0 4 14 26 30 50 17 24 30 48 30
54 0 6 5 11 12 11 6 0 9 3 5 6 -3 3 9 29 27 57 41 65 147 275 176 347 30 75
81 221 86 245 2 11 9 45 15 75 21 96 18 316 -6 470 -19 120 -112 352 -164 407
-12 12 -21 26 -21 31 0 21 -176 184 -256 237 -75 50 -276 153 -309 159 -5 1
-48 15 -95 30 -47 15 -93 30 -103 32 -10 2 -26 5 -35 8 -9 3 -28 8 -42 10 -14
3 -45 11 -70 16 -25 6 -49 11 -55 11 -49 -1 -245 -31 -293 -45 -9 -3 -28 -7
-42 -10 -14 -3 -59 -14 -100 -26 -41 -11 -82 -22 -90 -25 -8 -2 -46 -16 -85
-30 -38 -15 -77 -29 -85 -32 -12 -3 -15 8 -17 59 -3 145 -85 294 -212 386 -45
32 -45 32 -165 32 -83 -1 -132 -5 -155 -15z m1239 -1282 c52 -26 97 -79 117
-138 6 -16 9 -75 8 -130 -3 -82 -8 -112 -30 -164 -30 -73 -134 -283 -144 -291
-3 -3 -13 -18 -21 -35 -17 -34 -190 -321 -218 -362 -38 -57 -97 -148 -101
-158 -9 -21 -225 -340 -235 -347 -6 -4 -15 -8 -19 -8 -10 0 -26 43 -20 53 3 4
7 47 9 95 3 48 7 116 9 152 8 131 18 398 19 492 1 54 5 98 9 98 5 0 5 5 2 11
-10 15 -12 79 -3 79 3 0 3 13 -2 29 -4 15 -4 34 0 42 5 7 6 17 4 21 -16 26 -5
107 21 158 90 177 236 345 345 398 84 40 176 42 250 5z"/>
<path d="M10575 8661 c-129 -37 -292 -92 -350 -116 -16 -7 -55 -23 -85 -35
-57 -23 -280 -131 -315 -153 -138 -85 -208 -133 -299 -207 -30 -25 -159 -153
-190 -191 -83 -100 -185 -279 -220 -389 -54 -169 -69 -264 -69 -440 1 -103 7
-195 13 -195 1 0 3 -20 6 -44 9 -87 76 -318 111 -381 17 -31 16 -29 191 -289
78 -116 142 -214 142 -217 0 -3 6 -12 13 -19 25 -29 37 -44 37 -49 0 -3 29
-50 65 -105 36 -55 65 -105 65 -110 0 -5 4 -11 8 -13 5 -1 46 -66 93 -143 46
-77 87 -141 92 -143 4 -2 7 -12 7 -23 0 -10 3 -19 8 -19 4 0 19 -21 32 -47 14
-27 27 -50 30 -53 11 -11 66 -115 150 -285 77 -155 105 -225 149 -367 15 -48
11 -533 -5 -585 -32 -107 -106 -215 -229 -338 -147 -146 -185 -173 -256 -179
-157 -15 -297 -40 -349 -64 -68 -30 -71 -36 -69 -138 3 -156 43 -263 135 -359
28 -30 55 -55 60 -55 4 0 17 -9 28 -19 46 -41 228 -119 308 -131 4 -1 22 -6
40 -11 37 -10 141 -28 208 -35 25 -2 56 -6 68 -9 13 -2 54 10 90 26 95 43 262
128 292 148 14 9 37 23 53 31 15 7 27 17 27 22 0 4 5 8 11 8 24 0 210 150 302
242 53 54 97 103 97 107 0 5 13 24 30 42 16 19 30 38 30 43 0 5 6 17 14 25 41
46 125 248 145 351 6 30 14 66 17 80 13 51 11 635 -2 726 -7 49 -15 108 -18
132 -3 24 -7 46 -10 50 -2 4 -7 24 -10 44 -5 33 -17 88 -31 138 -2 8 -14 47
-26 85 -13 39 -23 72 -24 75 -1 3 -5 19 -10 35 -4 17 -11 32 -14 35 -3 3 -12
23 -20 45 -28 83 -192 398 -221 425 -3 3 -23 32 -45 65 -22 33 -46 66 -53 73
-7 8 -25 30 -40 50 -15 21 -34 44 -42 52 -44 42 -331 398 -441 545 -149 200
-319 472 -319 510 0 7 -7 18 -15 25 -9 7 -13 15 -11 17 2 3 -2 24 -11 46 -19
53 -24 133 -11 166 6 14 14 35 18 46 26 69 95 198 130 245 22 30 67 74 98 97
31 23 62 46 68 51 6 5 35 27 65 48 30 21 77 56 104 76 28 21 55 42 60 46 6 4
28 20 50 37 22 16 42 33 43 37 2 4 10 8 17 8 7 0 15 4 17 8 2 5 30 28 63 53
33 24 62 46 65 49 3 3 25 21 50 40 25 19 47 37 50 40 3 3 32 27 65 54 33 27
89 78 124 114 l63 64 -5 67 c-11 134 -87 248 -209 310 -91 47 -138 47 -293 2z"/>
<path d="M1700 8628 c-14 -5 -43 -12 -65 -15 -22 -3 -47 -9 -55 -13 -8 -4 -42
-13 -75 -20 -56 -11 -65 -17 -132 -87 -40 -42 -73 -77 -73 -79 0 -2 -10 -14
-22 -27 -41 -42 -93 -101 -133 -152 -22 -27 -44 -55 -50 -61 -20 -23 -41 -50
-88 -114 -26 -36 -55 -73 -63 -83 -8 -10 -48 -68 -89 -130 -41 -62 -78 -117
-82 -123 -18 -23 -34 -50 -44 -74 -6 -14 -16 -32 -23 -40 -8 -8 -25 -35 -38
-60 -14 -25 -35 -63 -48 -85 -93 -163 -229 -461 -303 -660 -40 -108 -40 -110
-42 -115 0 -3 -15 -50 -33 -105 -54 -167 -61 -188 -78 -255 -9 -36 -17 -72
-19 -80 -2 -8 -8 -35 -15 -60 -7 -25 -14 -55 -16 -67 -5 -29 -13 -72 -19 -98
-11 -49 -16 -73 -20 -109 -3 -21 -7 -42 -9 -45 -3 -3 -7 -31 -10 -61 -3 -30
-8 -66 -11 -80 -3 -14 -8 -52 -11 -85 -3 -33 -7 -71 -10 -85 -19 -120 -27
-830 -11 -955 4 -27 9 -66 12 -85 3 -19 7 -53 10 -75 2 -22 11 -70 20 -107 8
-38 21 -97 29 -132 8 -36 16 -69 20 -74 3 -5 8 -22 10 -38 11 -59 15 -74 21
-84 4 -6 9 -23 11 -37 17 -91 133 -418 198 -557 24 -53 42 -96 39 -96 -3 0 0
-8 8 -17 8 -10 21 -31 29 -48 19 -39 102 -179 110 -185 4 -3 9 -12 12 -20 8
-20 178 -225 178 -214 0 5 7 -1 15 -13 26 -37 171 -140 250 -177 144 -69 205
-80 430 -81 110 0 223 4 250 8 28 5 61 10 75 11 134 17 313 98 416 188 72 63
174 223 174 271 0 7 5 18 11 24 6 6 13 57 15 116 3 91 2 107 -15 125 -10 12
-23 22 -30 22 -6 0 -11 4 -11 9 0 5 -10 11 -22 14 -13 3 -57 15 -98 27 -41 12
-92 23 -115 25 -22 2 -40 4 -40 5 0 3 -35 7 -110 14 -38 4 -92 9 -120 12 -27
3 -74 7 -102 9 -29 2 -59 7 -65 12 -7 4 -20 9 -28 10 -33 5 -172 86 -215 124
-16 15 -39 36 -50 46 -35 31 -110 126 -141 178 -52 86 -117 238 -140 325 -21
81 -55 242 -59 286 -4 30 -8 64 -10 76 -8 40 -17 164 -20 270 -2 59 -6 111 -9
117 -4 5 -2 12 3 15 5 3 5 21 1 41 -4 19 -4 37 1 40 4 3 4 17 -1 30 -6 15 -6
27 0 30 6 3 6 15 0 29 -5 13 -7 26 -4 29 3 2 7 63 10 133 3 71 7 149 8 174 10
129 17 197 20 216 2 12 7 45 11 75 3 30 8 65 10 79 3 14 7 39 9 55 7 46 35
197 41 225 3 14 8 39 11 55 7 41 54 236 61 255 4 8 7 20 8 25 1 6 3 12 4 15 2
3 4 12 6 20 2 8 11 40 20 70 9 30 18 62 20 70 6 25 104 304 114 325 6 11 22
52 37 90 42 110 209 465 224 475 3 3 11 12 16 21 5 9 28 38 51 65 87 102 187
234 228 302 6 10 13 19 16 22 9 8 147 236 164 272 9 18 24 49 35 68 21 39 19
80 -7 165 -50 161 -152 253 -287 260 -33 1 -72 -1 -86 -7z"/>
<path d="M8046 8460 c-162 -51 -269 -176 -361 -425 -129 -348 -376 -684 -671
-914 -43 -34 -84 -65 -90 -70 -10 -8 -101 -64 -192 -118 -20 -12 -43 -22 -50
-23 -7 0 -27 30 -43 68 -17 37 -34 76 -39 87 -6 11 -12 29 -13 40 -2 11 -7 27
-10 35 -6 17 -17 63 -23 100 -3 14 -9 48 -14 75 -6 28 -12 64 -15 80 -4 25
-30 146 -39 180 -58 215 -115 358 -185 460 -39 58 -130 147 -143 139 -4 -3 -8
-1 -8 4 0 9 -11 13 -70 29 -8 2 -52 5 -97 6 -78 1 -84 0 -112 -27 -29 -28 -75
-117 -85 -166 -3 -14 -10 -43 -16 -65 -12 -48 -27 -140 -35 -215 -3 -30 -8
-71 -11 -90 -2 -19 -7 -115 -9 -214 -5 -163 -3 -190 21 -310 34 -178 38 -195
53 -244 5 -18 10 -36 11 -40 4 -33 73 -248 94 -296 8 -17 28 -60 44 -96 95
-215 260 -375 422 -410 54 -12 393 -10 450 3 14 3 36 8 50 12 14 3 36 8 50 11
40 8 154 46 165 54 6 5 13 9 18 9 13 1 105 43 149 67 24 14 55 29 71 35 15 6
27 15 27 20 0 5 7 9 15 9 8 0 15 5 15 10 0 6 7 10 15 10 9 0 18 7 21 15 4 8
11 15 18 15 6 1 26 14 45 30 19 16 36 28 37 27 2 -2 -6 -39 -17 -82 -28 -108
-33 -130 -43 -180 -2 -11 -20 -83 -40 -160 -20 -78 -38 -151 -41 -164 -2 -13
-9 -38 -15 -56 -6 -18 -12 -41 -14 -51 -6 -28 -43 -163 -83 -303 -19 -68 -36
-128 -37 -135 -1 -6 -4 -15 -8 -21 -3 -5 -9 -26 -13 -45 -4 -19 -11 -37 -14
-40 -8 -6 -61 -117 -61 -128 0 -4 -9 -24 -20 -44 -52 -98 -199 -485 -257 -678
-27 -92 -82 -293 -89 -325 -2 -11 -6 -30 -9 -42 -3 -13 -7 -32 -10 -44 -2 -11
-6 -28 -9 -37 -3 -9 -8 -34 -12 -56 -3 -21 -8 -48 -11 -60 -7 -29 -20 -103
-28 -151 -3 -22 -8 -51 -10 -65 -3 -14 -7 -43 -11 -65 -3 -22 -7 -51 -9 -65
-17 -106 -25 -268 -15 -295 18 -47 75 -88 141 -101 50 -10 207 -11 259 -2 42
7 106 23 140 36 8 3 17 6 20 7 3 0 32 15 66 32 142 74 332 245 448 406 17 23
33 44 36 47 35 33 116 179 158 285 60 155 143 376 146 390 1 6 8 21 16 35 7
14 13 27 13 30 -1 7 2 14 35 110 52 146 203 607 207 630 1 3 14 45 29 95 15
49 30 96 31 105 2 8 9 31 15 50 16 50 74 261 116 425 45 175 45 175 49 202 2
11 6 30 9 41 8 24 15 55 23 97 2 17 9 35 14 41 5 6 6 13 4 16 -3 3 3 45 14 94
19 83 23 103 36 179 3 17 14 77 25 135 25 136 30 167 36 215 2 22 9 63 14 90
10 57 20 135 34 280 3 28 8 68 10 90 3 22 8 76 11 120 3 44 8 109 11 145 20
284 14 546 -16 615 -18 44 -114 230 -124 243 -37 46 -104 112 -114 112 -7 0
-12 4 -12 9 0 12 -110 65 -170 82 -71 19 -249 19 -314 -1z"/>
</g>
</svg>
