<?xml version="1.0" encoding="utf-8"?>
<svg width="23px" height="21px" viewBox="0 0 23 21" version="1.1" xmlns:xlink="http://www.w3.org/1999/xlink" xmlns="http://www.w3.org/2000/svg">
  <path d="M10.8625 11.1091C15.739 11.1361 20.3327 14.32 21.9048 19.3405C21.9582 19.511 22.0354 19.688 21.982 19.8485C21.8581 20.2201 21.3402 20.132 21.1785 19.6026C20.0896 16.0959 17.284 13.0902 13.6147 12.1972C10.362 11.4056 6.72063 12.0515 4.22065 14.1957C2.57606 15.6062 1.34961 17.5405 0.775947 19.5865C0.775947 19.5865 0.499243 20.1184 0.146707 19.8339C-0.21239 19.5443 0.169669 18.8853 0.420516 18.2737C2.06665 14.2603 5.90133 11.1901 10.6082 11.1106C10.6929 11.1095 10.7778 11.1089 10.8625 11.1091ZM10.8422 2.48649e-05C13.1344 0.0216684 15.2982 1.76713 15.737 4.03798C16.1654 6.25559 14.8639 8.68503 12.7622 9.56801C10.4337 10.5462 7.42744 9.44791 6.30152 7.16576C5.13875 4.80911 6.23785 1.6028 8.69036 0.465648C9.36089 0.154786 10.0984 -0.00227357 10.8422 2.48649e-05ZM10.7824 0.766168C8.86035 0.784364 7.05599 2.2274 6.65637 4.10521C6.25328 5.9995 7.35296 8.1041 9.15847 8.86258C11.5074 9.84918 14.621 8.23549 15.01 5.59555C15.3528 3.26801 13.4676 0.839718 10.9194 0.767509C10.8739 0.766551 10.8281 0.765977 10.7824 0.766168Z" transform="translate(0.100097656 0.100097656)" id="Fill-3" fill="#535150" fill-rule="evenodd" stroke="#5F5D5C" stroke-width="0.2" />
</svg>