<?xml version="1.0" encoding="utf-8"?>
<svg width="21px" height="21px" viewBox="0 0 21 21" version="1.1" xmlns:xlink="http://www.w3.org/1999/xlink" xmlns="http://www.w3.org/2000/svg">
  <g id="icAttachment">
    <g id="attach-1">
      <path d="M0 0L21 0L21 21L0 21L0 0Z" id="attach-1-(BackgroundMask)" fill="none" fill-rule="evenodd" stroke="none" />
      <g id="Attach" transform="translate(1.3953857 0.00021362305)">
        <path d="M17.7132 9.0616C17.3838 9.85694 16.8998 10.579 16.2893 11.1861L8.01538 19.46C7.1344 20.3398 5.94011 20.8338 4.69504 20.8334C3.44996 20.833 2.256 20.3382 1.3756 19.4578C0.495197 18.5774 0.000410894 17.3834 2.55803e-07 16.1384C-0.000410382 14.8933 0.493588 13.699 1.37341 12.818L9.75044 4.44122C10.0138 4.17581 10.327 3.96502 10.6721 3.82094C11.0171 3.67685 11.3872 3.60232 11.7612 3.60161C12.1351 3.6009 12.5055 3.67402 12.8511 3.81679C13.1967 3.95956 13.5107 4.16916 13.7751 4.43357C14.0395 4.69797 14.2491 5.01198 14.3918 5.35758C14.5346 5.70318 14.6077 6.07357 14.607 6.44749C14.6063 6.82141 14.5317 7.19151 14.3876 7.53656C14.2435 7.88161 14.0327 8.19481 13.7673 8.45819L7.42033 14.805C7.35879 14.8666 7.27534 14.9011 7.18832 14.9011C7.10131 14.9011 7.01786 14.8666 6.95632 14.805L6.02835 13.8771C5.96683 13.8155 5.93227 13.7321 5.93227 13.6451C5.93227 13.5581 5.96683 13.4746 6.02835 13.4131L12.3754 7.06622C12.4563 6.98526 12.5206 6.88915 12.5644 6.78336C12.6082 6.67758 12.6308 6.56421 12.6308 6.44971C12.6308 6.33521 12.6082 6.22183 12.5644 6.11605C12.5206 6.01027 12.4563 5.91415 12.3754 5.83319C12.209 5.67519 11.9883 5.58709 11.7588 5.58709C11.5294 5.58709 11.3087 5.67519 11.1423 5.83319L2.76528 14.21C2.25367 14.7216 1.96626 15.4155 1.96627 16.139C1.96628 16.8626 2.25371 17.5565 2.76533 18.0681C3.27695 18.5797 3.97085 18.8671 4.69438 18.8671C5.41791 18.8671 6.1118 18.5796 6.62341 18.068L14.8975 9.79422C15.7572 8.93449 16.2402 7.76846 16.2402 6.55263C16.2402 5.3368 15.7572 4.17076 14.8975 3.31104C14.0378 2.45132 12.8717 1.96834 11.6559 1.96834C10.4401 1.96835 9.27403 2.45134 8.41431 3.31106L4.79533 6.93005C4.73379 6.99157 4.65034 7.02614 4.56332 7.02614C4.47631 7.02614 4.39286 6.99157 4.33132 6.93005L3.40335 6.00208C3.34183 5.94054 3.30727 5.85709 3.30727 5.77008C3.30727 5.68306 3.34183 5.59961 3.40335 5.53808L7.02234 1.91922C7.93878 1.00282 9.10637 0.378751 10.3775 0.125914C11.6486 -0.126922 12.9661 0.00283173 14.1635 0.498769C15.3609 0.994707 16.3843 1.83456 17.1044 2.91212C17.8244 3.98968 18.2088 5.25656 18.2089 6.55257L18.2089 6.55257C18.2112 7.41346 18.0427 8.26626 17.7132 9.0616Z" id="Vector" fill="#818E8E" stroke="none" />
      </g>
    </g>
  </g>
</svg>