<?xml version="1.0" encoding="utf-8"?>
<svg width="34px" height="31px" viewBox="0 0 34 31" version="1.1" xmlns:xlink="http://www.w3.org/1999/xlink" xmlns="http://www.w3.org/2000/svg">
  <g id="Group-2" transform="translate(0.5 0.5)">
    <path d="M2.5 5C3.88071 5 5 3.88071 5 2.5C5 1.11929 3.88071 0 2.5 0C1.11929 0 0 1.11929 0 2.5C0 3.88071 1.11929 5 2.5 5Z" id="Oval" fill="#FFFFFF" fill-rule="evenodd" stroke="none" />
    <path d="M2.5 17C3.88071 17 5 15.8807 5 14.5C5 13.1193 3.88071 12 2.5 12C1.11929 12 0 13.1193 0 14.5C0 15.8807 1.11929 17 2.5 17Z" id="Oval-Copy-3" fill="#FFFFFF" fill-rule="evenodd" stroke="none" />
    <path d="M2.5 30C3.88071 30 5 28.8807 5 27.5C5 26.1193 3.88071 25 2.5 25C1.11929 25 0 26.1193 0 27.5C0 28.8807 1.11929 30 2.5 30Z" id="Oval-Copy-6" fill="#FFFFFF" fill-rule="evenodd" stroke="none" />
    <path d="M16.5 5C17.8807 5 19 3.88071 19 2.5C19 1.11929 17.8807 0 16.5 0C15.1193 0 14 1.11929 14 2.5C14 3.88071 15.1193 5 16.5 5Z" id="Oval-Copy" fill="#FFFFFF" fill-rule="evenodd" stroke="none" />
    <path d="M16.5 17C17.8807 17 19 15.8807 19 14.5C19 13.1193 17.8807 12 16.5 12C15.1193 12 14 13.1193 14 14.5C14 15.8807 15.1193 17 16.5 17Z" id="Oval-Copy-4" fill="#FFFFFF" fill-rule="evenodd" stroke="none" />
    <path d="M16.5 30C17.8807 30 19 28.8807 19 27.5C19 26.1193 17.8807 25 16.5 25C15.1193 25 14 26.1193 14 27.5C14 28.8807 15.1193 30 16.5 30Z" id="Oval-Copy-7" fill="#FFFFFF" fill-rule="evenodd" stroke="none" />
    <path d="M30.5 5C31.8807 5 33 3.88071 33 2.5C33 1.11929 31.8807 0 30.5 0C29.1193 0 28 1.11929 28 2.5C28 3.88071 29.1193 5 30.5 5Z" id="Oval-Copy-2" fill="#FFFFFF" fill-rule="evenodd" stroke="none" />
    <path d="M30.5 17C31.8807 17 33 15.8807 33 14.5C33 13.1193 31.8807 12 30.5 12C29.1193 12 28 13.1193 28 14.5C28 15.8807 29.1193 17 30.5 17Z" id="Oval-Copy-5" fill="#FFFFFF" fill-rule="evenodd" stroke="none" />
    <path d="M30.5 30C31.8807 30 33 28.8807 33 27.5C33 26.1193 31.8807 25 30.5 25C29.1193 25 28 26.1193 28 27.5C28 28.8807 29.1193 30 30.5 30Z" id="Oval-Copy-8" fill="#FFFFFF" fill-rule="evenodd" stroke="none" />
  </g>
</svg>