<?xml version="1.0" encoding="utf-8"?>
<svg width="22px" height="19px" viewBox="0 0 22 19" version="1.1" xmlns:xlink="http://www.w3.org/1999/xlink" xmlns="http://www.w3.org/2000/svg">
  <path d="M9.17534 14.397C10.6407 14.4254 11.8462 16.1493 11.1515 17.5937C10.5689 18.8053 8.78241 19.2381 7.71141 18.3301C6.3862 17.2069 7.00199 14.4382 9.11811 14.397C9.14683 14.3968 9.14683 14.3968 9.17534 14.397ZM17.9739 14.397C19.4391 14.4254 20.6445 16.1493 19.9499 17.5937C19.3673 18.8053 17.5808 19.2381 16.5098 18.3301C15.1848 17.2069 15.8008 14.4382 17.9165 14.397C17.9452 14.3968 17.945 14.3968 17.9739 14.397ZM9.12842 15.2078C8.05398 15.2286 7.25963 16.7627 8.15813 17.642C9.04086 18.506 11.1649 17.5552 10.4229 16.0122C10.1899 15.5277 9.67141 15.2043 9.12842 15.2078ZM17.9268 15.2078C16.854 15.2286 16.0582 16.7627 16.9565 17.642C17.8394 18.506 19.9634 17.5552 19.2213 16.0122C18.9883 15.5277 18.47 15.2043 17.9268 15.2078ZM21.5823 13.7886L6.33544 13.7886C5.72815 13.7769 5.34796 12.9185 5.85798 12.4727L7.38542 11.1892C6.70451 8.12468 6.07336 5.04882 5.3421 1.99606C5.17303 1.32218 4.52873 0.817374 3.8365 0.813725L0.351297 0.813725C-0.0790459 0.782909 -0.153668 0.0388797 0.351297 0.00279321C1.522 0.00279321 2.6927 -0.00349151 3.8634 0.00279321C4.91216 0.0200255 5.88427 0.786559 6.13362 1.82759L6.4497 3.24976C6.46062 3.24814 6.47154 3.24713 6.48246 3.24652C11.2081 3.24652 15.934 3.21672 20.6597 3.24652C21.3495 3.2597 21.9645 3.86263 21.9863 4.55962C22.0169 6.13222 21.9867 7.70543 21.9867 9.27823C21.9784 9.94968 21.4399 10.5506 20.7616 10.6181L7.99594 11.7343L6.51624 12.9777L21.5823 12.9777C21.5839 12.9777 21.8148 12.9959 21.9224 13.1638C22.0773 13.4053 21.8917 13.7663 21.5823 13.7886ZM6.62928 4.05745L8.15146 10.907C12.3352 10.5437 16.5231 10.2254 20.702 9.80919C20.9592 9.77736 21.1685 9.54949 21.1776 9.28897C21.197 7.71719 21.2263 6.14438 21.1774 4.5732C21.1651 4.30053 20.9254 4.06272 20.6494 4.05745L6.62928 4.05745Z" id="Fill-27" fill="#4A4848" fill-rule="evenodd" stroke="none" />
</svg>