<?xml version="1.0" encoding="UTF-8"?>
<svg width="50px" height="50px" viewBox="0 0 50 50" version="1.1" xmlns="http://www.w3.org/2000/svg" xmlns:xlink="http://www.w3.org/1999/xlink">
    <title>Group 4</title>
    <defs>
        <rect id="path-1" x="0" y="0" width="24" height="24"></rect>
        <circle id="path-3" cx="19" cy="7" r="3"></circle>
        <mask id="mask-4" maskContentUnits="userSpaceOnUse" maskUnits="objectBoundingBox" x="0" y="0" width="6" height="6" fill="white">
            <use xlink:href="#path-3"></use>
        </mask>
    </defs>
    <g id="Page-1" stroke="none" stroke-width="1" fill="none" fill-rule="evenodd">
        <g id="PERFIL-1024-antropometricos-GRAFICOS" transform="translate(-954.000000, -37.000000)">
            <g id="Group-4" transform="translate(954.000000, 37.000000)">
                <path d="M10,0 L40,0 C45.5228475,-1.01453063e-15 50,4.4771525 50,10 L50,40 C50,45.5228475 45.5228475,50 40,50 L10,50 C4.4771525,50 6.76353751e-16,45.5228475 0,40 L0,10 C-6.76353751e-16,4.4771525 4.4771525,1.01453063e-15 10,0 Z" id="Rectangle-835" fill="#FFFFFF"></path>
                <g id="8" transform="translate(13.000000, 13.000000)">
                    <mask id="mask-2" fill="white">
                        <use xlink:href="#path-1"></use>
                    </mask>
                    <g id="8-(Background/Mask)"></g>
                    <path d="M16.6200142,4.98999059 C13.7900143,3.07999063 9.97001457,3.13999045 7.1900146,5.10999048 C3.35001469,7.82999051 2.59001458,12.8699906 4.91001451,16.5099907 L3.83001453,19.189991 C3.58001453,19.799991 4.19001448,20.4099905 4.81001449,20.1699905 L7.49001431,19.0899906 C10.7300143,21.1599905 15.0900147,20.77999 17.9300146,17.93999 C21.6000147,14.26999 21.1600142,8.04999053 16.6200142,4.98999059 Z" id="Vector" stroke="#D52C2C" stroke-width="1.20000005" stroke-linecap="round" stroke-linejoin="round" stroke-dasharray="0,0" fill-rule="nonzero" mask="url(#mask-2)"></path>
                    <g id="Ellipse-174" stroke-dasharray="0,0" mask="url(#mask-2)" fill="#D52C2C" stroke="#FFFFFF" stroke-width="2">
                        <use mask="url(#mask-4)" xlink:href="#path-3"></use>
                    </g>
                    <g id="Group" transform="translate(8.280008, 10.420013)" stroke="#D52C2C" stroke-dasharray="0,0" stroke-linecap="round" stroke-linejoin="round" stroke-width="1.20000005">
                        <line x1="-1.00135803e-05" y1="0" x2="4.77998972" y2="0" id="Vector" transform="translate(2.389990, 0.500000) scale(1, -1) rotate(-180.000000) translate(-2.389990, -0.500000) "></line>
                        <line x1="1.99999952" y1="3.29000854" x2="7.28999949" y2="3.29000854" id="Vector" transform="translate(4.645000, 3.790009) scale(1, -1) rotate(-180.000000) translate(-4.645000, -3.790009) "></line>
                    </g>
                </g>
            </g>
        </g>
    </g>
</svg>