<?xml version="1.0" encoding="utf-8"?>
<svg width="52px" height="52px" viewBox="0 0 52 52" version="1.1" xmlns:xlink="http://www.w3.org/1999/xlink" xmlns="http://www.w3.org/2000/svg">
  <defs>
    <path d="M0 0L24 0L24 24L0 24L0 0Z" id="path_1" />
    <path d="M3 6C4.65685 6 6 4.65685 6 3C6 1.34315 4.65685 0 3 0C1.34315 0 0 1.34315 0 3C0 4.65685 1.34315 6 3 6Z" transform="translate(16 4)" id="path_2" />
    <clipPath id="clip_1">
      <use xlink:href="#path_2" />
    </clipPath>
    <clipPath id="mask_1">
      <use xlink:href="#path_1" />
    </clipPath>
  </defs>
  <g id="Chat" transform="translate(0.5999756 0.5999756)">
    <path d="M9.999 0L40.001 0Q40.2465 0 40.4916 0.0120442Q40.7368 0.0240885 40.9811 0.0481479Q41.2253 0.0722074 41.4682 0.108224Q41.711 0.144241 41.9517 0.192128Q42.1924 0.240015 42.4306 0.299657Q42.6687 0.3593 42.9036 0.430553Q43.1384 0.501807 43.3696 0.584501Q43.6007 0.667194 43.8274 0.761128Q44.0542 0.855062 44.2761 0.960011Q44.498 1.06496 44.7145 1.18067Q44.931 1.29638 45.1415 1.42257Q45.352 1.54876 45.5561 1.68514Q45.7602 1.82151 45.9574 1.96773Q46.1545 2.11395 46.3443 2.26967Q46.534 2.42539 46.7159 2.59023Q46.8978 2.75507 47.0714 2.92864Q47.2449 3.10221 47.4098 3.28408Q47.5746 3.46596 47.7303 3.6557Q47.886 3.84545 48.0323 4.0426Q48.1785 4.23976 48.3149 4.44385Q48.4512 4.64795 48.5774 4.85849Q48.7036 5.06903 48.8193 5.2855Q48.935 5.50198 49.04 5.72388Q49.1449 5.94577 49.2389 6.17255Q49.3328 6.39932 49.4155 6.63044Q49.4982 6.86155 49.5694 7.09644Q49.6407 7.33134 49.7003 7.56944Q49.76 7.80755 49.8079 8.04829Q49.8558 8.28904 49.8918 8.53184Q49.9278 8.77465 49.9519 9.01893Q49.9759 9.26321 49.988 9.50837Q50 9.75354 50 9.999L50 40.001Q50 40.2465 49.988 40.4916Q49.9759 40.7368 49.9519 40.9811Q49.9278 41.2253 49.8918 41.4682Q49.8558 41.711 49.8079 41.9517Q49.76 42.1924 49.7003 42.4306Q49.6407 42.6687 49.5694 42.9036Q49.4982 43.1384 49.4155 43.3696Q49.3328 43.6007 49.2389 43.8274Q49.1449 44.0542 49.04 44.2761Q48.935 44.498 48.8193 44.7145Q48.7036 44.931 48.5774 45.1415Q48.4512 45.352 48.3149 45.5561Q48.1785 45.7602 48.0323 45.9574Q47.886 46.1545 47.7303 46.3443Q47.5746 46.534 47.4098 46.7159Q47.2449 46.8978 47.0714 47.0714Q46.8978 47.2449 46.7159 47.4098Q46.534 47.5746 46.3443 47.7303Q46.1545 47.886 45.9574 48.0323Q45.7602 48.1785 45.5561 48.3149Q45.352 48.4512 45.1415 48.5774Q44.931 48.7036 44.7145 48.8193Q44.498 48.935 44.2761 49.04Q44.0542 49.1449 43.8274 49.2389Q43.6007 49.3328 43.3696 49.4155Q43.1384 49.4982 42.9036 49.5694Q42.6687 49.6407 42.4306 49.7003Q42.1924 49.76 41.9517 49.8079Q41.711 49.8558 41.4682 49.8918Q41.2253 49.9278 40.9811 49.9519Q40.7368 49.9759 40.4916 49.988Q40.2465 50 40.001 50L9.999 50Q9.75354 50 9.50837 49.988Q9.26321 49.9759 9.01893 49.9519Q8.77465 49.9278 8.53184 49.8918Q8.28904 49.8558 8.04829 49.8079Q7.80755 49.76 7.56944 49.7003Q7.33134 49.6407 7.09644 49.5694Q6.86155 49.4982 6.63044 49.4155Q6.39932 49.3328 6.17255 49.2389Q5.94577 49.1449 5.72388 49.04Q5.50198 48.935 5.2855 48.8193Q5.06903 48.7036 4.85849 48.5774Q4.64795 48.4512 4.44385 48.3149Q4.23976 48.1785 4.0426 48.0323Q3.84545 47.886 3.6557 47.7303Q3.46596 47.5746 3.28408 47.4098Q3.10221 47.2449 2.92864 47.0714Q2.75507 46.8978 2.59023 46.7159Q2.42539 46.534 2.26967 46.3443Q2.11395 46.1545 1.96773 45.9574Q1.82151 45.7602 1.68514 45.5561Q1.54876 45.352 1.42257 45.1415Q1.29638 44.931 1.18067 44.7145Q1.06496 44.498 0.960011 44.2761Q0.855062 44.0542 0.761128 43.8274Q0.667194 43.6007 0.584501 43.3696Q0.501807 43.1384 0.430553 42.9036Q0.3593 42.6687 0.299657 42.4306Q0.240015 42.1924 0.192128 41.9517Q0.144241 41.711 0.108224 41.4682Q0.0722074 41.2253 0.0481479 40.9811Q0.0240885 40.7368 0.0120442 40.4916Q0 40.2465 0 40.001L0 9.999Q0 9.75354 0.0120442 9.50837Q0.0240885 9.26321 0.0481479 9.01893Q0.0722074 8.77465 0.108224 8.53184Q0.144241 8.28904 0.192128 8.04829Q0.240015 7.80755 0.299657 7.56944Q0.3593 7.33134 0.430553 7.09644Q0.501807 6.86155 0.584501 6.63044Q0.667194 6.39932 0.761128 6.17255Q0.855062 5.94577 0.960011 5.72388Q1.06496 5.50198 1.18067 5.2855Q1.29638 5.06903 1.42257 4.85849Q1.54876 4.64795 1.68514 4.44385Q1.82151 4.23976 1.96773 4.0426Q2.11395 3.84545 2.26967 3.6557Q2.42539 3.46596 2.59023 3.28408Q2.75507 3.10221 2.92864 2.92864Q3.10221 2.75507 3.28408 2.59023Q3.46596 2.42539 3.6557 2.26967Q3.84545 2.11395 4.0426 1.96773Q4.23976 1.82151 4.44385 1.68514Q4.64795 1.54876 4.85849 1.42257Q5.06903 1.29638 5.2855 1.18067Q5.50198 1.06496 5.72388 0.960011Q5.94577 0.855062 6.17255 0.761128Q6.39932 0.667194 6.63044 0.584501Q6.86155 0.501807 7.09644 0.430553Q7.33134 0.3593 7.56944 0.299657Q7.80755 0.240015 8.04829 0.192128Q8.28904 0.144241 8.53184 0.108224Q8.77465 0.0722074 9.01893 0.0481479Q9.26321 0.0240885 9.50837 0.0120442Q9.75354 0 9.999 0Z" id="Rectangle-835" fill="#FFFFFF" fill-rule="evenodd" stroke="none" />
    <g id="8" transform="translate(13 13)">
      <path d="M0 0L24 0L24 24L0 24L0 0Z" id="8-(BackgroundMask)" fill="none" fill-rule="evenodd" stroke="none" />
      <g clip-path="url(#mask_1)">
        <g id="Group" transform="translate(8.280029 10.420044)">
          <path d="M0 0L4.78 0" transform="matrix(-1 2.1456883E-07 2.1456883E-07 1 4.7799897 -7.217599E-07)" id="Vector" fill="none" fill-rule="evenodd" stroke="#333333" stroke-width="1.2" stroke-linecap="round" stroke-linejoin="round" />
          <path d="M0 0L5.29 0" transform="matrix(-1 2.1456883E-07 2.1456883E-07 1 7.2899995 3.2900078)" id="Vector" fill="none" fill-rule="evenodd" stroke="#333333" stroke-width="1.2" stroke-linecap="round" stroke-linejoin="round" />
        </g>
        <path d="M13.0206 1.39578C10.1906 -0.514217 6.37065 -0.454217 3.59065 1.51578C-0.249351 4.23578 -1.00935 9.27578 1.31065 12.9158L0.230649 15.5958C-0.0193507 16.2058 0.590649 16.8158 1.21065 16.5758L3.89065 15.4958C7.13065 17.5658 11.4906 17.1858 14.3306 14.3458C18.0007 10.6758 17.5606 4.45578 13.0206 1.39578Z" transform="translate(3.5993652 3.5942383)" id="Vector" fill="none" stroke="#333333" stroke-width="1.2" stroke-linecap="round" stroke-linejoin="round" />
        <g id="Ellipse-174">
          <use stroke="none" fill="#BD5B54" xlink:href="#path_2" fill-rule="evenodd" />
          <g clip-path="url(#clip_1)">
            <use xlink:href="#path_2" fill="none" stroke="#FFFFFF" stroke-width="2" />
          </g>
        </g>
      </g>
    </g>
  </g>
</svg>