<svg xmlns="http://www.w3.org/2000/svg" xmlns:xlink="http://www.w3.org/1999/xlink" viewBox="0 0 173.693 180.464">
  <defs>
    <style>
      .cls-1 {
        fill: none;
      }

      .cls-2 {
        opacity: 0.723;
      }

      .cls-3 {
        fill: #1d1d1b;
      }

      .cls-4 {
        clip-path: url(#clip-path);
      }

      .cls-5 {
        fill: #2e2f42;
      }
    </style>
    <clipPath id="clip-path">
      <path id="Clip_49" data-name="Clip 49" class="cls-1" d="M51.512.369A44.886,44.886,0,0,1,24.047,7.649h0A43.992,43.992,0,0,1,2.705.369h0A1.791,1.791,0,0,0,.986.234h0A1.649,1.649,0,0,0,.006,1.59h0A1.617,1.617,0,0,0,.745,3.078h0a47.456,47.456,0,0,0,23.063,7.857h0a29.259,29.259,0,0,0,3.226.121h0A48.415,48.415,0,0,0,53.45,3.045h0a1.615,1.615,0,0,0,.853-1.5h0a1.634,1.634,0,0,0-1.016-1.4h0A1.789,1.789,0,0,0,52.6,0h0a1.769,1.769,0,0,0-1.084.369Z" transform="translate(0.259 0.72)"/>
    </clipPath>
  </defs>
  <g id="Group_56" data-name="Group 56" class="cls-2" transform="translate(156.287 -13.05) rotate(79)">
    <g id="Group_47" data-name="Group 47">
      <path id="Fill_1" data-name="Fill 1" class="cls-3" d="M4.882,14.2A17.291,17.291,0,0,1,2.208,11.76,10.894,10.894,0,0,1,.667,9.506,5.988,5.988,0,0,1,.1,5.666a5.45,5.45,0,0,1,.514-1.51,8.43,8.43,0,0,1,.74-1.19l.32-.422A9.218,9.218,0,0,1,2.608,1.5,5.3,5.3,0,0,1,3.9.6,5.8,5.8,0,0,1,5.585.065,6,6,0,0,1,7.7.131a10.86,10.86,0,0,1,2.583.892,18.158,18.158,0,0,1,3.1,1.947l.567.43A19.61,19.61,0,0,1,16.62,5.778,11.619,11.619,0,0,1,18.2,7.916a6.173,6.173,0,0,1,.712,1.866A5.459,5.459,0,0,1,19,11.354a4.024,4.024,0,0,1-.324,1.242,4.714,4.714,0,0,1-.51.883l-.144.189L13.734,10.42c.033-.084.082-.248.146-.494a1.88,1.88,0,0,0-.056-.938,4.355,4.355,0,0,0-.675-1.315,7.973,7.973,0,0,0-1.7-1.637,7.716,7.716,0,0,0-2-1.155A3.709,3.709,0,0,0,7.9,4.637a2.372,2.372,0,0,0-1.165.407,3.658,3.658,0,0,0-.831.8l-.135.174a3.644,3.644,0,0,0-.531,1.035,2.8,2.8,0,0,0-.1,1.306,3.773,3.773,0,0,0,.614,1.5,6.686,6.686,0,0,0,1.6,1.616,8.69,8.69,0,0,0,1.454.919,5.881,5.881,0,0,0,1.18.435,2.956,2.956,0,0,0,.918.089,2.832,2.832,0,0,0,.671-.132,1.811,1.811,0,0,0,.451-.219c.115-.081.191-.138.231-.169l4.274,3.237-.177.233a5.035,5.035,0,0,1-.723.744,3.966,3.966,0,0,1-1.133.663,5.547,5.547,0,0,1-1.559.352,6.381,6.381,0,0,1-2.008-.171,11.55,11.55,0,0,1-2.492-.926,18.706,18.706,0,0,1-3-1.9Z" transform="translate(125.85 14.286)"/>
      <path id="Fill_3" data-name="Fill 3" class="cls-3" d="M11.226,19.472a6.931,6.931,0,0,1-.781-.046,6.266,6.266,0,0,1-2.061-.665A11.319,11.319,0,0,1,6.07,17.133a19.031,19.031,0,0,1-2.527-2.822l-.493-.656A19.152,19.152,0,0,1,1.041,10.43,11.073,11.073,0,0,1,.128,7.753,6.444,6.444,0,0,1,.065,5.588,5.7,5.7,0,0,1,.609,3.881a5.646,5.646,0,0,1,.908-1.3A8.227,8.227,0,0,1,2.55,1.65l.437-.329A9.111,9.111,0,0,1,4.167.585,5.3,5.3,0,0,1,6.594,0a6.643,6.643,0,0,1,.847.057A6.362,6.362,0,0,1,9.487.734a11.077,11.077,0,0,1,2.294,1.629A19.591,19.591,0,0,1,14.313,5.2l.492.658a19.535,19.535,0,0,1,2.01,3.211,11.067,11.067,0,0,1,.923,2.659,6.447,6.447,0,0,1,.077,2.155,5.723,5.723,0,0,1-.528,1.7,5.657,5.657,0,0,1-.9,1.292,8.431,8.431,0,0,1-1.033.933l-.436.328a8.815,8.815,0,0,1-1.181.736,5.287,5.287,0,0,1-1.5.509A5.515,5.515,0,0,1,11.226,19.472ZM7.8,5.067a2.21,2.21,0,0,0-.662.1,3.376,3.376,0,0,0-1.016.512l-.175.132a3.414,3.414,0,0,0-.778.843,2.694,2.694,0,0,0-.417,1.261A4.226,4.226,0,0,0,5,9.607a7.939,7.939,0,0,0,1.227,2.168,8.2,8.2,0,0,0,1.725,1.784A4.236,4.236,0,0,0,9.5,14.29a3.058,3.058,0,0,0,.611.065,2.392,2.392,0,0,0,.7-.1,3.4,3.4,0,0,0,1.035-.515l.205-.155a3.246,3.246,0,0,0,.769-.838,2.525,2.525,0,0,0,.374-1.228,4.291,4.291,0,0,0-.287-1.666,8.457,8.457,0,0,0-1.24-2.158A8.63,8.63,0,0,0,9.924,5.876a4.205,4.205,0,0,0-1.519-.741A2.917,2.917,0,0,0,7.8,5.067Z" transform="translate(141.849 28.937)"/>
      <path id="Fill_5" data-name="Fill 5" class="cls-3" d="M14.746,5.415,10.367,15.535l7.2-2.764,1.843,4.8L6.743,22.434,4.889,17.6,9.522,6.717,1.843,9.665,0,4.863,12.668,0Z" transform="translate(151.766 46.832)"/>
      <path id="Fill_7" data-name="Fill 7" class="cls-3" d="M9.8,6.233,9.148.415,12.827,0,14.72,16.782l-3.678.414-.657-5.815-9.8,1.1L0,7.338Z" transform="translate(159.24 68.547)"/>
      <path id="Fill_9" data-name="Fill 9" class="cls-3" d="M0,20.659v0l.594-5.64L2.88,14.2l.813-7.708L1.624,5.224,2.174,0,14.966,8.1l-.728,6.927L0,20.658ZM6.9,8.42,6.429,12.9l4.882-1.777Zm10.886,7.727h0L15.167,14.02l.5-4.66,2.651,1.728-.533,5.058Z" transform="translate(158.504 83.843)"/>
      <path id="Fill_11" data-name="Fill 11" class="cls-3" d="M1.448,7.009a17.313,17.313,0,0,1,1.59-3.25A10.851,10.851,0,0,1,4.77,1.65,5.981,5.981,0,0,1,8.3.028,5.444,5.444,0,0,1,9.889.1a8.307,8.307,0,0,1,1.35.378l.494.188A8.937,8.937,0,0,1,13,1.273a5.313,5.313,0,0,1,1.233.988,5.8,5.8,0,0,1,.981,1.467,6.02,6.02,0,0,1,.528,2.046A10.9,10.9,0,0,1,15.6,8.5a18.2,18.2,0,0,1-1,3.52l-.253.666a19.61,19.61,0,0,1-1.534,3.23,11.7,11.7,0,0,1-1.608,2.12,6.24,6.24,0,0,1-1.594,1.207,5.368,5.368,0,0,1-1.485.516,4.075,4.075,0,0,1-1.283.04,4.75,4.75,0,0,1-.991-.243l-.221-.084L7.55,14.449a5,5,0,0,0,.515,0,1.874,1.874,0,0,0,.885-.316,4.38,4.38,0,0,0,1.073-1.017,7.857,7.857,0,0,0,1.1-2.09,7.667,7.667,0,0,0,.551-2.239,3.7,3.7,0,0,0-.2-1.56,2.344,2.344,0,0,0-.716-1.005,3.7,3.7,0,0,0-1-.574L9.55,5.57a3.582,3.582,0,0,0-1.142-.22,2.8,2.8,0,0,0-1.282.272A3.816,3.816,0,0,0,5.858,6.631a6.752,6.752,0,0,0-1.1,1.99,8.73,8.73,0,0,0-.474,1.654,6.049,6.049,0,0,0-.089,1.256,2.961,2.961,0,0,0,.173.9,2.782,2.782,0,0,0,.315.608,1.812,1.812,0,0,0,.336.373c.109.087.185.146.226.174L3.332,18.6l-.272-.1a4.845,4.845,0,0,1-.918-.486,4,4,0,0,1-.955-.9,5.63,5.63,0,0,1-.773-1.4,6.4,6.4,0,0,1-.4-1.976,11.6,11.6,0,0,1,.19-2.65,18.811,18.811,0,0,1,.988-3.409Z" transform="translate(153.775 104.746)"/>
      <path id="Fill_13" data-name="Fill 13" class="cls-3" d="M11.056,5.633,14.4.826l3.04,2.116L7.8,16.8l-3.04-2.113L8.1,9.885,0,4.252,2.958,0Z" transform="translate(145.423 126.161)"/>
      <path id="Fill_15" data-name="Fill 15" class="cls-3" d="M14.419,19.249h0L0,14.1l4.167-3.849,2.261.889,5.693-5.26L11.4,3.566,15.257,0l4.279,14.521-5.116,4.727Zm-1.161-9.8L9.95,12.5l4.842,1.881Z" transform="translate(128.952 133.092)"/>
      <path id="Fill_17" data-name="Fill 17" class="cls-3" d="M17.794,14.718,7.254,11.474l3.538,6.856-4.57,2.358L0,8.631,4.6,6.255,15.926,9.667l-3.771-7.31L16.726,0l6.221,12.057Z" transform="translate(112.127 147.095)"/>
      <path id="Fill_19" data-name="Fill 19" class="cls-3" d="M7.488,14.826a11,11,0,0,1-2.757-.309,6.469,6.469,0,0,1-1.978-.856,5.653,5.653,0,0,1-1.305-1.206,5.566,5.566,0,0,1-.777-1.37,8.193,8.193,0,0,1-.4-1.334L.163,9.217A8.652,8.652,0,0,1,0,7.835,5.242,5.242,0,0,1,.189,6.262,5.964,5.964,0,0,1,.918,4.626,6.216,6.216,0,0,1,2.4,3.052,11.284,11.284,0,0,1,4.868,1.66,19,19,0,0,1,8.5.59l.8-.162A19.237,19.237,0,0,1,13.041,0h.04a11.042,11.042,0,0,1,2.811.326,6.415,6.415,0,0,1,1.983.873,5.622,5.622,0,0,1,2.088,2.6,8.156,8.156,0,0,1,.4,1.334l.109.535a8.917,8.917,0,0,1,.158,1.382,5.141,5.141,0,0,1-.187,1.563,5.765,5.765,0,0,1-.743,1.62,6.339,6.339,0,0,1-1.49,1.557,11.132,11.132,0,0,1-2.459,1.372A19.7,19.7,0,0,1,12.1,14.229l-.8.163a19.505,19.505,0,0,1-3.764.434ZM11.5,3.889A9.543,9.543,0,0,0,9.642,4.1a8.162,8.162,0,0,0-2.353.793A4.241,4.241,0,0,0,5.963,5.975a2.629,2.629,0,0,0-.529,1.2,3.4,3.4,0,0,0,.02,1.155l.051.252a3.229,3.229,0,0,0,.426,1.055,2.541,2.541,0,0,0,.948.866,4.334,4.334,0,0,0,1.627.457,5.367,5.367,0,0,0,.552.027,10.06,10.06,0,0,0,1.931-.22,8.645,8.645,0,0,0,2.388-.791A4.168,4.168,0,0,0,14.7,8.923a2.463,2.463,0,0,0,.519-1.161,3.389,3.389,0,0,0-.024-1.137l-.043-.215a3.451,3.451,0,0,0-.43-1.064,2.681,2.681,0,0,0-.959-.92,4.224,4.224,0,0,0-1.635-.5,5.093,5.093,0,0,0-.629-.037Z" transform="translate(92.438 157.361)"/>
      <path id="Fill_21" data-name="Fill 21" class="cls-3" d="M13.588.648a10.886,10.886,0,0,1,2.212.775,5,5,0,0,1,1.4.984,4.244,4.244,0,0,1,.775,1.1A3.378,3.378,0,0,1,18.3,4.6a5.642,5.642,0,0,1,.023.969l-.013.184-5.676-.4a2.333,2.333,0,0,0-.093-.619,1.4,1.4,0,0,0-.431-.651,3.083,3.083,0,0,0-.975-.554,6.3,6.3,0,0,0-1.752-.321l-.163-.013a11.043,11.043,0,0,0-1.745-.01A3.786,3.786,0,0,0,6.449,3.4a.939.939,0,0,0-.491.367,1.088,1.088,0,0,0-.142.475v.018a1.054,1.054,0,0,0,.067.471.9.9,0,0,0,.4.4,3.3,3.3,0,0,0,.937.32A16.252,16.252,0,0,0,8.912,5.7l2.507.246a13.978,13.978,0,0,1,3.219.636,6.438,6.438,0,0,1,1.974,1.042,3.03,3.03,0,0,1,.969,1.329,3.849,3.849,0,0,1,.195,1.531l-.011.164a3.91,3.91,0,0,1-.438,1.551,3.041,3.041,0,0,1-1.293,1.236,7.414,7.414,0,0,1-2.445.734,18.275,18.275,0,0,1-3.9.067l-1.62-.113a19.131,19.131,0,0,1-4.086-.65,7.711,7.711,0,0,1-2.443-1.139A3.305,3.305,0,0,1,.38,10.872a3.839,3.839,0,0,1-.236-1.6l.01-.146,5.622.392a1.545,1.545,0,0,0,.089.435,1.126,1.126,0,0,0,.4.5,3.09,3.09,0,0,0,.955.45,7.884,7.884,0,0,0,1.728.276l.181.013a12.432,12.432,0,0,0,1.616.03,3.563,3.563,0,0,0,.915-.155.727.727,0,0,0,.414-.291.953.953,0,0,0,.108-.376v-.019a.781.781,0,0,0-.073-.39.861.861,0,0,0-.4-.356,3.341,3.341,0,0,0-.874-.29,13.327,13.327,0,0,0-1.532-.207L6.877,8.92a21.526,21.526,0,0,1-3.261-.538,7.073,7.073,0,0,1-2.167-.911A3.13,3.13,0,0,1,.28,6.138,3.766,3.766,0,0,1,.012,4.347l.017-.255A4.811,4.811,0,0,1,.455,2.43,3.244,3.244,0,0,1,1.778,1.043,7.5,7.5,0,0,1,4.4.173a18.907,18.907,0,0,1,4.339-.1l1.656.115a18.835,18.835,0,0,1,3.195.46" transform="translate(72.526 159.007)"/>
      <path id="Fill_23" data-name="Fill 23" class="cls-3" d="M13.35,22.89,9.675,19.239l3.382-3.4L7.042,9.86l-3.381,3.4L0,9.624,9.564,0l3.661,3.637L9.587,7.3,15.6,13.276l3.637-3.66,3.675,3.651Z" transform="translate(19.378 131.747)"/>
      <path id="Fill_25" data-name="Fill 25" class="cls-3" d="M10.2,20.014A5.978,5.978,0,0,1,8.669,19.8a6.443,6.443,0,0,1-1.94-.941,11.117,11.117,0,0,1-2.057-1.922,19.651,19.651,0,0,1-2.131-3.153l-.4-.715A19.59,19.59,0,0,1,.574,9.615,11.062,11.062,0,0,1,.013,6.856a6.377,6.377,0,0,1,.21-2.144A5.668,5.668,0,0,1,.972,3.1,5.608,5.608,0,0,1,2.036,1.941a8.366,8.366,0,0,1,1.148-.788L3.661.886A8.809,8.809,0,0,1,4.928.311a5.278,5.278,0,0,1,1.554-.3C6.57,0,6.66,0,6.749,0A6.178,6.178,0,0,1,8.261.2a6.229,6.229,0,0,1,1.955.935,11.162,11.162,0,0,1,2.078,1.918,18.881,18.881,0,0,1,2.13,3.135l.4.715a19.053,19.053,0,0,1,1.562,3.464,11.067,11.067,0,0,1,.552,2.774,6.414,6.414,0,0,1-.228,2.155,5.6,5.6,0,0,1-1.836,2.785,8.292,8.292,0,0,1-1.148.788l-.477.267a8.948,8.948,0,0,1-1.268.574,5.113,5.113,0,0,1-1.545.3C10.36,20.013,10.282,20.014,10.2,20.014ZM7.595,5.248h0a2.245,2.245,0,0,0-.378.032,3.381,3.381,0,0,0-1.1.373L5.9,5.779a3.226,3.226,0,0,0-.875.73A2.508,2.508,0,0,0,4.49,7.674a4.327,4.327,0,0,0,.062,1.689,8.435,8.435,0,0,0,.943,2.3A8.6,8.6,0,0,0,6.98,13.7a4.218,4.218,0,0,0,1.407.937,2.661,2.661,0,0,0,.9.169,2.153,2.153,0,0,0,.365-.031,3.332,3.332,0,0,0,1.074-.372l.191-.107a3.392,3.392,0,0,0,.883-.734,2.673,2.673,0,0,0,.581-1.193,4.225,4.225,0,0,0-.023-1.713,7.926,7.926,0,0,0-.926-2.311,8.219,8.219,0,0,0-1.474-2,4.229,4.229,0,0,0-1.436-.931,2.823,2.823,0,0,0-.926-.169Z" transform="translate(8.972 115.574)"/>
      <path id="Fill_27" data-name="Fill 27" class="cls-3" d="M11.445,9.764l-6.2,9.391-1.637-5.98L7.082,8.121,1.5,5.469,0,0,10.114,4.757,15,3.42,16.37,8.414Z" transform="translate(0.924 99.785)"/>
      <path id="Fill_29" data-name="Fill 29" class="cls-3" d="M.7,0,4.013.154l-.46,9.893,1.694.079L5.7.433,9.014.588,8.563,10.28l1.841.085L10.871.327l3.388.158-.706,15.138L0,14.992Z" transform="translate(0.227 75.034)"/>
      <path id="Fill_31" data-name="Fill 31" class="cls-3" d="M13.237,15.112a10.893,10.893,0,0,1-1.226,2,4.974,4.974,0,0,1-1.26,1.163,4.2,4.2,0,0,1-1.234.524,3.366,3.366,0,0,1-1.134.08,5.773,5.773,0,0,1-.954-.182l-.174-.051L8.843,13.18a2.277,2.277,0,0,0,.623.038,1.4,1.4,0,0,0,.728-.282,3.07,3.07,0,0,0,.745-.838,6.2,6.2,0,0,0,.687-1.641l.046-.158a10.849,10.849,0,0,0,.381-1.7,3.8,3.8,0,0,0,.009-1.042A.952.952,0,0,0,11.808,7a1.1,1.1,0,0,0-.434-.241l-.017,0a1.043,1.043,0,0,0-.474-.033.874.874,0,0,0-.479.307,3.285,3.285,0,0,0-.513.848,16.207,16.207,0,0,0-.6,1.6l-.773,2.4a13.959,13.959,0,0,1-1.3,3.011A6.394,6.394,0,0,1,5.78,16.591a3.023,3.023,0,0,1-1.5.665,3.822,3.822,0,0,1-1.538-.132l-.157-.047a3.9,3.9,0,0,1-1.424-.755A3.051,3.051,0,0,1,.225,14.8a7.42,7.42,0,0,1-.2-2.548,18.343,18.343,0,0,1,.76-3.823l.454-1.558a19.074,19.074,0,0,1,1.5-3.857A7.727,7.727,0,0,1,4.369.863,3.317,3.317,0,0,1,6.042.039,3.852,3.852,0,0,1,7.654.147l.14.041L6.221,5.6a1.665,1.665,0,0,0-.446-.007,1.14,1.14,0,0,0-.577.29,3.058,3.058,0,0,0-.643.839A7.8,7.8,0,0,0,3.921,8.35l-.051.176A12.584,12.584,0,0,0,3.5,10.1a3.576,3.576,0,0,0-.041.927.712.712,0,0,0,.2.466A.931.931,0,0,0,4,11.677l.017.006a.8.8,0,0,0,.394.01.866.866,0,0,0,.433-.311,3.355,3.355,0,0,0,.468-.8A12.993,12.993,0,0,0,5.84,9.135L6.574,6.8A21.191,21.191,0,0,1,7.791,3.73,7.051,7.051,0,0,1,9.137,1.8,3.155,3.155,0,0,1,10.69.944a3.758,3.758,0,0,1,1.808.117l.244.071a4.772,4.772,0,0,1,1.534.769,3.221,3.221,0,0,1,1.077,1.586,7.5,7.5,0,0,1,.294,2.744,18.8,18.8,0,0,1-.82,4.262l-.464,1.595a18.755,18.755,0,0,1-1.126,3.025" transform="translate(2.572 55.159)"/>
      <path id="Fill_33" data-name="Fill 33" class="cls-3" d="M8.378,0l2.754,1.852L5.6,10.069l1.408.946,5.417-8.05,2.754,1.852L9.766,12.869,11.295,13.9,16.9,5.559l2.814,1.893L11.258,20.027,0,12.454Z" transform="translate(11.09 31.974)"/>
      <path id="Fill_35" data-name="Fill 35" class="cls-3" d="M3.751,0l6.676,7.015L17.245.527l2.679,2.814L9.355,13.4,0,3.571Z" transform="translate(22.172 25.276)"/>
      <path id="Fill_37" data-name="Fill 37" class="cls-3" d="M5.82,18.105h0L0,5.847,8.7,1.718A17.523,17.523,0,0,1,13.3.149,11.086,11.086,0,0,1,15.035,0a6.724,6.724,0,0,1,1.6.179,4.858,4.858,0,0,1,2.264,1.2,6.754,6.754,0,0,1,1.4,1.943l.235.494a7.694,7.694,0,0,1,.521,1.479,5.285,5.285,0,0,1,.133,1.622,5.534,5.534,0,0,1-.423,1.724,6.532,6.532,0,0,1-1.141,1.784,11.823,11.823,0,0,1-2.019,1.787,20.192,20.192,0,0,1-3.071,1.76L5.821,18.1ZM13.011,4.268a5.831,5.831,0,0,0-.764.055,9.159,9.159,0,0,0-2.565.866L6.205,6.839,8.95,12.622l3.476-1.651a8.96,8.96,0,0,0,2.291-1.449,4.144,4.144,0,0,0,1.019-1.38,2.212,2.212,0,0,0,.157-1.222,4.044,4.044,0,0,0-.294-.958l-.047-.1A3.874,3.874,0,0,0,15,5.039,2.209,2.209,0,0,0,13.958,4.4,3.183,3.183,0,0,0,13.011,4.268Z" transform="translate(41.369 6.643)"/>
      <path id="Fill_39" data-name="Fill 39" class="cls-3" d="M8.484,13.11,3.5,14.441,0,1.33,4.987,0Z" transform="translate(62.288 2.308)"/>
      <path id="Fill_41" data-name="Fill 41" class="cls-3" d="M0,14.623v0L5.6.559,12.545,0l8.16,12.955-5.653.455-1.231-2.1L6.1,11.935,5.235,14.2,0,14.623ZM9.248,3.6,7.405,8.427l4.49-.36L9.248,3.6Z" transform="translate(70.856 0.066)"/>
      <path id="Fill_43" data-name="Fill 43" class="cls-3" d="M7.456,5.965A3.989,3.989,0,1,1,5.964.524a3.989,3.989,0,0,1,1.492,5.44" transform="translate(106.361 8.337)"/>
      <path id="Fill_45" data-name="Fill 45" class="cls-3" d="M7.456,5.965A3.989,3.989,0,1,1,5.964.524a3.988,3.988,0,0,1,1.492,5.44" transform="translate(51.822 156.246)"/>
    </g>
    <g id="Group_50" data-name="Group 50" transform="translate(59.855 108.594)">
      <path id="Clip_49-2" data-name="Clip 49" class="cls-1" d="M51.512.369A44.886,44.886,0,0,1,24.047,7.649h0A43.992,43.992,0,0,1,2.705.369h0A1.791,1.791,0,0,0,.986.234h0A1.649,1.649,0,0,0,.006,1.59h0A1.617,1.617,0,0,0,.745,3.078h0a47.456,47.456,0,0,0,23.063,7.857h0a29.259,29.259,0,0,0,3.226.121h0A48.415,48.415,0,0,0,53.45,3.045h0a1.615,1.615,0,0,0,.853-1.5h0a1.634,1.634,0,0,0-1.016-1.4h0A1.789,1.789,0,0,0,52.6,0h0a1.769,1.769,0,0,0-1.084.369Z" transform="translate(0.259 0.72)"/>
      <g id="Group_50-2" data-name="Group 50" class="cls-4">
        <path id="Fill_48" data-name="Fill 48" class="cls-5" d="M0,21.937H65.706V0H0Z" transform="translate(-5.442 -4.721)"/>
      </g>
    </g>
    <g id="Group_55" data-name="Group 55" transform="translate(46.174 59.855)">
      <path id="Fill_51" data-name="Fill 51" class="cls-3" d="M8.338,12.322a14.937,14.937,0,0,1-3.131-.287,9.422,9.422,0,0,1-2.251-.758A5.3,5.3,0,0,1,1.45,10.183,5.343,5.343,0,0,1,.548,8.9,4.837,4.837,0,0,1,.111,7.574,7.463,7.463,0,0,1,0,6.354V5.89A7.966,7.966,0,0,1,.1,4.669a4.584,4.584,0,0,1,.42-1.316,5.064,5.064,0,0,1,.886-1.262,5.237,5.237,0,0,1,1.5-1.068A9.35,9.35,0,0,1,5.167.279,15.666,15.666,0,0,1,8.338,0h.617a16.965,16.965,0,0,1,3.1.247A10.149,10.149,0,0,1,14.272.9a5.443,5.443,0,0,1,1.475.927,4.745,4.745,0,0,1,.878,1.053,3.475,3.475,0,0,1,.428,1.037,4.125,4.125,0,0,1,.111.885v.209H12.49c-.023-.078-.075-.218-.16-.423a1.619,1.619,0,0,0-.53-.625A3.774,3.774,0,0,0,10.644,3.4a6.857,6.857,0,0,0-2.038-.243,6.591,6.591,0,0,0-1.989.249,3.224,3.224,0,0,0-1.2.65,2.059,2.059,0,0,0-.593.9,3.239,3.239,0,0,0-.158.994v.193a3.177,3.177,0,0,0,.173,1,2.443,2.443,0,0,0,.618.963,3.306,3.306,0,0,0,1.212.722,5.789,5.789,0,0,0,1.958.282,7.433,7.433,0,0,0,1.489-.129,5.156,5.156,0,0,0,1.047-.318,2.6,2.6,0,0,0,.682-.423,2.538,2.538,0,0,0,.4-.448,1.62,1.62,0,0,0,.2-.391c.035-.116.06-.2.071-.238h4.658v.254a4.332,4.332,0,0,1-.111.9,3.452,3.452,0,0,1-.436,1.063,4.877,4.877,0,0,1-.9,1.068,5.532,5.532,0,0,1-1.481.942,9.95,9.95,0,0,1-2.211.67,16.1,16.1,0,0,1-3.076.255Z" transform="translate(0.202 0.625)"/>
      <path id="Fill_53" data-name="Fill 53" class="cls-3" d="M8.385,11.875H0V0H8.369a15.227,15.227,0,0,1,4.2.487,7.4,7.4,0,0,1,2.608,1.277,4.253,4.253,0,0,1,1.33,1.8,5.921,5.921,0,0,1,.373,2.058V6.1a6.836,6.836,0,0,1-.141,1.364,4.66,4.66,0,0,1-.5,1.333A4.913,4.913,0,0,1,15.264,10a5.67,5.67,0,0,1-1.561.982,10.288,10.288,0,0,1-2.251.655A17.414,17.414,0,0,1,8.385,11.875ZM4.5,3.112v5.6H7.846a7.71,7.71,0,0,0,2.339-.286A3.614,3.614,0,0,0,11.5,7.721a1.922,1.922,0,0,0,.576-.908,3.415,3.415,0,0,0,.129-.868v-.1a3.371,3.371,0,0,0-.129-.859,1.926,1.926,0,0,0-.576-.9,3.54,3.54,0,0,0-1.316-.7,7.972,7.972,0,0,0-2.339-.278Z" transform="translate(63.389 0.848)"/>
    </g>
  </g>
</svg>
