<?xml version="1.0" encoding="utf-8"?>
<svg width="17px" height="17px" viewBox="0 0 17 17" version="1.1" xmlns:xlink="http://www.w3.org/1999/xlink" xmlns="http://www.w3.org/2000/svg">
  <g id="Group_1068">
    <path d="M15.9252 14.9797L1.04123 0.0976528C0.910831 -0.0325509 0.699621 -0.0325509 0.569226 0.0976528L0.0992259 0.567653C-0.0309778 0.698048 -0.0309778 0.909258 0.0992259 1.03965L2.85723 3.79765C1.5231 4.85534 0.533805 6.28603 0.0152259 7.90765C-0.00507531 7.97277 -0.00507531 8.04253 0.0152259 8.10765C1.10826 11.6107 4.34568 14.0011 8.01523 14.0147C9.42317 14.0163 10.8081 13.6576 12.0382 12.9727L14.9852 15.9197C15.1156 16.0499 15.3268 16.0499 15.4572 15.9197L15.9292 15.4477C16.0557 15.3166 16.0539 15.1085 15.9252 14.9797ZM5.34023 8.00965C5.34188 9.48412 6.53676 10.679 8.01123 10.6807C8.48567 10.6772 8.95025 10.5448 9.35523 10.2977L10.8062 11.7487C8.94819 13.1428 6.34771 12.9583 4.70516 11.3157C3.06261 9.67317 2.87808 7.07269 4.27223 5.21465L5.72323 6.66565C5.47604 7.07063 5.34365 7.53521 5.34023 8.00965Z" transform="translate(0.0007740638 0.0023472023)" id="Path_324" fill="#FFFFFF" stroke="none" />
    <path d="M0.025849 0.205C-0.0264055 0.330008 0.00203765 0.474199 0.097849 0.57L2.40585 2.878C2.50188 2.97391 2.6464 3.00217 2.77148 2.9495C2.89656 2.89683 2.97734 2.77371 2.97585 2.638C2.96819 1.18426 1.79159 0.00765433 0.337849 0C0.204057 0.0057389 0.0842216 0.0844771 0.025849 0.205Z" transform="translate(7.704151 5.343)" id="Path_325" fill="#FFFFFF" fill-rule="evenodd" stroke="none" />
    <path d="M0.753872 1.725C0.853988 1.82496 1.00622 1.851 1.13387 1.79C1.76101 1.48719 2.44845 1.32994 3.14487 1.33C5.72511 1.33276 7.81612 3.42377 7.81887 6.004C7.81893 6.70042 7.66169 7.38786 7.35887 8.015C7.29787 8.14265 7.32391 8.29488 7.42387 8.395L8.58087 9.552C8.64311 9.61539 8.72804 9.65138 8.81687 9.652L8.81687 9.652C8.90603 9.65154 8.99133 9.61555 9.05387 9.552C10.0094 8.58273 10.7243 7.40278 11.1409 6.107C11.1612 6.04188 11.1612 5.97212 11.1409 5.907C10.0478 2.404 6.81041 0.0135739 3.14087 1.8401e-06C2.14235 -0.000662436 1.15187 0.178532 0.216872 0.529002C0.11049 0.56884 0.0316503 0.660016 0.00758623 0.771035C-0.0164778 0.882053 0.0175338 0.997691 0.0978719 1.078L0.753872 1.725Z" transform="translate(4.866128 2.0079982)" id="Path_326" fill="#FFFFFF" fill-rule="evenodd" stroke="none" />
  </g>
</svg>