<?xml version="1.0" encoding="utf-8"?>
<svg width="21px" height="21px" viewBox="0 0 21 21" version="1.1" xmlns:xlink="http://www.w3.org/1999/xlink" xmlns="http://www.w3.org/2000/svg">
  <defs>
    <path d="M0 0L21 0L21 21L0 21L0 0Z" id="path_1" />
    <clipPath id="mask_1">
      <use xlink:href="#path_1" />
    </clipPath>
  </defs>
  <g id="facebook">
    <path d="M0 0L21 0L21 21L0 21L0 0Z" id="facebook-(BackgroundMask)" fill="none" fill-rule="evenodd" stroke="none" />
    <g clip-path="url(#mask_1)">
      <path d="M0.9625 0C0.707229 3.88578e-16 0.462414 0.101406 0.28191 0.28191C0.101406 0.462414 0 0.707229 0 0.9625L0 16.5375C0 16.6639 0.0248959 16.7891 0.073266 16.9058C0.121636 17.0226 0.192533 17.1287 0.28191 17.2181C0.371286 17.3075 0.477391 17.3784 0.594167 17.4267C0.710943 17.4751 0.836103 17.5 0.9625 17.5L9.345 17.5L9.345 10.7188L7.07 10.7188L7.07 8.09375L9.345 8.09375L9.345 6.125C9.29787 5.66279 9.35244 5.19586 9.50488 4.75697C9.65731 4.31808 9.90392 3.91785 10.2274 3.58436C10.5509 3.25087 10.9434 2.99219 11.3775 2.82646C11.8115 2.66073 12.2766 2.59197 12.74 2.625C13.421 2.62081 14.1017 2.65587 14.7787 2.73L14.7787 5.0925L13.3875 5.0925C12.285 5.0925 12.075 5.6175 12.075 6.37875L12.075 8.0675L14.7 8.0675L14.3588 10.6925L12.075 10.6925L12.075 17.5L16.5375 17.5C16.6639 17.5 16.7891 17.4751 16.9058 17.4267C17.0226 17.3784 17.1287 17.3075 17.2181 17.2181C17.3075 17.1287 17.3784 17.0226 17.4267 16.9058C17.4751 16.7891 17.5 16.6639 17.5 16.5375L17.5 0.9625C17.5 0.836103 17.4751 0.710943 17.4267 0.594167C17.3784 0.477391 17.3075 0.371286 17.2181 0.28191C17.1287 0.192533 17.0226 0.121636 16.9058 0.073266C16.7891 0.0248959 16.6639 -3.88578e-16 16.5375 0L16.5375 0L0.9625 0Z" transform="translate(1.75 1.75)" id="Vector" fill="#252B35" stroke="none" />
    </g>
  </g>
</svg>