<?xml version="1.0" encoding="utf-8"?>
<svg width="29px" height="29px" viewBox="0 0 29 29" version="1.1" xmlns:xlink="http://www.w3.org/1999/xlink" xmlns="http://www.w3.org/2000/svg">
  <g id="file-icon" transform="translate(0.5 0.5)">
    <path d="M1.999 0L26.001 0Q26.0992 0 26.1969 0.00962573Q26.2947 0.0192515 26.391 0.0384102Q26.4873 0.057569 26.5813 0.0860763Q26.6753 0.114584 26.766 0.152165Q26.8567 0.189746 26.9433 0.236039Q27.0299 0.282333 27.1116 0.336892Q27.1932 0.391452 27.2692 0.453752Q27.3451 0.516052 27.4145 0.585494Q27.4839 0.654935 27.5462 0.730848Q27.6085 0.806761 27.6631 0.888415Q27.7177 0.970069 27.764 1.05668Q27.8103 1.14329 27.8478 1.23402Q27.8854 1.32474 27.9139 1.41872Q27.9424 1.5127 27.9616 1.60901Q27.9807 1.70533 27.9904 1.80306Q28 1.9008 28 1.999L28 25.7551Q28 25.8533 27.9904 25.951Q27.9807 26.0487 27.9616 26.1451Q27.9424 26.2414 27.9139 26.3354Q27.8854 26.4293 27.8478 26.5201Q27.8103 26.6108 27.764 26.6974Q27.7177 26.784 27.6631 26.8657Q27.6085 26.9473 27.5462 27.0232Q27.4839 27.0991 27.4145 27.1686Q27.3451 27.238 27.2691 27.3003Q27.1932 27.3626 27.1116 27.4172Q27.0299 27.4717 26.9433 27.518Q26.8567 27.5643 26.766 27.6019Q26.6753 27.6395 26.5813 27.668Q26.4873 27.6965 26.391 27.7157Q26.2947 27.7348 26.1969 27.7444Q26.0992 27.7541 26.001 27.7541L1.999 27.7541Q1.9008 27.7541 1.80306 27.7444Q1.70533 27.7348 1.60901 27.7157Q1.5127 27.6965 1.41872 27.668Q1.32474 27.6395 1.23402 27.6019Q1.14329 27.5643 1.05668 27.518Q0.970069 27.4717 0.888415 27.4172Q0.806761 27.3626 0.730848 27.3003Q0.654935 27.238 0.585494 27.1686Q0.516052 27.0991 0.453752 27.0232Q0.391452 26.9473 0.336892 26.8657Q0.282333 26.784 0.236039 26.6974Q0.189746 26.6108 0.152165 26.5201Q0.114584 26.4293 0.0860763 26.3353Q0.057569 26.2414 0.0384102 26.1451Q0.0192515 26.0487 0.00962573 25.951Q0 25.8533 0 25.7551L0 1.999Q0 1.9008 0.00962573 1.80306Q0.0192515 1.70533 0.0384102 1.60901Q0.057569 1.5127 0.0860763 1.41872Q0.114584 1.32474 0.152165 1.23402Q0.189746 1.14329 0.236039 1.05668Q0.282333 0.970069 0.336892 0.888415Q0.391452 0.806761 0.453752 0.730848Q0.516052 0.654935 0.585494 0.585494Q0.654935 0.516052 0.730848 0.453752Q0.806761 0.391452 0.888415 0.336892Q0.970069 0.282333 1.05668 0.236039Q1.14329 0.189746 1.23402 0.152165Q1.32474 0.114584 1.41872 0.0860763Q1.5127 0.057569 1.60901 0.0384102Q1.70533 0.0192515 1.80306 0.00962573Q1.9008 0 1.999 0L1.999 0Z" id="base" fill="none" fill-rule="evenodd" stroke="#292929" stroke-width="1" />
  </g>
  <path d="M7.53042 8.82356e-05C10.3881 0.0224413 13.3833 1.14539 14.8262 3.5994C14.8948 3.71598 14.9812 3.89104 14.9812 3.89104C15.0678 4.12352 14.8366 4.38163 14.662 4.64446C13.1456 6.92658 10.2505 8 7.45082 8C4.6055 8 1.5815 6.88882 0.176018 4.40128C0.103914 4.27363 0.0143424 4.08116 0.0143424 4.08116C-0.0465056 3.9054 0.0989904 3.71175 0.211893 3.52198C1.59627 1.19445 4.49295 0.0227942 7.39595 8.82356e-05C7.44073 -2.94119e-05 7.48564 -2.94119e-05 7.53042 8.82356e-05ZM7.39829 0.470678C4.86284 0.490443 2.27006 1.38786 0.826939 3.43622C0.703016 3.6121 0.588471 3.79528 0.490692 3.98716C0.490692 3.98716 0.851794 4.64975 1.28406 5.13081C2.85228 6.876 5.34482 7.57612 7.7091 7.5267C10.3858 7.47082 13.2027 6.41494 14.49 4.02116C14.49 4.02116 14.4952 3.96775 14.4703 3.92246C13.1987 1.64692 10.3245 0.492561 7.52808 0.470678C7.48482 0.470561 7.44156 0.470561 7.39829 0.470678ZM7.51882 2.23539C8.68009 2.25739 9.62634 3.6301 9.08117 4.76493C8.60494 5.75611 7.10519 6.06388 6.28298 5.27717C5.31727 4.35305 5.8656 2.26598 7.47344 2.23539C7.49619 2.23527 7.49607 2.23527 7.51882 2.23539ZM7.47942 2.70598C6.62908 2.7221 5.93454 3.72998 6.33363 4.56058C6.68324 5.28823 7.78261 5.51364 8.3857 4.93658C8.79123 4.54846 8.9005 3.88269 8.63026 3.38351C8.40492 2.96763 7.98555 2.70269 7.47942 2.70598Z" transform="translate(6.5 10.5)" id="Fill-15" fill="#000000" fill-rule="evenodd" stroke="#000000" stroke-width="0.3" />
</svg>