<?xml version="1.0" encoding="utf-8"?>
<svg width="21px" height="21px" viewBox="0 0 21 21" version="1.1" xmlns:xlink="http://www.w3.org/1999/xlink" xmlns="http://www.w3.org/2000/svg">
  <defs>
    <path d="M0 0L21 0L21 21L0 21L0 0Z" id="path_1" />
    <clipPath id="mask_1">
      <use xlink:href="#path_1" />
    </clipPath>
  </defs>
  <g id="instagram">
    <path d="M0 0L21 0L21 21L0 21L0 0Z" id="instagram-(BackgroundMask)" fill="none" fill-rule="evenodd" stroke="none" />
    <g clip-path="url(#mask_1)">
      <path d="M12.8392 3.20446C12.6665 3.31983 12.5319 3.48382 12.4524 3.67568C12.373 3.86754 12.3522 4.07866 12.3927 4.28234C12.4332 4.48602 12.5332 4.67312 12.68 4.81996C12.8269 4.96681 13.014 5.06681 13.2177 5.10732C13.4213 5.14784 13.6325 5.12705 13.8243 5.04757C14.0162 4.9681 14.1802 4.83352 14.2955 4.66085C14.4109 4.48818 14.4725 4.28517 14.4725 4.0775C14.4725 3.79902 14.3619 3.53195 14.165 3.33504C13.968 3.13812 13.701 3.0275 13.4225 3.0275L13.4225 3.0275C13.2148 3.0275 13.0118 3.08908 12.8392 3.20446ZM17.045 3.01875C16.8225 2.43524 16.4762 1.90687 16.03 1.47C15.5967 1.0215 15.0671 0.677404 14.4812 0.46375C13.8011 0.206641 13.082 0.0675587 12.355 0.0524999C11.4275 -4.88944e-08 11.13 0 8.75 0C6.37 0 6.0725 -4.88944e-08 5.145 0.0524999C4.41801 0.0675587 3.69893 0.206641 3.01875 0.46375C2.43397 0.679567 1.90482 1.02337 1.47 1.47C1.0215 1.90328 0.677404 2.43288 0.46375 3.01875C0.206641 3.69893 0.0675587 4.41801 0.0524999 5.145C-4.88944e-08 6.0725 0 6.37 0 8.75C0 11.13 -4.88944e-08 11.4275 0.0524999 12.355C0.0675587 13.082 0.206641 13.8011 0.46375 14.4812C0.677404 15.0671 1.0215 15.5967 1.47 16.03C1.90482 16.4766 2.43397 16.8204 3.01875 17.0362C3.69893 17.2934 4.41801 17.4324 5.145 17.4475C6.0725 17.5 6.37 17.5 8.75 17.5C11.13 17.5 11.4275 17.5 12.355 17.4475C13.082 17.4324 13.8011 17.2934 14.4812 17.0362C15.0671 16.8226 15.5967 16.4785 16.03 16.03C16.4782 15.5948 16.8248 15.0659 17.045 14.4812C17.2945 13.7993 17.4305 13.081 17.4475 12.355C17.4475 11.4275 17.5 11.13 17.5 8.75C17.5 6.37 17.5 6.0725 17.4475 5.145L17.4475 5.145C17.4305 4.41901 17.2945 3.70073 17.045 3.01875ZM15.575 13.8775C15.4353 14.2583 15.2109 14.6024 14.9187 14.8837C14.6349 15.1729 14.2916 15.3969 13.9125 15.54C13.3907 15.7305 12.8404 15.8311 12.285 15.8375C11.41 15.8813 11.0862 15.89 8.785 15.89C6.48375 15.89 6.16 15.89 5.285 15.8375C4.70828 15.8483 4.13402 15.7595 3.5875 15.575C3.22506 15.4246 2.89744 15.2012 2.625 14.9187C2.33458 14.6377 2.11299 14.2933 1.9775 13.9125C1.76387 13.3833 1.64539 12.8204 1.6275 12.25C1.6275 11.375 1.575 11.0513 1.575 8.75C1.575 6.44875 1.575 6.125 1.6275 5.25C1.63142 4.68217 1.73508 4.11945 1.93375 3.5875C2.08779 3.21817 2.32423 2.88895 2.625 2.625C2.89084 2.32415 3.21938 2.08521 3.5875 1.925C4.12086 1.73254 4.683 1.63194 5.25 1.6275C6.125 1.6275 6.44875 1.575 8.75 1.575C11.0513 1.575 11.375 1.575 12.25 1.6275C12.8054 1.63387 13.3557 1.73447 13.8775 1.925C14.2751 2.07257 14.632 2.31249 14.9187 2.625C15.2055 2.89378 15.4295 3.22239 15.575 3.5875C15.7695 4.12032 15.8701 4.68281 15.8725 5.25C15.9162 6.125 15.925 6.44875 15.925 8.75C15.925 11.0513 15.9162 11.375 15.8725 12.25C15.8661 12.8054 15.7655 13.3557 15.575 13.8775ZM6.25857 5.02199C5.52155 5.51627 4.94758 6.21792 4.60918 7.03828C4.27078 7.85865 4.18313 8.76091 4.35732 9.63106C4.53151 10.5012 4.95971 11.3002 5.58782 11.9271C6.21593 12.554 7.01576 12.9806 7.88625 13.1531C8.75674 13.3256 9.65883 13.2362 10.4785 12.8962C11.2982 12.5562 11.9988 11.9809 12.4916 11.2429C12.9845 10.5049 13.2475 9.63742 13.2475 8.75C13.2487 8.15947 13.1331 7.57453 12.9073 7.02884C12.6816 6.48314 12.3502 5.98746 11.9323 5.57029C11.5143 5.15313 11.018 4.82272 10.4718 4.59806C9.92569 4.37341 9.34053 4.25894 8.75 4.26125L8.75 4.26125C7.86258 4.26298 6.99559 4.52771 6.25857 5.02199ZM7.13121 11.1727C6.65204 10.8525 6.27858 10.3975 6.05805 9.86504C5.83751 9.33263 5.77981 8.74677 5.89224 8.18156C6.00466 7.61634 6.28217 7.09716 6.68967 6.68967C7.09716 6.28217 7.61634 6.00466 8.18156 5.89224C8.74677 5.77981 9.33263 5.83751 9.86504 6.05805C10.3975 6.27858 10.8525 6.65204 11.1727 7.13121C11.4929 7.61037 11.6637 8.17371 11.6637 8.75C11.6637 9.13264 11.5884 9.51153 11.442 9.86504C11.2955 10.2186 11.0809 10.5398 10.8103 10.8103C10.5398 11.0809 10.2186 11.2955 9.86504 11.442C9.51153 11.5884 9.13264 11.6637 8.75 11.6637L8.75 11.6637C8.17371 11.6637 7.61037 11.4929 7.13121 11.1727Z" transform="translate(1.75 1.75)" id="Vector" fill="#252B35" fill-rule="evenodd" stroke="none" />
    </g>
  </g>
</svg>