<?xml version="1.0" encoding="utf-8"?>
<svg width="21px" height="21px" viewBox="0 0 21 21" version="1.1" xmlns:xlink="http://www.w3.org/1999/xlink" xmlns="http://www.w3.org/2000/svg">
  <defs>
    <path d="M0 0L21 0L21 21L0 21L0 0Z" id="path_1" />
    <clipPath id="mask_1">
      <use xlink:href="#path_1" />
    </clipPath>
  </defs>
  <g id="Linkedin">
    <path d="M0 0L21 0L21 21L0 21L0 0Z" id="Linkedin-(BackgroundMask)" fill="none" fill-rule="evenodd" stroke="none" />
    <g clip-path="url(#mask_1)">
      <path d="M1.3965 0C0.62517 0 0 0.60606 0 1.35408L0 17.5453C0 18.2933 0.62538 18.9 1.3965 18.9L17.5041 18.9C18.2755 18.9 18.8998 18.2931 18.8998 17.5453L18.8998 1.35408C18.8998 0.60627 18.2755 0 17.5041 0L17.5041 0L1.3965 0ZM2.87427 15.8206L2.87427 7.28742L5.72985 7.28742L5.72985 15.8206L5.72985 15.8206L2.87427 15.8206ZM4.28316 6.12171C3.32556 6.12171 2.7048 5.46672 2.7048 4.64688C2.7048 3.81045 3.34383 3.17331 4.32033 3.17331C5.29704 3.17331 5.89785 3.81024 5.91675 4.64688C5.91675 5.46693 5.29725 6.12171 4.30227 6.12171L4.30227 6.12171L4.28316 6.12171ZM13.1689 15.8206L13.1689 11.2552C13.1689 10.1077 12.7552 9.32505 11.7228 9.32505C10.933 9.32505 10.4643 9.8532 10.2585 10.3629C10.1821 10.5451 10.1634 10.7997 10.1634 11.0542L10.1634 15.8203L7.30905 15.8203C7.30905 15.8203 7.34643 8.08752 7.30905 7.28721L10.1636 7.28721L10.1636 8.49702C10.5426 7.91574 11.2197 7.08645 12.7359 7.08645C14.6147 7.08645 16.0236 8.30529 16.0236 10.9276L16.0236 15.8206L16.0236 15.8206L13.1689 15.8206ZM10.1636 8.49723L10.1636 8.52411L10.1451 8.52411C10.1501 8.51613 10.1569 8.50647 10.1636 8.49723Z" transform="translate(0.9501953 1.1777344)" id="Vector" fill="#252B35" fill-rule="evenodd" stroke="none" />
    </g>
  </g>
</svg>