<?xml version="1.0" encoding="utf-8"?>
<svg width="24px" height="24px" viewBox="0 0 24 24" version="1.1" xmlns:xlink="http://www.w3.org/1999/xlink" xmlns="http://www.w3.org/2000/svg">
  <defs>
    <path d="M0 0L24 0L24 24L0 24L0 0Z" id="path_1" />
    <clipPath id="mask_1">
      <use xlink:href="#path_1" />
    </clipPath>
  </defs>
  <g id="Linkedin">
    <path d="M0 0L24 0L24 24L0 24L0 0Z" id="Linkedin-(BackgroundMask)" fill="none" fill-rule="evenodd" stroke="none" />
    <g clip-path="url(#mask_1)">
      <path d="M1.596 0C0.71448 0 0 0.69264 0 1.54752L0 20.0518C0 20.9066 0.71472 21.6 1.596 21.6L20.0047 21.6C20.8862 21.6 21.5998 20.9064 21.5998 20.0518L21.5998 1.54752C21.5998 0.69288 20.8862 0 20.0047 0L20.0047 0L1.596 0ZM3.28488 18.0806L3.28488 8.32848L6.5484 8.32848L6.5484 18.0806L6.5484 18.0806L3.28488 18.0806ZM4.89504 6.99624C3.80064 6.99624 3.0912 6.24768 3.0912 5.31072C3.0912 4.3548 3.82152 3.62664 4.93752 3.62664C6.05376 3.62664 6.7404 4.35456 6.762 5.31072C6.762 6.24792 6.054 6.99624 4.91688 6.99624L4.91688 6.99624L4.89504 6.99624ZM15.0502 18.0806L15.0502 12.863C15.0502 11.5517 14.5774 10.6572 13.3975 10.6572C12.4949 10.6572 11.9592 11.2608 11.724 11.8433C11.6366 12.0516 11.6153 12.3425 11.6153 12.6334L11.6153 18.0804L8.3532 18.0804C8.3532 18.0804 8.39592 9.24288 8.3532 8.32824L11.6155 8.32824L11.6155 9.71088C12.0487 9.04656 12.8225 8.0988 14.5553 8.0988C16.7026 8.0988 18.3127 9.49176 18.3127 12.4886L18.3127 18.0806L18.3127 18.0806L15.0502 18.0806ZM11.6155 9.71112L11.6155 9.74184L11.5944 9.74184C11.6002 9.73272 11.6078 9.72168 11.6155 9.71112Z" transform="translate(1.0857697 1.3458862)" id="Vector" fill="#FFFFFF" fill-rule="evenodd" stroke="none" />
    </g>
  </g>
</svg>