<?xml version="1.0" encoding="utf-8"?>
<svg width="16px" height="11px" viewBox="0 0 16 11" version="1.1" xmlns:xlink="http://www.w3.org/1999/xlink" xmlns="http://www.w3.org/2000/svg">
  <g id="Group">
    <path d="M1.04248 8.85714L14.9575 8.85714Q15.0087 8.85714 15.0597 8.86216Q15.1107 8.86718 15.1609 8.87717Q15.2111 8.88717 15.2601 8.90203Q15.3091 8.9169 15.3565 8.93649Q15.4038 8.95609 15.4489 8.98024Q15.4941 9.00438 15.5367 9.03283Q15.5793 9.06128 15.6189 9.09377Q15.6585 9.12626 15.6947 9.16248Q15.7309 9.19869 15.7634 9.23828Q15.7959 9.27787 15.8243 9.32045Q15.8528 9.36303 15.8769 9.4082Q15.901 9.45337 15.9206 9.50068Q15.9402 9.548 15.9551 9.597Q15.97 9.64601 15.98 9.69624Q15.99 9.74647 15.995 9.79744Q16 9.84841 16 9.89962L16 9.95752Q16 10.0087 15.995 10.0597Q15.99 10.1107 15.98 10.1609Q15.97 10.2111 15.9551 10.2601Q15.9402 10.3091 15.9206 10.3565Q15.901 10.4038 15.8769 10.4489Q15.8528 10.4941 15.8243 10.5367Q15.7959 10.5793 15.7634 10.6189Q15.7309 10.6585 15.6947 10.6947Q15.6585 10.7309 15.6189 10.7634Q15.5793 10.7959 15.5367 10.8243Q15.4941 10.8528 15.4489 10.8769Q15.4038 10.901 15.3565 10.9206Q15.3091 10.9402 15.2601 10.9551Q15.2111 10.97 15.1609 10.98Q15.1107 10.99 15.0597 10.995Q15.0087 11 14.9575 11L1.04248 11Q0.991265 11 0.940298 10.995Q0.88933 10.99 0.839101 10.98Q0.788871 10.97 0.739863 10.9551Q0.690854 10.9402 0.643539 10.9206Q0.596224 10.901 0.551057 10.8769Q0.505891 10.8528 0.463308 10.8243Q0.420726 10.7959 0.381137 10.7634Q0.341548 10.7309 0.305335 10.6947Q0.269121 10.6585 0.236632 10.6189Q0.204142 10.5793 0.175689 10.5367Q0.147236 10.4941 0.123095 10.4489Q0.0989525 10.4038 0.0793539 10.3565Q0.0597553 10.3091 0.0448888 10.2601Q0.0300222 10.2111 0.0200309 10.1609Q0.0100396 10.1107 0.00501982 10.0597Q0 10.0087 0 9.95752L0 9.89962Q0 9.84841 0.00501982 9.79744Q0.0100396 9.74647 0.0200309 9.69624Q0.0300222 9.64601 0.0448888 9.597Q0.0597553 9.548 0.0793539 9.50068Q0.0989525 9.45337 0.123094 9.4082Q0.147236 9.36303 0.175689 9.32045Q0.204142 9.27787 0.236632 9.23828Q0.269121 9.19869 0.305335 9.16248Q0.341548 9.12626 0.381137 9.09377Q0.420726 9.06129 0.463308 9.03283Q0.505891 9.00438 0.551057 8.98024Q0.596224 8.95609 0.643539 8.9365Q0.690854 8.9169 0.739863 8.90203Q0.788871 8.88717 0.839101 8.87717Q0.88933 8.86718 0.940297 8.86216Q0.991265 8.85714 1.04248 8.85714Z" id="Rectangle" fill="#FFFFFF" fill-rule="evenodd" stroke="none" />
    <path d="M1.04248 4.28571L11.4793 4.28571Q11.5305 4.28571 11.5814 4.29073Q11.6324 4.29575 11.6826 4.30574Q11.7329 4.31574 11.7819 4.3306Q11.8309 4.34547 11.8782 4.36507Q11.9255 4.38467 11.9707 4.40881Q12.0158 4.43295 12.0584 4.4614Q12.101 4.48986 12.1406 4.52235Q12.1802 4.55484 12.2164 4.59105Q12.2526 4.62726 12.2851 4.66685Q12.3176 4.70644 12.346 4.74902Q12.3745 4.7916 12.3986 4.83677Q12.4228 4.88194 12.4424 4.92925Q12.462 4.97657 12.4769 5.02558Q12.4917 5.07458 12.5017 5.12481Q12.5117 5.17504 12.5167 5.22601Q12.5217 5.27698 12.5217 5.32819L12.5217 5.38609Q12.5217 5.43731 12.5167 5.48827Q12.5117 5.53924 12.5017 5.58947Q12.4917 5.6397 12.4769 5.68871Q12.462 5.73772 12.4424 5.78503Q12.4228 5.83235 12.3986 5.87751Q12.3745 5.92268 12.346 5.96526Q12.3176 6.00784 12.2851 6.04743Q12.2526 6.08702 12.2164 6.12324Q12.1802 6.15945 12.1406 6.19194Q12.101 6.22443 12.0584 6.25288Q12.0158 6.28133 11.9707 6.30548Q11.9255 6.32962 11.8782 6.34922Q11.8309 6.36882 11.7819 6.38368Q11.7329 6.39855 11.6826 6.40854Q11.6324 6.41853 11.5814 6.42355Q11.5305 6.42857 11.4793 6.42857L1.04248 6.42857Q0.991265 6.42857 0.940298 6.42355Q0.88933 6.41853 0.839101 6.40854Q0.788871 6.39855 0.739863 6.38368Q0.690854 6.36882 0.643539 6.34922Q0.596224 6.32962 0.551057 6.30548Q0.505891 6.28133 0.463308 6.25288Q0.420726 6.22443 0.381137 6.19194Q0.341548 6.15945 0.305335 6.12324Q0.269121 6.08702 0.236632 6.04743Q0.204142 6.00784 0.175689 5.96526Q0.147236 5.92268 0.123095 5.87751Q0.0989525 5.83235 0.0793539 5.78503Q0.0597553 5.73772 0.0448888 5.68871Q0.0300222 5.6397 0.0200309 5.58947Q0.0100396 5.53924 0.00501982 5.48827Q0 5.43731 0 5.38609L0 5.32819Q0 5.27698 0.00501982 5.22601Q0.0100396 5.17504 0.0200309 5.12481Q0.0300222 5.07459 0.0448888 5.02558Q0.0597553 4.97657 0.0793539 4.92925Q0.0989525 4.88194 0.123094 4.83677Q0.147236 4.7916 0.175689 4.74902Q0.204142 4.70644 0.236632 4.66685Q0.269121 4.62726 0.305335 4.59105Q0.341548 4.55483 0.381137 4.52235Q0.420726 4.48986 0.463308 4.4614Q0.505891 4.43295 0.551057 4.40881Q0.596224 4.38467 0.643539 4.36507Q0.690854 4.34547 0.739863 4.3306Q0.788871 4.31574 0.839101 4.30575Q0.88933 4.29575 0.940297 4.29073Q0.991265 4.28571 1.04248 4.28571Z" id="Rectangle-Copy-3" fill="#FFFFFF" fill-rule="evenodd" stroke="none" />
    <path d="M1.04248 0L7.30535 0Q7.35656 0 7.40753 0.00501982Q7.4585 0.0100396 7.50872 0.0200309Q7.55896 0.0300222 7.60796 0.0448888Q7.65697 0.0597553 7.70429 0.0793539Q7.7516 0.0989525 7.79677 0.123094Q7.84193 0.147236 7.88452 0.175689Q7.9271 0.204142 7.96669 0.236632Q8.00628 0.269121 8.04249 0.305335Q8.0787 0.341548 8.11119 0.381137Q8.14368 0.420726 8.17214 0.463308Q8.20059 0.505891 8.22473 0.551057Q8.24887 0.596224 8.26847 0.643539Q8.28807 0.690854 8.30294 0.739863Q8.3178 0.788871 8.32779 0.839101Q8.33779 0.88933 8.34281 0.940297Q8.34783 0.991265 8.34783 1.04248L8.34783 1.10038Q8.34783 1.15159 8.34281 1.20256Q8.33779 1.25353 8.32779 1.30376Q8.3178 1.35399 8.30294 1.40299Q8.28807 1.452 8.26847 1.49932Q8.24887 1.54663 8.22473 1.5918Q8.20059 1.63697 8.17214 1.67955Q8.14368 1.72213 8.11119 1.76172Q8.0787 1.80131 8.04249 1.83752Q8.00628 1.87374 7.96669 1.90623Q7.9271 1.93871 7.88452 1.96717Q7.84193 1.99562 7.79677 2.01976Q7.7516 2.0439 7.70429 2.0635Q7.65697 2.0831 7.60796 2.09797Q7.55896 2.11283 7.50872 2.12283Q7.4585 2.13282 7.40753 2.13784Q7.35656 2.14286 7.30535 2.14286L1.04248 2.14286Q0.991265 2.14286 0.940298 2.13784Q0.88933 2.13282 0.839101 2.12283Q0.788871 2.11283 0.739863 2.09797Q0.690854 2.0831 0.643539 2.0635Q0.596224 2.0439 0.551057 2.01976Q0.505891 1.99562 0.463308 1.96717Q0.420726 1.93871 0.381137 1.90623Q0.341548 1.87374 0.305335 1.83752Q0.269121 1.80131 0.236632 1.76172Q0.204142 1.72213 0.175689 1.67955Q0.147236 1.63697 0.123095 1.5918Q0.0989525 1.54663 0.0793539 1.49932Q0.0597553 1.452 0.0448888 1.40299Q0.0300222 1.35399 0.0200309 1.30376Q0.0100396 1.25353 0.00501982 1.20256Q0 1.15159 0 1.10038L0 1.04248Q0 0.991265 0.00501982 0.940298Q0.0100396 0.88933 0.0200309 0.839101Q0.0300222 0.788871 0.0448888 0.739863Q0.0597553 0.690854 0.0793539 0.643539Q0.0989525 0.596224 0.123094 0.551057Q0.147236 0.505891 0.175689 0.463308Q0.204142 0.420726 0.236632 0.381137Q0.269121 0.341548 0.305335 0.305335Q0.341548 0.269121 0.381137 0.236632Q0.420726 0.204142 0.463308 0.175689Q0.505891 0.147236 0.551057 0.123095Q0.596224 0.0989525 0.643539 0.0793539Q0.690854 0.0597553 0.739863 0.0448888Q0.788871 0.0300222 0.839101 0.0200309Q0.88933 0.0100396 0.940297 0.00501982Q0.991265 0 1.04248 0Z" id="Rectangle-Copy-4" fill="#FFFFFF" fill-rule="evenodd" stroke="none" />
  </g>
</svg>