<svg width="24" height="25" viewBox="0 0 24 25" fill="none" xmlns="http://www.w3.org/2000/svg">
<path fill-rule="evenodd" clip-rule="evenodd" d="M7.13914 10.2252C7.76374 7.35268 10.4153 5.2666 13.5051 5.2666C17.0963 5.2666 20.0112 8.05508 20 11.5035C19.9988 12.7085 19.6372 13.8859 18.961 14.8855L18.9512 14.9001L18.9405 14.9141C18.9283 14.93 18.9171 14.9465 18.9068 14.9636L18.9079 14.9618L18.9053 14.9663C18.8987 14.9778 18.8928 14.9889 18.8877 14.9992L18.8856 15.0033L19.4184 16.8877C19.4336 16.943 19.4441 16.9995 19.4498 17.0566L19.452 17.0811L19.4537 17.1038V17.1266C19.4537 17.6066 19.0627 17.9958 18.5802 17.9958H18.5496L18.5192 17.9927C18.43 17.9836 18.3425 17.9634 18.2586 17.9325L18.2336 17.9229L16.3078 17.2437L16.2928 17.2374C16.2583 17.2232 16.2213 17.2159 16.1824 17.216C16.1469 17.2161 16.1118 17.2224 16.0798 17.2345C15.8372 17.326 15.4878 17.4438 15.1638 17.5322C14.5754 17.6928 13.9071 17.8135 13.4033 17.8135C9.8405 17.8135 7 14.986 7 11.506C7.00023 11.0749 7.04696 10.6451 7.13914 10.2252ZM18.7957 11.501C18.8047 8.7262 16.4409 6.46488 13.5051 6.46488C10.9774 6.46488 8.81984 8.16232 8.31594 10.4797C8.2419 10.817 8.20447 11.1613 8.20429 11.5063C8.20429 14.3243 10.5057 16.6152 13.4033 16.6152C13.7763 16.6152 14.3519 16.5113 14.8452 16.3766C15.1084 16.3048 15.4008 16.2074 15.6102 16.1299L15.6538 16.1136C15.8223 16.0504 16.001 16.0179 16.1794 16.0177C16.3711 16.017 16.5611 16.0532 16.7388 16.1244L16.7379 16.124L16.756 16.1313C16.7503 16.129 16.7446 16.1267 16.7388 16.1244L18.0859 16.5995L17.6981 15.2279C17.6476 15.0468 17.662 14.8721 17.7156 14.6972L17.7213 14.6791C17.7573 14.567 17.8086 14.4588 17.8701 14.3538L17.8737 14.3477C17.9034 14.2984 17.9356 14.2505 17.9701 14.2043L17.9695 14.2052L17.9825 14.188C17.9783 14.1934 17.9742 14.1988 17.9701 14.2043L17.9807 14.1885C18.505 13.4017 18.7881 12.4801 18.7955 11.5347L18.7957 11.501Z" fill="white"/>
<path d="M5.68623 11.442C5.84428 11.1599 6.20256 11.0585 6.48649 11.2155C6.76677 11.3706 6.86981 11.7196 6.72037 11.9999L6.71442 12.0108C5.94331 13.3876 6.00607 15.0747 6.87398 16.3901L6.90278 16.4332C6.96183 16.5219 7.00681 16.6003 7.04121 16.6814C7.10134 16.8232 7.12867 16.9667 7.09671 17.1283L6.98408 17.7047L6.8121 18.5927L8.12794 18.0809C8.39522 17.9762 8.69272 17.9787 8.95781 18.0875L8.96152 18.0891L8.99233 18.1009C9.56314 18.3173 10.1559 18.4369 10.7217 18.4419L10.7586 18.4421C11.5866 18.4429 12.4001 18.2259 13.1163 17.813C13.3974 17.651 13.7574 17.7461 13.9205 18.0254C14.0835 18.3048 13.9878 18.6626 13.7067 18.8246C12.8108 19.3411 11.7931 19.6126 10.758 19.6115C10.0304 19.6115 9.28143 19.4629 8.56753 19.1915L8.53418 19.1787L6.69942 19.8924L6.69607 19.8938C6.60275 19.9314 6.50333 19.9518 6.40267 19.954L6.38251 19.9541L6.37094 19.9541C6.18626 19.9518 6.0072 19.8904 5.86038 19.779L5.84057 19.7636L5.83499 19.7589C5.60043 19.5636 5.48938 19.2587 5.54238 18.9628L5.91049 17.0622L5.88988 17.0313C4.79336 15.3694 4.70379 13.2426 5.65674 11.4954L5.68623 11.442Z" fill="white"/>
</svg>
