<?xml version="1.0" encoding="utf-8"?>
<!-- Generator: Adobe Illustrator 26.0.2, SVG Export Plug-In . SVG Version: 6.00 Build 0)  -->
<svg version="1.1" id="Layer_1" xmlns="http://www.w3.org/2000/svg" xmlns:xlink="http://www.w3.org/1999/xlink" x="0px" y="0px"
	 viewBox="0 0 231 190" style="enable-background:new 0 0 231 190;" xml:space="preserve">
<style type="text/css">
	.st0{fill-rule:evenodd;clip-rule:evenodd;fill:url(#Oval-4_00000011749616331124118710000015061986811186788532_);}
	.st1{fill-rule:evenodd;clip-rule:evenodd;fill:url(#Oval-4_00000157284886487835111040000009030371916313593761_);}
	.st2{fill-rule:evenodd;clip-rule:evenodd;fill:url(#Oval-4_00000034808295952182568840000009096790811878293437_);}
	.st3{fill-rule:evenodd;clip-rule:evenodd;fill:url(#Oval-4_00000024716656281806107370000007944628428758796951_);}
	.st4{fill-rule:evenodd;clip-rule:evenodd;fill:url(#Oval-4_00000145045209960032035310000009423919489905825430_);}
	.st5{fill:#FFFFFF;stroke:#FFFFFF;stroke-miterlimit:10;}
</style>
<g id="logo" transform="translate(2.5 2.5)">
	
		<linearGradient id="Oval-4_00000153674979287838270910000016045683780358524046_" gradientUnits="userSpaceOnUse" x1="-288.9944" y1="339.4745" x2="-289.3245" y2="338.0488" gradientTransform="matrix(151.0001 0 0 -151.0002 43765.5039 51286.6797)">
		<stop  offset="0" style="stop-color:#818E8E"/>
		<stop  offset="1" style="stop-color:#FFFFFF"/>
	</linearGradient>
	
		<path id="Oval-4" style="fill-rule:evenodd;clip-rule:evenodd;fill:url(#Oval-4_00000153674979287838270910000016045683780358524046_);" d="
		M110.7,173.1c41.7,0,75.5-33.8,75.5-75.5c0-41.7-33.8-75.5-75.5-75.5c-41.7,0-75.5,33.8-75.5,75.5C35.2,139.3,69,173.1,110.7,173.1
		z"/>
	
		<linearGradient id="Oval-4_00000119836334908382697050000009644410034496871339_" gradientUnits="userSpaceOnUse" x1="-287.8648" y1="338.8969" x2="-288.1949" y2="337.4712" gradientTransform="matrix(95.5259 0 0 -95.71 27578.7188 32458.0527)">
		<stop  offset="0" style="stop-color:#939E9E"/>
		<stop  offset="1" style="stop-color:#FFFFFF"/>
	</linearGradient>
	
		<path id="Oval-4_00000044856629704394309980000014993636684665676936_" style="fill-rule:evenodd;clip-rule:evenodd;fill:url(#Oval-4_00000119836334908382697050000009644410034496871339_);" d="
		M22.5,75.1c4.1,26.1,28.6,43.9,54.6,39.8c26.1-4.1,43.8-28.6,39.7-54.7c-4.1-26.1-28.6-43.9-54.6-39.8C36.2,24.5,18.4,49,22.5,75.1
		z"/>
	
		<linearGradient id="Oval-4_00000091007475043499514780000003696821224115285641_" gradientUnits="userSpaceOnUse" x1="-276.5701" y1="333.0068" x2="-276.9002" y2="331.5811" gradientTransform="matrix(20.1815 0 0 -20.2204 5595.3599 6735.4844)">
		<stop  offset="0" style="stop-color:#859191"/>
		<stop  offset="1" style="stop-color:#FFFFFF"/>
	</linearGradient>
	
		<path id="Oval-4_00000134943522758423747000000009250282096762975144_" style="fill-rule:evenodd;clip-rule:evenodd;fill:url(#Oval-4_00000091007475043499514780000003696821224115285641_);" d="
		M1.6,13.1c0.9,5.5,6,9.3,11.5,8.4c5.5-0.9,9.3-6.1,8.4-11.6c-0.9-5.5-6-9.3-11.5-8.4C4.5,2.5,0.7,7.6,1.6,13.1z"/>
	
		<linearGradient id="Oval-4_00000043457762735119849480000001847729134881517755_" gradientUnits="userSpaceOnUse" x1="-260.2045" y1="324.4725" x2="-260.5346" y2="323.0468" gradientTransform="matrix(9.4181 0 0 -9.4363 2512.2095 3236.9324)">
		<stop  offset="0" style="stop-color:#919C9C"/>
		<stop  offset="1" style="stop-color:#FFFFFF"/>
	</linearGradient>
	
		<path id="Oval-4_00000178169098427659735520000008943602448360044179_" style="fill-rule:evenodd;clip-rule:evenodd;fill:url(#Oval-4_00000043457762735119849480000001847729134881517755_);" d="
		M55.9,180.3c0.4,2.6,2.8,4.3,5.4,3.9c2.6-0.4,4.3-2.8,3.9-5.4c-0.4-2.6-2.8-4.3-5.4-3.9C57.2,175.4,55.5,177.8,55.9,180.3z"/>
	
		<linearGradient id="Oval-4_00000072990693900499455430000016216107612633653387_" gradientUnits="userSpaceOnUse" x1="-267.0232" y1="328.0284" x2="-267.3533" y2="326.6026" gradientTransform="matrix(12.1088 0 0 -12.1322 3452.8003 4005.0654)">
		<stop  offset="0" style="stop-color:#889494"/>
		<stop  offset="1" style="stop-color:#FFFFFF"/>
	</linearGradient>
	
		<path id="Oval-4_00000052070882508911858060000002240872214369059501_" style="fill-rule:evenodd;clip-rule:evenodd;fill:url(#Oval-4_00000072990693900499455430000016216107612633653387_);" d="
		M212.2,32.1c0.5,3.3,3.6,5.6,6.9,5c3.3-0.5,5.6-3.6,5-6.9c-0.5-3.3-3.6-5.6-6.9-5C213.9,25.6,211.6,28.8,212.2,32.1z"/>
</g>
<g id="Page-1">
	<path id="Shape" class="st5" d="M91.5,121.9c0-1-0.8-1.8-1.8-1.8s-1.8,0.8-1.8,1.8v3.6c0,5,4.1,9,9,9h39.8c5,0,9-4.1,9-9V71.3
		c0-5-4.1-9-9-9H96.9c-5,0-9,4.1-9,9v3.6c0,1,0.8,1.8,1.8,1.8s1.8-0.8,1.8-1.8v-3.6c0-3,2.4-5.4,5.4-5.4h39.8c3,0,5.4,2.4,5.4,5.4
		v54.3c0,3-2.4,5.4-5.4,5.4H96.9c-3,0-5.4-2.4-5.4-5.4V121.9z M83.7,80.8c-1.2-1-3-0.2-3,1.4v32.6c0,1.6,1.8,2.4,3,1.4l18.4-16.3
		c0.8-0.7,0.8-2,0-2.7L83.7,80.8z M98.2,98.4l-13.9,12.3V86.1L98.2,98.4z"/>
</g>
</svg>
