<?xml version="1.0" encoding="utf-8"?>
<svg width="231px" height="190px" viewBox="0 0 231 190" version="1.1" xmlns:xlink="http://www.w3.org/1999/xlink" xmlns="http://www.w3.org/2000/svg">
  <defs>
    <linearGradient x1="0.5" y1="0" x2="0.1699059" y2="1.4257203" id="gradient_1">
      <stop offset="0" stop-color="#818E8E" />
      <stop offset="1" stop-color="#FFFFFF" />
    </linearGradient>
    <linearGradient x1="0.5" y1="0" x2="0.1699059" y2="1.4257203" id="gradient_2">
      <stop offset="0" stop-color="#939E9E" />
      <stop offset="1" stop-color="#FFFFFF" />
    </linearGradient>
    <linearGradient x1="0.5" y1="0" x2="0.1699059" y2="1.4257203" id="gradient_3">
      <stop offset="0" stop-color="#859191" />
      <stop offset="1" stop-color="#FFFFFF" />
    </linearGradient>
    <linearGradient x1="0.5" y1="0" x2="0.1699059" y2="1.4257203" id="gradient_4">
      <stop offset="0" stop-color="#919C9C" />
      <stop offset="1" stop-color="#FFFFFF" />
    </linearGradient>
    <linearGradient x1="0.5" y1="0" x2="0.1699059" y2="1.4257203" id="gradient_5">
      <stop offset="0" stop-color="#889494" />
      <stop offset="1" stop-color="#FFFFFF" />
    </linearGradient>
    <filter filterUnits="userSpaceOnUse" color-interpolation-filters="sRGB" id="filter_1">
      <feFlood flood-opacity="0" result="BackgroundImageFix" />
      <feColorMatrix in="SourceAlpha" type="matrix" values="0 0 0 0 0 0 0 0 0 0 0 0 0 0 0 0 0 0 127 0" />
      <feMorphology radius="-1" operator="dilate" in="SourceAlpha" result="effect0_dropShadow" />
      <feOffset dx="0" dy="16" />
      <feGaussianBlur stdDeviation="8" />
      <feColorMatrix type="matrix" values="0 0 0 0 0.039215688 0 0 0 0 0.08627451 0 0 0 0 0.27450982 0 0 0 0.101960786 0" />
      <feBlend mode="normal" in2="BackgroundImageFix" result="effect0_dropShadow" />
      <feColorMatrix in="SourceAlpha" type="matrix" values="0 0 0 0 0 0 0 0 0 0 0 0 0 0 0 0 0 0 127 0" />
      <feOffset dx="0" dy="0" />
      <feGaussianBlur stdDeviation="0.5" />
      <feColorMatrix type="matrix" values="0 0 0 0 0.039215688 0 0 0 0 0.08627451 0 0 0 0 0.27450982 0 0 0 0.05882353 0" />
      <feBlend mode="normal" in2="effect0_dropShadow" result="effect1_dropShadow" />
      <feBlend mode="normal" in="SourceGraphic" in2="effect1_dropShadow" result="shape" />
    </filter>
  </defs>
  <g id="logo" transform="translate(2.5 2.5)">
    <path d="M113.478 173.112C155.175 173.112 188.978 139.309 188.978 97.6118C188.978 55.9143 155.175 22.1118 113.478 22.1118C71.7804 22.1118 37.9779 55.9143 37.9779 97.6118C37.9779 139.309 71.7804 173.112 113.478 173.112Z" id="Oval-4" fill="url(#gradient_1)" fill-rule="evenodd" stroke="none" filter="url(#filter_1)" />
    <path d="M22.52 75.146C26.646 101.246 51.1085 119.054 77.1587 114.92C103.209 110.786 120.982 86.2761 116.856 60.1759C112.73 34.0756 88.2675 16.2683 62.2173 20.4022C36.1672 24.536 18.3941 49.0457 22.52 75.146Z" id="Oval-4" fill="url(#gradient_2)" fill-rule="evenodd" stroke="none" />
    <path d="M1.5817 13.1435C2.45337 18.6577 7.62152 22.4198 13.1251 21.5464C18.6286 20.673 22.3835 15.495 21.5118 9.98081C20.6402 4.46667 15.472 0.704563 9.96845 1.57792C4.4649 2.45127 0.710016 7.62936 1.5817 13.1435Z" id="Oval-4" fill="url(#gradient_3)" fill-rule="evenodd" stroke="none" />
    <path d="M55.8946 180.34C56.3014 182.914 58.7132 184.669 61.2815 184.262C63.8499 183.854 65.6021 181.438 65.1954 178.865C64.7886 176.291 62.3768 174.536 59.8084 174.943C57.2401 175.351 55.4878 177.767 55.8946 180.34Z" id="Oval-4" fill="url(#gradient_4)" fill-rule="evenodd" stroke="none" />
    <path d="M212.153 32.0629C212.676 35.3713 215.777 37.6286 219.079 37.1046C222.381 36.5806 224.634 33.4737 224.111 30.1652C223.588 26.8568 220.487 24.5995 217.185 25.1235C213.883 25.6475 211.63 28.7544 212.153 32.0629Z" id="Oval-4" fill="url(#gradient_5)" fill-rule="evenodd" stroke="none" />
  </g>
  <g id="Group-35" transform="translate(69.477905 50.611816)">
    <path d="M13.6008 22.7801C18.0923 18.4818 23.7259 16.4927 27.0231 16.531C27.693 16.5283 28.2503 16.6076 28.6484 16.7171C30.4659 17.2123 32.2119 18.2985 34.1173 19.4476C36.0116 20.5557 38.142 21.8553 40.989 21.8882L40.9918 21.8882C43.5779 21.828 45.4421 20.6788 47.3474 19.7158C49.2417 18.7089 51.1333 17.7267 53.1677 17.2725C53.6865 17.1576 54.3152 17.0864 55.029 17.0864C58.6777 17.0591 64.2399 18.9852 68.6408 23.1413C73.0581 27.3055 76.4926 33.5354 76.5091 42.5533C76.5091 46.8051 75.7294 51.6862 73.8461 57.2485C72.1906 62.1569 69.1185 68.5154 65.4012 73.4375C63.548 75.8999 61.5329 78.0012 59.548 79.413C57.5548 80.833 55.6715 81.5334 53.9419 81.5279C52.7229 81.5224 51.5067 81.2106 50.1257 80.3706C48.8821 79.61 47.5313 78.729 46.0461 77.9848C44.5635 77.2543 42.9081 76.6195 40.989 76.6086C39.0672 76.6195 37.4117 77.2543 35.9292 77.9848C34.444 78.729 33.0932 79.61 31.8496 80.3706C30.4741 81.2078 29.2634 81.5197 28.0444 81.5252C26.323 81.5279 24.4397 80.833 22.4493 79.4157C19.4732 77.309 16.4533 73.6372 13.9495 69.5551C11.4374 65.4757 9.40034 60.9914 8.15118 57.3278C6.26783 51.8147 5.49088 46.9556 5.48814 42.7065C5.50735 33.508 9.08188 27.0866 13.6008 22.7801L13.6008 22.7801ZM2.95412 59.0926C4.81551 64.5181 8.04137 71.2077 12.2171 76.7481C14.3119 79.517 16.6427 82.0013 19.2564 83.8672C21.8618 85.7222 24.8213 86.9918 28.0444 86.9972C30.2929 87.0027 32.5936 86.3488 34.7295 85.03C36.0445 84.2202 37.2855 83.424 38.3836 82.8823C39.4818 82.3268 40.396 82.0697 40.989 82.0806C41.5793 82.0697 42.4935 82.3268 43.5944 82.8823C44.6898 83.424 45.9335 84.2202 47.2458 85.03C49.3845 86.3515 51.6906 87.0054 53.9419 87C57.1705 86.9972 60.1382 85.7222 62.7464 83.8617C66.6641 81.0491 69.975 76.863 72.7397 72.3759C75.4933 67.8861 77.6594 63.0899 79.0486 58.9995C81.0967 52.9529 81.9999 47.4754 81.9999 42.5533C82.0191 32.0935 77.8434 24.2192 72.3992 19.1521C66.9386 14.0796 60.3881 11.6445 55.029 11.6144C53.9638 11.6144 52.937 11.7156 51.9597 11.9345C49.0166 12.6021 46.6583 13.8935 44.7749 14.8812C44.6541 14.9469 44.5526 14.9961 44.4345 15.0591C46.1943 9.52135 51.3227 5.48298 57.4615 5.47204C58.9769 5.47204 60.2069 4.2463 60.2069 2.73602C60.2069 1.22574 58.9769 0 57.4615 0C48.0447 0 40.2258 6.7525 38.5785 15.661C38.0761 15.412 37.5435 15.1247 36.9423 14.7554C35.144 13.691 32.9614 12.241 30.1199 11.4475C29.1343 11.1739 28.0993 11.059 27.0231 11.059C21.8618 11.0973 15.3551 13.6254 9.82039 18.8129C4.31585 23.9976 -0.0191542 32.0333 6.36495e-05 42.7065C-0.00268176 47.6259 0.903303 53.087 2.95412 59.0926L2.95412 59.0926Z" id="Fill-102" fill="#FFFFFF" fill-rule="evenodd" stroke="none" />
    <path d="M51.4181 29.7037L51.4181 29.7037C52.4741 29.1157 53.3673 28.9025 54.1837 28.9001C54.7885 28.9025 55.3607 29.0201 55.9492 29.2603C57.3192 29.8091 58.7752 31.1174 60.0568 33.0064C61.4292 35.0228 62.2177 37.5414 62.3503 40.6578C62.4084 42.0103 63.4923 43.0564 64.7763 42.9976C66.0602 42.9388 67.0557 41.7947 66.9976 40.4422C66.8417 36.5687 65.809 33.0382 63.8342 30.1472C62.1991 27.7584 60.1755 25.742 57.6332 24.6909C56.5562 24.2499 55.3886 24 54.1837 24C52.5462 23.9976 50.8622 24.4631 49.2341 25.3769C48.1013 26.0115 47.6687 27.4938 48.2734 28.6894C48.8759 29.885 50.2831 30.3383 51.4181 29.7037" id="Fill-103" fill="#FFFFFF" fill-rule="evenodd" stroke="none" />
  </g>
</svg>