<?xml version="1.0" encoding="utf-8"?>
<svg width="181px" height="88px" viewBox="0 0 181 88" version="1.1" xmlns:xlink="http://www.w3.org/1999/xlink" xmlns="http://www.w3.org/2000/svg">
  <g id="Group-10">
    <path d="M17.5928 47.9788C19.0884 44.4971 18.0784 39.8752 13.7163 39.5706C11.1222 39.3895 8.84882 41.4729 7.20073 43.222C4.76643 45.8052 2.96475 49.0047 1.66917 52.2932C-0.6642 58.2144 -0.822902 64.8361 2.94757 70.1746C4.85968 72.8814 7.67464 73.7079 10.8183 72.8598C15.8197 71.511 20.2301 67.6492 24.0766 64.3662C30.8957 58.5465 37.1645 52.0685 43.3846 45.6216C47.2801 41.5842 51.1814 37.5402 54.9734 33.3985C52.9674 37.3873 50.9784 41.3849 48.9831 45.379C45.8555 51.6388 42.8534 58.0586 39.5515 64.2872C37.5306 67.443 35.6289 70.6812 33.9625 74.0139L33.959 74.0195L33.9594 74.0201C33.8013 74.3397 34.5451 75.1813 34.8106 75.4818C34.8502 75.5266 34.8791 75.5594 34.8929 75.5766L34.9009 75.59L34.9015 75.5889L34.9017 75.59C36.7059 72.7325 38.3276 69.7525 39.893 66.7466C42.6035 62.4111 45.579 58.2265 48.6199 54.1797C58.7652 40.6786 71.0435 28.2218 85.5508 19.453C95.6329 13.3591 106.831 8.94352 118.121 5.68691C127.633 2.94345 138.522 0.290155 148.46 2.03666C150.732 2.43581 153.088 3.18536 154.862 4.71818C156.495 6.12858 156.591 8.34644 156.32 10.3748C155.872 13.7315 154.17 16.8818 152.423 19.7224C149.534 24.4216 145.912 28.6671 142.199 32.7242C142.131 32.7986 142.164 32.9503 142.249 33.1313C138.713 34.9011 135.119 36.5537 131.641 38.4401C127.606 40.6292 123.758 43.1683 120.062 45.8935C116.333 48.6437 112.778 51.6373 109.393 54.8136C111.129 52.534 112.849 50.2424 114.565 47.9478C121.376 38.8368 128.071 29.6371 134.712 20.4009C135.64 19.1106 136.567 17.82 137.491 16.5267C137.903 15.9487 136.322 16.4798 136.157 16.6067C133.039 19.0108 130.195 21.7999 127.352 24.5188C122.934 28.7457 118.604 33.0665 114.292 37.4023C105.284 46.4605 96.3933 55.6361 87.4819 64.7907C85.3557 66.975 83.2404 69.1735 81.0852 71.33C81.6378 70.3731 82.2558 69.4457 82.8345 68.5222C89.561 57.7862 96.7165 47.2157 104.258 37.0416C104.275 37.0176 104.309 36.9749 104.354 36.9162C104.944 36.1544 107.616 32.7029 106.015 32.5802C104.362 32.4535 102.43 33.9268 100.975 35.0368C100.676 35.2644 100.398 35.4768 100.146 35.657C93.4263 40.4637 86.9993 45.9203 81.1374 51.7534C80.8585 52.031 80.5804 52.3094 80.3031 52.5885C81.8268 49.5005 83.3283 46.016 83.2862 42.7727C83.2311 38.548 78.3798 42.6916 77.2726 43.8513C73.5638 47.735 70.4702 52.2837 67.4656 56.7208C64.3935 61.2585 61.3914 65.9126 58.8971 70.8018C58.1865 72.1949 55.9688 76.6434 59.5206 74.7593C61.2506 73.8419 62.7018 72.2852 64.0848 70.9288C66.5419 68.52 68.8858 65.9926 71.2396 63.4824C76.505 57.8673 81.6908 52.1094 87.4498 46.9948C91.0287 43.8171 94.7531 40.7782 98.5344 37.8493C99.993 36.7194 101.474 35.6089 103.017 34.5975C103.078 34.5578 103.17 34.4913 103.28 34.4111C103.868 33.9845 104.992 33.1693 104.835 33.9245C104.579 35.1531 103.397 36.4067 102.678 37.373C101.894 38.4269 101.126 39.4923 100.361 40.5602C98.4863 43.1756 96.6479 45.8172 94.8206 48.466C90.9171 54.1248 87.0715 59.8266 83.334 65.5977C83.3235 65.6138 83.308 65.6377 83.2878 65.6688C82.6936 66.5832 78.0317 73.7573 78.5885 73.9901C79.7441 74.4737 81.7129 72.2101 82.7908 70.9707C83.0226 70.7042 83.2132 70.4851 83.3457 70.3508C99.7288 53.7395 115.556 36.4673 132.735 20.6729C133.165 20.2772 133.597 19.882 134.032 19.4902C124.183 33.2896 114.285 47.1209 103.766 60.4153C103.397 60.8047 103.03 61.1962 102.665 61.5896C99.9871 64.4755 97.3517 67.4763 95.0504 70.6811C94.636 71.2587 96.3258 70.6598 96.5301 70.4745C99.1991 68.0499 101.411 65.0263 103.648 62.2123C104.383 61.2867 105.114 60.3573 105.842 59.4249C110.214 54.9258 114.978 50.7848 119.851 47.0425C123.658 44.1195 127.67 41.4776 131.854 39.1363C135.359 37.1751 139.017 35.5017 142.618 33.7175C142.712 33.8441 142.808 33.9625 142.891 34.0588C138.354 39.0699 133.999 44.242 129.626 49.2499C125.209 54.3088 120.793 59.3692 116.346 64.4018L116.311 64.4406L116.312 64.4406L116.312 64.441C115.68 65.1555 117.392 64.6891 117.69 64.3584C120.625 61.1018 123.725 57.9847 126.902 54.9696C131.904 50.2227 137.302 45.0843 144.119 43.3272C145.984 42.8465 151.213 41.594 150.338 45.1926C149.909 46.9555 148.541 48.5056 147.497 49.9273C146.2 51.6929 145.019 53.5435 143.933 55.4474C141.951 58.9245 137.599 68.5207 145.425 67.5218C146.396 67.3979 147.365 67.1882 148.327 66.9134C144.064 72.9848 140.779 79.824 139.753 87.1874C139.685 87.6711 141.359 87.1493 141.432 86.6278C142.447 79.3429 145.594 72.5253 149.884 66.413C153.244 65.2185 156.498 63.3556 159.47 61.7272C165.079 58.6545 170.578 55.1439 175.454 50.9802C175.536 50.9102 175.633 50.8286 175.743 50.7363C177.489 49.2659 182.429 45.1057 180.6 42.8149C179.066 40.8934 174.489 43.451 172.628 44.4907C172.487 44.5693 172.362 44.6392 172.255 44.6979C164.846 48.7534 158.307 54.7909 152.818 61.1661C151.528 62.664 150.279 64.224 149.096 65.8412C147.445 66.4499 145.589 66.9307 143.996 66.3423C140.895 65.1977 143.111 60.0761 143.961 58.159C145.678 54.2823 148.225 50.9901 150.581 47.51C151.56 46.0641 153.351 42.9764 150.9 41.9951C148.541 41.0509 145.266 42.1079 142.791 42.9069C142.477 43.0084 142.175 43.1058 141.89 43.1944C139.174 44.0373 136.72 45.7449 134.449 47.4135C131.979 49.227 129.652 51.2413 127.391 53.3141C131.358 48.7755 135.316 44.2279 139.274 39.6816C141.61 36.9995 143.972 34.3546 146.393 31.7738C153.942 27.7111 161.257 23.0893 167.98 17.7488C170.063 16.0941 172.096 14.3509 173.955 12.4423C174.863 11.5098 175.955 10.433 176.403 9.1743C176.76 8.17098 175.483 8.273 174.89 8.40218C173.089 8.79338 171.379 9.83303 169.811 10.7575C161.985 15.369 155.13 21.3201 148.758 27.8137C151.312 24.6262 153.634 21.253 155.408 17.5998C156.894 14.5422 158.145 10.7802 156.935 7.41949C154.37 0.297852 145.886 -0.213454 139.449 0.051912C128.185 0.51667 116.934 3.77987 106.413 7.6504C94.0115 12.2122 82.5106 18.3347 72.2323 26.6996C62.1969 34.8668 53.4559 44.6067 45.8547 55.0772C48.131 50.5626 50.3818 46.0349 52.6416 41.5121C54.7363 37.3203 56.8304 33.1277 58.9596 28.9532C60.9038 26.7345 62.8065 24.4799 64.6511 22.1763C67.786 18.2607 71.2095 14.0441 73.1333 9.3511C73.4335 8.61877 73.8014 7.71491 73.5151 6.92431C73.3033 6.3397 72.7943 5.1833 72.0048 5.34494C69.8894 5.77928 68.0186 9.17919 66.9998 10.7897C64.0891 15.3915 61.6467 20.3139 59.1605 25.1525C58.7666 25.919 58.374 26.6861 57.9824 27.4538C55.2273 30.5721 52.3822 33.6117 49.5316 36.6233C42.5914 43.9557 35.6195 51.2801 28.2566 58.1891C23.6766 62.487 18.8496 66.9334 13.2647 69.8953C10.3313 71.4516 6.46499 72.6904 3.6354 70.2706C1.1788 68.1701 0.821901 64.2618 0.952813 61.2485C1.12102 57.3758 2.49267 53.5819 4.31263 50.1992C5.84627 47.3487 7.88856 44.6261 10.4834 42.6659C12.0017 41.5191 17.094 39.6358 17.3431 42.8576C17.4341 44.0316 17.1131 45.3317 16.6508 46.4078C16.5182 46.7164 17.0065 47.2649 17.3297 47.6279C17.4894 47.8073 17.6088 47.9414 17.5928 47.9788ZM67.5454 15.5491C65.9225 17.8319 64.2117 20.0508 62.4389 22.2212L62.4786 22.1455C64.6277 18.0517 66.723 13.7685 69.5215 10.068C70.2664 9.08316 71.0932 8.10417 72.0893 7.36451C72.211 7.27423 72.3386 7.18792 72.4722 7.11319C72.2303 7.93367 71.775 8.74134 71.4139 9.43979C70.3074 11.5807 68.939 13.5885 67.5454 15.5491ZM167.803 16.8416C161.67 21.8856 154.932 26.1942 148.01 30.0686C152.402 25.4919 157.006 21.1401 162.008 17.1671C164.728 15.0071 167.55 12.9564 170.53 11.1732C170.661 11.0944 170.842 10.9755 171.056 10.8346C172.073 10.1657 173.841 9.00271 174.66 9.29798C175.261 9.51526 173.532 11.4847 173.361 11.6789L173.357 11.6833C171.692 13.581 169.747 15.2427 167.803 16.8416ZM77.5396 55.2676C77.5011 55.3443 77.4943 55.403 77.5123 55.4462C73.3188 59.8045 69.2525 64.2871 65.0505 68.6374C63.2731 70.4778 61.4855 72.4074 59.4327 73.9443C59.4034 73.9662 59.3252 74.0097 59.2393 74.0575C59.1967 74.0812 59.1522 74.1059 59.1108 74.1296C59.107 74.1177 59.1032 74.104 59.0996 74.0885C59.0235 73.7565 59.2166 73.2835 59.3625 72.9259C59.3936 72.8499 59.4225 72.7791 59.4462 72.716C60.9937 68.5908 63.6478 64.7338 65.9928 61.0416C69.008 56.2951 72.1994 51.6371 75.6878 47.2282C76.9398 45.6458 78.2463 44.0795 79.7223 42.7022C79.9503 42.4894 80.6529 41.9052 80.7135 41.8898C81.4037 41.7158 81.6037 43.1188 81.6095 43.561C81.6377 45.7136 80.7168 47.9771 79.8998 49.9851C79.8199 50.1816 79.7409 50.3757 79.6639 50.567C79.0226 52.1604 78.313 53.7344 77.5396 55.2676ZM158.75 61.311C156.163 62.7406 153.508 64.0628 150.772 65.1795C155.157 59.2406 160.591 54.0051 166.127 49.702C168.373 47.9559 170.73 46.343 173.225 44.9771C174.658 44.1925 176.356 43.2813 178.03 43.2494C179.302 43.2252 179.345 44.4876 179.012 45.4183C178.318 47.3541 176.426 48.9592 174.957 50.2899C170.128 54.6628 164.425 58.1752 158.75 61.311ZM166.798 68.231C166.873 68.3128 166.995 68.3849 167.065 68.4225C167.267 68.5324 167.503 68.6027 167.738 68.6358C168.019 68.675 168.524 68.6861 168.517 68.3509C168.495 67.3541 166.806 67.0494 165.927 67.421C165.553 67.5789 165.826 67.8644 166.073 67.9982C166.258 68.098 166.53 68.1965 166.798 68.231ZM166.688 67.8427C166.689 67.8452 166.69 67.8477 166.692 67.8502C166.66 67.8244 166.653 67.815 166.658 67.8169C166.662 67.8185 166.674 67.8281 166.688 67.8427ZM166.683 67.834C166.675 67.82 166.666 67.8082 166.664 67.8058C166.662 67.8035 166.666 67.8105 166.683 67.834Z" id="Combined-Shape" fill="#3E3B3B" fill-opacity="0.5019608" fill-rule="evenodd" stroke="none" />
  </g>
</svg>