<?xml version="1.0" encoding="utf-8"?>
<svg width="21px" height="21px" viewBox="0 0 21 21" version="1.1" xmlns:xlink="http://www.w3.org/1999/xlink" xmlns="http://www.w3.org/2000/svg">
  <g id="smile-1">
    <g id="Layer-2">
      <g id="smile">
        <path d="M4.66652 1.76957C2.9398 2.92332 1.59399 4.5632 0.79927 6.48182C0.00454946 8.40045 -0.203386 10.5116 0.201759 12.5484C0.606904 14.5852 1.60693 16.4562 3.07538 17.9246C4.54384 19.3931 6.41476 20.3931 8.45156 20.7982C10.4884 21.2034 12.5996 20.9955 14.5182 20.2007C16.4368 19.406 18.0767 18.0602 19.2304 16.3335C20.3842 14.6068 21 12.5767 21 10.5C21 7.71523 19.8938 5.04451 17.9246 3.07538C15.9555 1.10625 13.2848 2.20876e-15 10.5 7.36253e-16L10.5 0C8.4233 1.47251e-15 6.39323 0.615814 4.66652 1.76957ZM15.6446 6.67623C15.8661 6.82424 16.0387 7.03462 16.1407 7.28076C16.2426 7.5269 16.2693 7.79774 16.2173 8.05904C16.1654 8.32034 16.0371 8.56036 15.8487 8.74875C15.6603 8.93714 15.4203 9.06543 15.159 9.11741C14.8977 9.16938 14.6268 9.14271 14.3807 9.04075C14.1346 8.9388 13.9242 8.76614 13.7762 8.54463C13.6282 8.3231 13.5492 8.06267 13.5492 7.79625C13.5492 7.43899 13.6911 7.09637 13.9437 6.84375C14.1963 6.59113 14.5389 6.44921 14.8962 6.44921L14.8962 6.44921C15.1626 6.44921 15.423 6.52821 15.6446 6.67623ZM6.8522 6.67623C7.07372 6.82424 7.24637 7.03462 7.34832 7.28076C7.45028 7.5269 7.47695 7.79774 7.42498 8.05904C7.373 8.32034 7.24471 8.56036 7.05632 8.74875C6.86793 8.93714 6.62792 9.06543 6.36662 9.11741C6.10532 9.16938 5.83447 9.14271 5.58833 9.04075C5.34219 8.9388 5.13181 8.76614 4.9838 8.54463C4.83578 8.3231 4.75678 8.06267 4.75678 7.79625C4.75678 7.43899 4.8987 7.09637 5.15132 6.84375C5.40394 6.59113 5.74656 6.44921 6.10382 6.44921L6.10382 6.44921C6.37024 6.44921 6.63068 6.52821 6.8522 6.67623ZM10.594 17.1412L10.4558 17.1412C7.84737 17.0846 5.81645 15.4309 4.84244 14.4582C4.7586 14.3754 4.6934 14.2756 4.65119 14.1655C4.60898 14.0554 4.59073 13.9376 4.59766 13.8199C4.60459 13.7023 4.63654 13.5874 4.69138 13.4831C4.74622 13.3787 4.82268 13.2873 4.91566 13.2148C5.07443 13.0908 5.27293 13.0288 5.47406 13.0405C5.67519 13.0522 5.86517 13.1368 6.00849 13.2784C6.79737 14.0645 8.46632 15.4433 10.4986 15.4889C12.0184 15.5179 13.5257 14.7829 14.9653 13.3005C15.0799 13.1809 15.2277 13.0985 15.3897 13.0638C15.5516 13.029 15.7202 13.0436 15.8738 13.1056C16.0274 13.1676 16.1589 13.2742 16.2513 13.4116C16.3437 13.549 16.3929 13.711 16.3924 13.8766C16.3921 14.0864 16.3104 14.288 16.1645 14.4389L16.1645 14.4389C14.4292 16.2349 12.5586 17.1412 10.594 17.1412Z" transform="translate(-2.8679952E-09 0)" id="icon" fill="#818E8E" fill-rule="evenodd" stroke="none" />
      </g>
    </g>
  </g>
</svg>