<?xml version="1.0" encoding="utf-8"?>
<svg width="14px" height="13px" viewBox="0 0 14 13" version="1.1" xmlns:xlink="http://www.w3.org/1999/xlink" xmlns="http://www.w3.org/2000/svg">
  <g id="passage-of-time">
    <path d="M13.6812 5.52356C13.6337 5.42331 13.5322 5.35918 13.4199 5.35918L12.5662 5.35918C12.0234 2.44169 9.43688 0.223889 6.33675 0.223889C2.84288 0.223889 0 3.03969 0 6.50029C0 9.96089 2.84258 12.7764 6.33675 12.7764C8.59163 12.7764 10.6945 11.5743 11.8247 9.63993C11.984 9.36693 11.8901 9.01824 11.6142 8.86022C11.3388 8.7022 10.9865 8.79522 10.8275 9.06822C9.90238 10.6516 8.18154 11.6356 6.33675 11.6356C3.47812 11.6356 1.15208 9.33198 1.15208 6.50087C1.15208 3.66918 3.47812 1.36558 6.33675 1.36558C8.799 1.36558 10.862 3.07609 11.3875 5.35947L10.5405 5.35947C10.4282 5.35947 10.327 5.4236 10.2792 5.52384C10.2317 5.62409 10.2471 5.74224 10.3189 5.82747L11.7591 7.53913C11.814 7.60413 11.8947 7.64169 11.9805 7.64169C12.066 7.64169 12.147 7.60384 12.2016 7.53913L13.6418 5.82747C13.7136 5.74196 13.7287 5.6238 13.6812 5.52356Z" id="Path" fill="#FFFFFF" stroke="none" />
    <path d="M6.33675 1.65042C6.01854 1.65042 5.76071 1.9058 5.76071 2.22098L5.76071 5.68302C5.50025 5.86387 5.32875 6.162 5.32875 6.50058C5.32875 7.0512 5.78113 7.49927 6.33704 7.49927C6.48929 7.49927 6.63279 7.46316 6.76229 7.40278L8.76604 8.54822C8.85704 8.60051 8.95563 8.62507 9.05363 8.62507C9.25254 8.62507 9.44621 8.5228 9.55296 8.33964C9.71192 8.06722 9.61771 7.71796 9.34179 7.56051L7.336 6.41333C7.30917 6.11173 7.15079 5.84827 6.91337 5.6836L6.91337 2.22098C6.91279 1.90609 6.65467 1.65042 6.33675 1.65042ZM6.33675 6.92813C6.09846 6.92813 5.90479 6.73602 5.90479 6.50058C5.90479 6.26484 6.09875 6.07273 6.33675 6.07273C6.57475 6.07273 6.76871 6.26484 6.76871 6.50058C6.76871 6.73602 6.57475 6.92813 6.33675 6.92813Z" id="Shape" fill="#FFFFFF" stroke="none" />
  </g>
</svg>