<?xml version="1.0" encoding="utf-8"?>
<svg width="24px" height="24px" viewBox="0 0 24 24" version="1.1" xmlns:xlink="http://www.w3.org/1999/xlink" xmlns="http://www.w3.org/2000/svg">
  <defs>
    <path d="M0 0L24 0L24 24L0 24L0 0Z" id="path_1" />
    <clipPath id="mask_1">
      <use xlink:href="#path_1" />
    </clipPath>
  </defs>
  <g id="Twitter">
    <path d="M0 0L24 0L24 24L0 24L0 0Z" id="Twitter-(BackgroundMask)" fill="none" fill-rule="evenodd" stroke="none" />
    <g clip-path="url(#mask_1)">
      <path d="M19.5141 2.85C20.4516 2.2875 21.1734 1.39687 21.5109 0.3375C20.6344 0.857812 19.6641 1.2375 18.6281 1.43906C17.7984 0.553125 16.6172 0 15.3141 0C12.8062 0 10.7766 2.03437 10.7766 4.54219C10.7766 4.89844 10.8141 5.24531 10.8937 5.57813C7.12031 5.39063 3.77344 3.58125 1.5375 0.829687C1.14844 1.5 0.923437 2.28281 0.923437 3.1125C0.923437 4.6875 1.72969 6.07969 2.94844 6.89531C2.19844 6.87656 1.49531 6.67031 0.885937 6.32813L0.885937 6.38437C0.885937 8.5875 2.45156 10.4203 4.52812 10.8375C4.14844 10.9406 3.74531 10.9969 3.33281 10.9969C3.04219 10.9969 2.75625 10.9687 2.47969 10.9125C3.05625 12.7172 4.73437 14.0297 6.72187 14.0672C5.17031 15.2859 3.21094 16.0125 1.08281 16.0125C0.717188 16.0125 0.35625 15.9891 0 15.9469C2.00156 17.25 4.3875 18 6.94687 18C15.3047 18 19.8703 11.0766 19.8703 5.07187C19.8703 4.875 19.8656 4.67812 19.8563 4.48594C20.7422 3.84375 21.5109 3.04688 22.1203 2.13281C21.3047 2.49375 20.4328 2.7375 19.5141 2.85Z" transform="translate(0.94218445 3)" id="Vector" fill="#FFFFFF" stroke="none" />
    </g>
  </g>
</svg>