<?xml version="1.0" encoding="utf-8"?>
<svg width="21px" height="21px" viewBox="0 0 21 21" version="1.1" xmlns:xlink="http://www.w3.org/1999/xlink" xmlns="http://www.w3.org/2000/svg">
  <defs>
    <path d="M0 0L21 0L21 21L0 21L0 0Z" id="path_1" />
    <clipPath id="mask_1">
      <use xlink:href="#path_1" />
    </clipPath>
  </defs>
  <g id="Twitter">
    <path d="M0 0L21 0L21 21L0 21L0 0Z" id="Twitter-(BackgroundMask)" fill="none" fill-rule="evenodd" stroke="none" />
    <g clip-path="url(#mask_1)">
      <path d="M17.0748 2.49375C17.8951 2.00156 18.5268 1.22227 18.8221 0.295312C18.0551 0.750586 17.2061 1.08281 16.2996 1.25918C15.5736 0.483984 14.54 0 13.3998 0C11.2055 0 9.42949 1.78008 9.42949 3.97441C9.42949 4.28613 9.4623 4.58965 9.53203 4.88086C6.23027 4.7168 3.30176 3.13359 1.34531 0.725976C1.00488 1.3125 0.808008 1.99746 0.808008 2.72344C0.808008 4.10156 1.51348 5.31973 2.57988 6.0334C1.92363 6.01699 1.3084 5.83652 0.775195 5.53711L0.775195 5.58633C0.775195 7.51406 2.14512 9.11777 3.96211 9.48281C3.62988 9.57305 3.27715 9.62227 2.91621 9.62227C2.66191 9.62227 2.41172 9.59766 2.16973 9.54844C2.67422 11.1275 4.14258 12.276 5.88164 12.3088C4.52402 13.3752 2.80957 14.0109 0.947461 14.0109C0.627539 14.0109 0.311719 13.9904 0 13.9535C1.75137 15.0938 3.83906 15.75 6.07852 15.75C13.3916 15.75 17.3865 9.69199 17.3865 4.43789C17.3865 4.26562 17.3824 4.09336 17.3742 3.9252C18.1494 3.36328 18.8221 2.66602 19.3553 1.86621C18.6416 2.18203 17.8787 2.39531 17.0748 2.49375Z" transform="translate(0.8244114 2.625)" id="Vector" fill="#252B35" stroke="none" />
    </g>
  </g>
</svg>