<?xml version="1.0" encoding="utf-8"?>
<svg width="15px" height="15px" viewBox="0 0 15 15" version="1.1" xmlns:xlink="http://www.w3.org/1999/xlink" xmlns="http://www.w3.org/2000/svg">
  <g id="user-circle" transform="translate(0.19995117 0.19995117)">
    <path d="M11.5745 10.1584L9.1546 9.0587C9.9736 8.4182 10.5 7.4207 10.5 6.3C10.5 4.3673 8.9334 2.8 7 2.8C5.0673 2.8 3.5 4.3673 3.5 6.3C3.5 7.4207 4.0264 8.4182 4.8461 9.0587L2.4262 10.1584C2.1959 10.2634 1.9936 10.4153 1.8312 10.6022C1.1179 9.5809 0.7 8.3391 0.7 7C0.7 3.521 3.521 0.7 7 0.7C10.4797 0.7 13.3 3.521 13.3 7C13.3 8.3391 12.8821 9.5809 12.1695 10.6022C12.0071 10.4153 11.8048 10.2634 11.5745 10.1584M4.2 6.3C4.2 4.7537 5.4537 3.5 7 3.5C8.5463 3.5 9.8 4.7537 9.8 6.3C9.8 7.8463 8.5463 9.1 7 9.1C5.4537 9.1 4.2 7.8463 4.2 6.3M7 13.3C5.1191 13.3 3.4314 12.4761 2.2764 11.1692C2.3842 11.0075 2.5354 10.8773 2.716 10.7961L5.5734 9.4969C6.0088 9.6915 6.4918 9.8 7 9.8C7.5082 9.8 7.9912 9.6915 8.4273 9.4969L11.2847 10.7961C11.4646 10.8773 11.6158 11.0075 11.7236 11.1692C10.5693 12.4761 8.8809 13.3 7 13.3M7 0C3.1339 0 0 3.1339 0 7C0 10.8661 3.1339 14 7 14C10.8661 14 14 10.8661 14 7C14 3.1339 10.8661 0 7 0" id="Shape" fill="#FFFFFF" fill-rule="evenodd" stroke="#FFFFFF" stroke-width="0.4" />
  </g>
</svg>